<svg width="1122" height="993" viewBox="0 0 1122 993" fill="none" xmlns="http://www.w3.org/2000/svg">
<path d="M561.994 348.859C633.126 348.859 690.719 402.776 690.719 469.202C690.719 535.628 633.126 589.545 561.994 589.545C490.861 589.545 433.267 535.629 433.267 469.202C433.267 402.776 490.861 348.859 561.994 348.859Z" stroke="white" stroke-opacity="0.15" stroke-width="1.20588"/>
<path d="M560.817 252.102C688.441 252.102 791.831 348.847 791.831 468.103C791.83 587.36 688.441 684.103 560.817 684.103C433.193 684.103 329.803 587.359 329.803 468.103C329.803 348.847 433.193 252.102 560.817 252.102Z" stroke="white" stroke-opacity="0.15" stroke-width="1.20588"/>
<path d="M560.818 153.146C746.881 153.146 897.646 294.195 897.646 468.103C897.646 642.011 746.881 783.059 560.818 783.059C374.754 783.059 223.989 642.011 223.989 468.103C223.989 294.195 374.754 153.146 560.818 153.146Z" stroke="white" stroke-opacity="0.15" stroke-width="1.20588"/>
<path d="M561.994 49.7922C809.744 49.7925 1010.52 237.606 1010.52 469.202C1010.52 700.798 809.744 888.611 561.994 888.612C314.244 888.612 113.472 700.798 113.471 469.202C113.471 237.606 314.244 49.7922 561.994 49.7922Z" stroke="white" stroke-opacity="0.15" stroke-width="1.20588"/>
<path d="M560.817 -55.7607C870.254 -55.7607 1121.03 178.818 1121.03 468.103C1121.03 757.387 870.254 991.966 560.817 991.966C251.381 991.966 0.602539 757.387 0.602539 468.103C0.60261 178.819 251.381 -55.7606 560.817 -55.7607Z" stroke="white" stroke-opacity="0.15" stroke-width="1.20588"/>
</svg>
