<svg width="8" height="2" viewBox="0 0 8 2" fill="none" xmlns="http://www.w3.org/2000/svg">
<g clip-path="url(#clip0_96_63)">
<path d="M-17.3333 1C-17.3333 3.94552 -14.9455 6.33333 -12 6.33333C-9.05448 6.33333 -6.66667 3.94552 -6.66667 1C-6.66667 -1.94552 -9.05448 -4.33333 -12 -4.33333C-14.9455 -4.33333 -17.3333 -1.94552 -17.3333 1ZM1422.67 1.00013C1422.67 3.94564 1425.05 6.33346 1428 6.33346C1430.95 6.33346 1433.33 3.94565 1433.33 1.00013C1433.33 -1.94539 1430.95 -4.33321 1428 -4.33321C1425.05 -4.33321 1422.67 -1.94539 1422.67 1.00013ZM-10 2C-9.44772 2 -9 1.55229 -9 1C-9 0.447716 -9.44772 2.23128e-07 -10 1.74846e-07L-10 1L-10 2ZM-6 5.24537e-07C-6.55228 4.76254e-07 -7 0.447716 -7 1C-7 1.55229 -6.55228 2 -6 2L-6 1L-6 5.24537e-07ZM-2 2C-1.44772 2 -1 1.55229 -1 1C-1 0.447716 -1.44772 9.2251e-07 -2 8.74228e-07L-2 1L-2 2ZM2 1.22392e-06C1.44772 1.17564e-06 1 0.447716 1 1C1 1.55229 1.44772 2 2 2L2 1L2 1.22392e-06ZM6 2C6.55228 2 7 1.55229 7 1C7 0.447717 6.55229 1.62189e-06 6 1.57361e-06L6 1L6 2ZM10 1.9233e-06C9.44772 1.87502e-06 9 0.447717 9 1C9 1.55229 9.44772 2 10 2L10 1L10 1.9233e-06ZM14 2C14.5523 2 15 1.55229 15 1C15 0.447718 14.5523 2.32127e-06 14 2.27299e-06L14 1L14 2ZM18 2.62268e-06C17.4477 2.5744e-06 17 0.447718 17 1C17 1.55229 17.4477 2 18 2L18 1L18 2.62268e-06ZM22 2C22.5523 2 23 1.55229 23 1C23 0.447718 22.5523 3.02066e-06 22 2.97237e-06L22 1L22 2ZM26 3.32207e-06C25.4477 3.27378e-06 25 0.447718 25 1C25 1.55229 25.4477 2 26 2L26 1L26 3.32207e-06ZM30 2C30.5523 2 31 1.55229 31 1C31 0.447719 30.5523 3.72004e-06 30 3.67176e-06L30 1L30 2ZM34 4.02145e-06C33.4477 3.97317e-06 33 0.447719 33 1C33 1.55229 33.4477 2 34 2L34 1L34 4.02145e-06ZM38 2C38.5523 2 39 1.55229 39 1C39 0.44772 38.5523 4.41942e-06 38 4.37114e-06L38 1L38 2ZM42 4.72083e-06C41.4477 4.67255e-06 41 0.44772 41 1C41 1.55229 41.4477 2 42 2L42 1L42 4.72083e-06ZM46 2.00001C46.5523 2.00001 47 1.55229 47 1.00001C47 0.44772 46.5523 5.1188e-06 46 5.07052e-06L46 1.00001L46 2.00001ZM50 5.42021e-06C49.4477 5.37193e-06 49 0.447721 49 1.00001C49 1.55229 49.4477 2.00001 50 2.00001L50 1.00001L50 5.42021e-06ZM54 2.00001C54.5523 2.00001 55 1.55229 55 1.00001C55 0.447721 54.5523 5.81819e-06 54 5.7699e-06L54 1.00001L54 2.00001ZM58 6.11959e-06C57.4477 6.07131e-06 57 0.447721 57 1.00001C57 1.55229 57.4477 2.00001 58 2.00001L58 1.00001L58 6.11959e-06ZM62 2.00001C62.5523 2.00001 63 1.55229 63 1.00001C63 0.447722 62.5523 6.51757e-06 62 6.46929e-06L62 1.00001L62 2.00001ZM66 6.81898e-06C65.4477 6.77069e-06 65 0.447722 65 1.00001C65 1.55229 65.4477 2.00001 66 2.00001L66 1.00001L66 6.81898e-06ZM70 2.00001C70.5523 2.00001 71 1.55229 71 1.00001C71 0.447723 70.5523 7.21695e-06 70 7.16867e-06L70 1.00001L70 2.00001ZM74 7.51836e-06C73.4477 7.47008e-06 73 0.447723 73 1.00001C73 1.55229 73.4477 2.00001 74 2.00001L74 1.00001L74 7.51836e-06ZM78 2.00001C78.5523 2.00001 79 1.55229 79 1.00001C79 0.447723 78.5523 7.91633e-06 78 7.86805e-06L78 1.00001L78 2.00001ZM82 8.21774e-06C81.4477 8.16946e-06 81 0.447723 81 1.00001C81 1.55229 81.4477 2.00001 82 2.00001L82 1.00001L82 8.21774e-06ZM86 2.00001C86.5523 2.00001 87 1.55229 87 1.00001C87 0.447724 86.5523 8.61572e-06 86 8.56743e-06L86 1.00001L86 2.00001ZM90 8.91712e-06C89.4477 8.86884e-06 89 0.447724 89 1.00001C89 1.55229 89.4477 2.00001 90 2.00001L90 1.00001L90 8.91712e-06ZM94 2.00001C94.5523 2.00001 95 1.55229 95 1.00001C95 0.447725 94.5523 9.3151e-06 94 9.26681e-06L94 1.00001L94 2.00001ZM98 9.61651e-06C97.4477 9.56822e-06 97 0.447725 97 1.00001C97 1.55229 97.4477 2.00001 98 2.00001L98 1.00001L98 9.61651e-06ZM102 2.00001C102.552 2.00001 103 1.55229 103 1.00001C103 0.447725 102.552 1.00145e-05 102 9.9662e-06L102 1.00001L102 2.00001ZM106 1.03159e-05C105.448 1.02676e-05 105 0.447725 105 1.00001C105 1.55229 105.448 2.00001 106 2.00001L106 1.00001L106 1.03159e-05ZM110 2.00001C110.552 2.00001 111 1.5523 111 1.00001C111 0.447726 110.552 1.07139e-05 110 1.06656e-05L110 1.00001L110 2.00001ZM114 1.10153e-05C113.448 1.0967e-05 113 0.447726 113 1.00001C113 1.5523 113.448 2.00001 114 2.00001L114 1.00001L114 1.10153e-05ZM118 2.00001C118.552 2.00001 119 1.5523 119 1.00001C119 0.447727 118.552 1.14132e-05 118 1.1365e-05L118 1.00001L118 2.00001ZM122 1.17147e-05C121.448 1.16664e-05 121 0.447727 121 1.00001C121 1.5523 121.448 2.00001 122 2.00001L122 1.00001L122 1.17147e-05ZM126 2.00001C126.552 2.00001 127 1.5523 127 1.00001C127 0.447727 126.552 1.21126e-05 126 1.20643e-05L126 1.00001L126 2.00001ZM130 1.2414e-05C129.448 1.23658e-05 129 0.447728 129 1.00001C129 1.5523 129.448 2.00001 130 2.00001L130 1.00001L130 1.2414e-05ZM134 2.00001C134.552 2.00001 135 1.5523 135 1.00001C135 0.447728 134.552 1.2812e-05 134 1.27637e-05L134 1.00001L134 2.00001ZM138 1.31134e-05C137.448 1.30651e-05 137 0.447728 137 1.00001C137 1.5523 137.448 2.00001 138 2.00001L138 1.00001L138 1.31134e-05ZM142 2.00001C142.552 2.00001 143 1.5523 143 1.00001C143 0.447729 142.552 1.35114e-05 142 1.34631e-05L142 1.00001L142 2.00001ZM146 1.38128e-05C145.448 1.37645e-05 145 0.447729 145 1.00001C145 1.5523 145.448 2.00001 146 2.00001L146 1.00001L146 1.38128e-05ZM150 2.00001C150.552 2.00001 151 1.5523 151 1.00001C151 0.44773 150.552 1.42108e-05 150 1.41625e-05L150 1.00001L150 2.00001ZM154 1.45122e-05C153.448 1.44639e-05 153 0.44773 153 1.00001C153 1.5523 153.448 2.00001 154 2.00001L154 1.00001L154 1.45122e-05ZM158 2.00001C158.552 2.00001 159 1.5523 159 1.00001C159 0.44773 158.552 1.49102e-05 158 1.48619e-05L158 1.00001L158 2.00001ZM162 1.52116e-05C161.448 1.51633e-05 161 0.44773 161 1.00002C161 1.5523 161.448 2.00002 162 2.00002L162 1.00002L162 1.52116e-05ZM166 2.00002C166.552 2.00002 167 1.5523 167 1.00002C167 0.447731 166.552 1.56095e-05 166 1.55613e-05L166 1.00002L166 2.00002ZM170 1.59109e-05C169.448 1.58627e-05 169 0.447731 169 1.00002C169 1.5523 169.448 2.00002 170 2.00002L170 1.00002L170 1.59109e-05ZM174 2.00002C174.552 2.00002 175 1.5523 175 1.00002C175 0.447732 174.552 1.63089e-05 174 1.62606e-05L174 1.00002L174 2.00002ZM178 1.66103e-05C177.448 1.6562e-05 177 0.447732 177 1.00002C177 1.5523 177.448 2.00002 178 2.00002L178 1.00002L178 1.66103e-05ZM182 2.00002C182.552 2.00002 183 1.5523 183 1.00002C183 0.447732 182.552 1.70083e-05 182 1.696e-05L182 1.00002L182 2.00002ZM186 1.73097e-05C185.448 1.72614e-05 185 0.447732 185 1.00002C185 1.5523 185.448 2.00002 186 2.00002L186 1.00002L186 1.73097e-05ZM190 2.00002C190.552 2.00002 191 1.5523 191 1.00002C191 0.447733 190.552 1.77077e-05 190 1.76594e-05L190 1.00002L190 2.00002ZM194 1.80091e-05C193.448 1.79608e-05 193 0.447733 193 1.00002C193 1.5523 193.448 2.00002 194 2.00002L194 1.00002L194 1.80091e-05ZM198 2.00002C198.552 2.00002 199 1.5523 199 1.00002C199 0.447734 198.552 1.84071e-05 198 1.83588e-05L198 1.00002L198 2.00002ZM202 1.87085e-05C201.448 1.86602e-05 201 0.447734 201 1.00002C201 1.5523 201.448 2.00002 202 2.00002L202 1.00002L202 1.87085e-05ZM206 2.00002C206.552 2.00002 207 1.5523 207 1.00002C207 0.447734 206.552 1.91064e-05 206 1.90582e-05L206 1.00002L206 2.00002ZM210 1.94079e-05C209.448 1.93596e-05 209 0.447735 209 1.00002C209 1.5523 209.448 2.00002 210 2.00002L210 1.00002L210 1.94079e-05ZM214 2.00002C214.552 2.00002 215 1.5523 215 1.00002C215 0.447735 214.552 1.98058e-05 214 1.97575e-05L214 1.00002L214 2.00002ZM218 2.01072e-05C217.448 2.0059e-05 217 0.447735 217 1.00002C217 1.5523 217.448 2.00002 218 2.00002L218 1.00002L218 2.01072e-05ZM222 2.00002C222.552 2.00002 223 1.55231 223 1.00002C223 0.447736 222.552 2.05052e-05 222 2.04569e-05L222 1.00002L222 2.00002ZM226 2.08066e-05C225.448 2.07583e-05 225 0.447736 225 1.00002C225 1.55231 225.448 2.00002 226 2.00002L226 1.00002L226 2.08066e-05ZM230 2.00002C230.552 2.00002 231 1.55231 231 1.00002C231 0.447736 230.552 2.12046e-05 230 2.11563e-05L230 1.00002L230 2.00002ZM234 2.1506e-05C233.448 2.14577e-05 233 0.447737 233 1.00002C233 1.55231 233.448 2.00002 234 2.00002L234 1.00002L234 2.1506e-05ZM238 2.00002C238.552 2.00002 239 1.55231 239 1.00002C239 0.447737 238.552 2.1904e-05 238 2.18557e-05L238 1.00002L238 2.00002ZM242 2.22054e-05C241.448 2.21571e-05 241 0.447737 241 1.00002C241 1.55231 241.448 2.00002 242 2.00002L242 1.00002L242 2.22054e-05ZM246 2.00002C246.552 2.00002 247 1.55231 247 1.00002C247 0.447738 246.552 2.26034e-05 246 2.25551e-05L246 1.00002L246 2.00002ZM250 2.29048e-05C249.448 2.28565e-05 249 0.447738 249 1.00002C249 1.55231 249.448 2.00002 250 2.00002L250 1.00002L250 2.29048e-05ZM254 2.00002C254.552 2.00002 255 1.55231 255 1.00002C255 0.447739 254.552 2.33027e-05 254 2.32545e-05L254 1.00002L254 2.00002ZM258 2.36042e-05C257.448 2.35559e-05 257 0.447739 257 1.00002C257 1.55231 257.448 2.00002 258 2.00002L258 1.00002L258 2.36042e-05ZM262 2.00002C262.552 2.00002 263 1.55231 263 1.00002C263 0.447739 262.552 2.40021e-05 262 2.39538e-05L262 1.00002L262 2.00002ZM266 2.43035e-05C265.448 2.42553e-05 265 0.447739 265 1.00002C265 1.55231 265.448 2.00002 266 2.00002L266 1.00002L266 2.43035e-05ZM270 2.00002C270.552 2.00002 271 1.55231 271 1.00002C271 0.44774 270.552 2.47015e-05 270 2.46532e-05L270 1.00002L270 2.00002ZM274 2.50029e-05C273.448 2.49546e-05 273 0.44774 273 1.00002C273 1.55231 273.448 2.00002 274 2.00003L274 1.00003L274 2.50029e-05ZM278 2.00003C278.552 2.00003 279 1.55231 279 1.00003C279 0.447741 278.552 2.54009e-05 278 2.53526e-05L278 1.00003L278 2.00003ZM282 2.57023e-05C281.448 2.5654e-05 281 0.447741 281 1.00003C281 1.55231 281.448 2.00003 282 2.00003L282 1.00003L282 2.57023e-05ZM286 2.00003C286.552 2.00003 287 1.55231 287 1.00003C287 0.447741 286.552 2.61003e-05 286 2.6052e-05L286 1.00003L286 2.00003ZM290 2.64017e-05C289.448 2.63534e-05 289 0.447742 289 1.00003C289 1.55231 289.448 2.00003 290 2.00003L290 1.00003L290 2.64017e-05ZM294 2.00003C294.552 2.00003 295 1.55231 295 1.00003C295 0.447742 294.552 2.67997e-05 294 2.67514e-05L294 1.00003L294 2.00003ZM298 2.71011e-05C297.448 2.70528e-05 297 0.447742 297 1.00003C297 1.55231 297.448 2.00003 298 2.00003L298 1.00003L298 2.71011e-05ZM302 2.00003C302.552 2.00003 303 1.55231 303 1.00003C303 0.447743 302.552 2.7499e-05 302 2.74508e-05L302 1.00003L302 2.00003ZM306 2.78004e-05C305.448 2.77522e-05 305 0.447743 305 1.00003C305 1.55231 305.448 2.00003 306 2.00003L306 1.00003L306 2.78004e-05ZM310 2.00003C310.552 2.00003 311 1.55231 311 1.00003C311 0.447743 310.552 2.81984e-05 310 2.81501e-05L310 1.00003L310 2.00003ZM314 2.84998e-05C313.448 2.84515e-05 313 0.447744 313 1.00003C313 1.55231 313.448 2.00003 314 2.00003L314 1.00003L314 2.84998e-05ZM318 2.00003C318.552 2.00003 319 1.55231 319 1.00003C319 0.447744 318.552 2.88978e-05 318 2.88495e-05L318 1.00003L318 2.00003ZM322 2.91992e-05C321.448 2.91509e-05 321 0.447744 321 1.00003C321 1.55231 321.448 2.00003 322 2.00003L322 1.00003L322 2.91992e-05ZM326 2.00003C326.552 2.00003 327 1.55231 327 1.00003C327 0.447745 326.552 2.95972e-05 326 2.95489e-05L326 1.00003L326 2.00003ZM330 2.98986e-05C329.448 2.98503e-05 329 0.447745 329 1.00003C329 1.55231 329.448 2.00003 330 2.00003L330 1.00003L330 2.98986e-05ZM334 2.00003C334.552 2.00003 335 1.55232 335 1.00003C335 0.447746 334.552 3.02966e-05 334 3.02483e-05L334 1.00003L334 2.00003ZM338 3.0598e-05C337.448 3.05497e-05 337 0.447746 337 1.00003C337 1.55232 337.448 2.00003 338 2.00003L338 1.00003L338 3.0598e-05ZM342 2.00003C342.552 2.00003 343 1.55232 343 1.00003C343 0.447746 342.552 3.09959e-05 342 3.09477e-05L342 1.00003L342 2.00003ZM346 3.12974e-05C345.448 3.12491e-05 345 0.447746 345 1.00003C345 1.55232 345.448 2.00003 346 2.00003L346 1.00003L346 3.12974e-05ZM350 2.00003C350.552 2.00003 351 1.55232 351 1.00003C351 0.447747 350.552 3.16953e-05 350 3.1647e-05L350 1.00003L350 2.00003ZM354 3.19967e-05C353.448 3.19485e-05 353 0.447747 353 1.00003C353 1.55232 353.448 2.00003 354 2.00003L354 1.00003L354 3.19967e-05ZM358 2.00003C358.552 2.00003 359 1.55232 359 1.00003C359 0.447748 358.552 3.23947e-05 358 3.23464e-05L358 1.00003L358 2.00003ZM362 3.26961e-05C361.448 3.26478e-05 361 0.447748 361 1.00003C361 1.55232 361.448 2.00003 362 2.00003L362 1.00003L362 3.26961e-05ZM366 2.00003C366.552 2.00003 367 1.55232 367 1.00003C367 0.447748 366.552 3.30941e-05 366 3.30458e-05L366 1.00003L366 2.00003ZM370 3.33955e-05C369.448 3.33472e-05 369 0.447749 369 1.00003C369 1.55232 369.448 2.00003 370 2.00003L370 1.00003L370 3.33955e-05ZM374 2.00003C374.552 2.00003 375 1.55232 375 1.00003C375 0.447749 374.552 3.37935e-05 374 3.37452e-05L374 1.00003L374 2.00003ZM378 3.40949e-05C377.448 3.40466e-05 377 0.447749 377 1.00003C377 1.55232 377.448 2.00003 378 2.00003L378 1.00003L378 3.40949e-05ZM382 2.00003C382.552 2.00003 383 1.55232 383 1.00003C383 0.44775 382.552 3.44929e-05 382 3.44446e-05L382 1.00003L382 2.00003ZM386 3.47943e-05C385.448 3.4746e-05 385 0.44775 385 1.00003C385 1.55232 385.448 2.00003 386 2.00003L386 1.00003L386 3.47943e-05ZM390 2.00004C390.552 2.00004 391 1.55232 391 1.00004C391 0.44775 390.552 3.51922e-05 390 3.5144e-05L390 1.00004L390 2.00004ZM394 3.54937e-05C393.448 3.54454e-05 393 0.447751 393 1.00004C393 1.55232 393.448 2.00004 394 2.00004L394 1.00004L394 3.54937e-05ZM398 2.00004C398.552 2.00004 399 1.55232 399 1.00004C399 0.447751 398.552 3.58916e-05 398 3.58433e-05L398 1.00004L398 2.00004ZM402 3.6193e-05C401.448 3.61447e-05 401 0.447751 401 1.00004C401 1.55232 401.448 2.00004 402 2.00004L402 1.00004L402 3.6193e-05ZM406 2.00004C406.552 2.00004 407 1.55232 407 1.00004C407 0.447752 406.552 3.6591e-05 406 3.65427e-05L406 1.00004L406 2.00004ZM410 3.68924e-05C409.448 3.68441e-05 409 0.447752 409 1.00004C409 1.55232 409.448 2.00004 410 2.00004L410 1.00004L410 3.68924e-05ZM414 2.00004C414.552 2.00004 415 1.55232 415 1.00004C415 0.447753 414.552 3.72904e-05 414 3.72421e-05L414 1.00004L414 2.00004ZM418 3.75918e-05C417.448 3.75435e-05 417 0.447753 417 1.00004C417 1.55232 417.448 2.00004 418 2.00004L418 1.00004L418 3.75918e-05ZM422 2.00004C422.552 2.00004 423 1.55232 423 1.00004C423 0.447753 422.552 3.79898e-05 422 3.79415e-05L422 1.00004L422 2.00004ZM426 3.82912e-05C425.448 3.82429e-05 425 0.447753 425 1.00004C425 1.55232 425.448 2.00004 426 2.00004L426 1.00004L426 3.82912e-05ZM430 2.00004C430.552 2.00004 431 1.55232 431 1.00004C431 0.447754 430.552 3.86892e-05 430 3.86409e-05L430 1.00004L430 2.00004ZM434 3.89906e-05C433.448 3.89423e-05 433 0.447754 433 1.00004C433 1.55232 433.448 2.00004 434 2.00004L434 1.00004L434 3.89906e-05ZM438 2.00004C438.552 2.00004 439 1.55232 439 1.00004C439 0.447755 438.552 3.93885e-05 438 3.93403e-05L438 1.00004L438 2.00004ZM442 3.96899e-05C441.448 3.96417e-05 441 0.447755 441 1.00004C441 1.55232 441.448 2.00004 442 2.00004L442 1.00004L442 3.96899e-05ZM446 2.00004C446.552 2.00004 447 1.55232 447 1.00004C447 0.447755 446.552 4.00879e-05 446 4.00396e-05L446 1.00004L446 2.00004ZM450 4.03893e-05C449.448 4.0341e-05 449 0.447756 449 1.00004C449 1.55233 449.448 2.00004 450 2.00004L450 1.00004L450 4.03893e-05ZM454 2.00004C454.552 2.00004 455 1.55233 455 1.00004C455 0.447756 454.552 4.07873e-05 454 4.0739e-05L454 1.00004L454 2.00004ZM458 4.10887e-05C457.448 4.10404e-05 457 0.447756 457 1.00004C457 1.55233 457.448 2.00004 458 2.00004L458 1.00004L458 4.10887e-05ZM462 2.00004C462.552 2.00004 463 1.55233 463 1.00004C463 0.447757 462.552 4.14867e-05 462 4.14384e-05L462 1.00004L462 2.00004ZM466 4.17881e-05C465.448 4.17398e-05 465 0.447757 465 1.00004C465 1.55233 465.448 2.00004 466 2.00004L466 1.00004L466 4.17881e-05ZM470 2.00004C470.552 2.00004 471 1.55233 471 1.00004C471 0.447757 470.552 4.21861e-05 470 4.21378e-05L470 1.00004L470 2.00004ZM474 4.24875e-05C473.448 4.24392e-05 473 0.447758 473 1.00004C473 1.55233 473.448 2.00004 474 2.00004L474 1.00004L474 4.24875e-05ZM478 2.00004C478.552 2.00004 479 1.55233 479 1.00004C479 0.447758 478.552 4.28854e-05 478 4.28372e-05L478 1.00004L478 2.00004ZM482 4.31869e-05C481.448 4.31386e-05 481 0.447758 481 1.00004C481 1.55233 481.448 2.00004 482 2.00004L482 1.00004L482 4.31869e-05ZM486 2.00004C486.552 2.00004 487 1.55233 487 1.00004C487 0.447759 486.552 4.35848e-05 486 4.35365e-05L486 1.00004L486 2.00004ZM490 4.38862e-05C489.448 4.3838e-05 489 0.447759 489 1.00004C489 1.55233 489.448 2.00004 490 2.00004L490 1.00004L490 4.38862e-05ZM494 2.00004C494.552 2.00004 495 1.55233 495 1.00004C495 0.44776 494.552 4.42842e-05 494 4.42359e-05L494 1.00004L494 2.00004ZM498 4.45856e-05C497.448 4.45373e-05 497 0.44776 497 1.00004C497 1.55233 497.448 2.00004 498 2.00004L498 1.00004L498 4.45856e-05ZM502 2.00004C502.552 2.00004 503 1.55233 503 1.00005C503 0.44776 502.552 4.49836e-05 502 4.49353e-05L502 1.00004L502 2.00004ZM506 4.5285e-05C505.448 4.52367e-05 505 0.44776 505 1.00005C505 1.55233 505.448 2.00005 506 2.00005L506 1.00005L506 4.5285e-05ZM510 2.00005C510.552 2.00005 511 1.55233 511 1.00005C511 0.447761 510.552 4.5683e-05 510 4.56347e-05L510 1.00005L510 2.00005ZM514 4.59844e-05C513.448 4.59361e-05 513 0.447761 513 1.00005C513 1.55233 513.448 2.00005 514 2.00005L514 1.00005L514 4.59844e-05ZM518 2.00005C518.552 2.00005 519 1.55233 519 1.00005C519 0.447762 518.552 4.63824e-05 518 4.63341e-05L518 1.00005L518 2.00005ZM522 4.66838e-05C521.448 4.66355e-05 521 0.447762 521 1.00005C521 1.55233 521.448 2.00005 522 2.00005L522 1.00005L522 4.66838e-05ZM526 2.00005C526.552 2.00005 527 1.55233 527 1.00005C527 0.447762 526.552 4.70817e-05 526 4.70335e-05L526 1.00005L526 2.00005ZM530 4.73831e-05C529.448 4.73349e-05 529 0.447763 529 1.00005C529 1.55233 529.448 2.00005 530 2.00005L530 1.00005L530 4.73831e-05ZM534 2.00005C534.552 2.00005 535 1.55233 535 1.00005C535 0.447763 534.552 4.77811e-05 534 4.77328e-05L534 1.00005L534 2.00005ZM538 4.80825e-05C537.448 4.80342e-05 537 0.447763 537 1.00005C537 1.55233 537.448 2.00005 538 2.00005L538 1.00005L538 4.80825e-05ZM542 2.00005C542.552 2.00005 543 1.55233 543 1.00005C543 0.447764 542.552 4.84805e-05 542 4.84322e-05L542 1.00005L542 2.00005ZM546 4.87819e-05C545.448 4.87336e-05 545 0.447764 545 1.00005C545 1.55233 545.448 2.00005 546 2.00005L546 1.00005L546 4.87819e-05ZM550 2.00005C550.552 2.00005 551 1.55233 551 1.00005C551 0.447764 550.552 4.91799e-05 550 4.91316e-05L550 1.00005L550 2.00005ZM554 4.94813e-05C553.448 4.9433e-05 553 0.447765 553 1.00005C553 1.55233 553.448 2.00005 554 2.00005L554 1.00005L554 4.94813e-05ZM558 2.00005C558.552 2.00005 559 1.55233 559 1.00005C559 0.447765 558.552 4.98793e-05 558 4.9831e-05L558 1.00005L558 2.00005ZM562 5.01807e-05C561.448 5.01324e-05 561 0.447765 561 1.00005C561 1.55233 561.448 2.00005 562 2.00005L562 1.00005L562 5.01807e-05ZM566 2.00005C566.552 2.00005 567 1.55234 567 1.00005C567 0.447766 566.552 5.05787e-05 566 5.05304e-05L566 1.00005L566 2.00005ZM570 5.08801e-05C569.448 5.08318e-05 569 0.447766 569 1.00005C569 1.55234 569.448 2.00005 570 2.00005L570 1.00005L570 5.08801e-05ZM574 2.00005C574.552 2.00005 575 1.55234 575 1.00005C575 0.447767 574.552 5.1278e-05 574 5.12298e-05L574 1.00005L574 2.00005ZM578 5.15794e-05C577.448 5.15312e-05 577 0.447767 577 1.00005C577 1.55234 577.448 2.00005 578 2.00005L578 1.00005L578 5.15794e-05ZM582 2.00005C582.552 2.00005 583 1.55234 583 1.00005C583 0.447767 582.552 5.19774e-05 582 5.19291e-05L582 1.00005L582 2.00005ZM586 5.22788e-05C585.448 5.22305e-05 585 0.447767 585 1.00005C585 1.55234 585.448 2.00005 586 2.00005L586 1.00005L586 5.22788e-05ZM590 2.00005C590.552 2.00005 591 1.55234 591 1.00005C591 0.447768 590.552 5.26768e-05 590 5.26285e-05L590 1.00005L590 2.00005ZM594 5.29782e-05C593.448 5.29299e-05 593 0.447768 593 1.00005C593 1.55234 593.448 2.00005 594 2.00005L594 1.00005L594 5.29782e-05ZM598 2.00005C598.552 2.00005 599 1.55234 599 1.00005C599 0.447769 598.552 5.33762e-05 598 5.33279e-05L598 1.00005L598 2.00005ZM602 5.36776e-05C601.448 5.36293e-05 601 0.447769 601 1.00005C601 1.55234 601.448 2.00005 602 2.00005L602 1.00005L602 5.36776e-05ZM606 2.00005C606.552 2.00005 607 1.55234 607 1.00005C607 0.447769 606.552 5.40756e-05 606 5.40273e-05L606 1.00005L606 2.00005ZM610 5.4377e-05C609.448 5.43287e-05 609 0.44777 609 1.00005C609 1.55234 609.448 2.00005 610 2.00005L610 1.00005L610 5.4377e-05ZM614 2.00005C614.552 2.00005 615 1.55234 615 1.00005C615 0.44777 614.552 5.47749e-05 614 5.47267e-05L614 1.00005L614 2.00005ZM618 5.50764e-05C617.448 5.50281e-05 617 0.44777 617 1.00005C617 1.55234 617.448 2.00006 618 2.00006L618 1.00006L618 5.50764e-05ZM622 2.00006C622.552 2.00006 623 1.55234 623 1.00006C623 0.447771 622.552 5.54743e-05 622 5.5426e-05L622 1.00006L622 2.00006ZM626 5.57757e-05C625.448 5.57275e-05 625 0.447771 625 1.00006C625 1.55234 625.448 2.00006 626 2.00006L626 1.00006L626 5.57757e-05ZM630 2.00006C630.552 2.00006 631 1.55234 631 1.00006C631 0.447771 630.552 5.61737e-05 630 5.61254e-05L630 1.00006L630 2.00006ZM634 5.64751e-05C633.448 5.64268e-05 633 0.447772 633 1.00006C633 1.55234 633.448 2.00006 634 2.00006L634 1.00006L634 5.64751e-05ZM638 2.00006C638.552 2.00006 639 1.55234 639 1.00006C639 0.447772 638.552 5.68731e-05 638 5.68248e-05L638 1.00006L638 2.00006ZM642 5.71745e-05C641.448 5.71262e-05 641 0.447772 641 1.00006C641 1.55234 641.448 2.00006 642 2.00006L642 1.00006L642 5.71745e-05ZM646 2.00006C646.552 2.00006 647 1.55234 647 1.00006C647 0.447773 646.552 5.75725e-05 646 5.75242e-05L646 1.00006L646 2.00006ZM650 5.78739e-05C649.448 5.78256e-05 649 0.447773 649 1.00006C649 1.55234 649.448 2.00006 650 2.00006L650 1.00006L650 5.78739e-05ZM654 2.00006C654.552 2.00006 655 1.55234 655 1.00006C655 0.447774 654.552 5.82719e-05 654 5.82236e-05L654 1.00006L654 2.00006ZM658 5.85733e-05C657.448 5.8525e-05 657 0.447774 657 1.00006C657 1.55234 657.448 2.00006 658 2.00006L658 1.00006L658 5.85733e-05ZM662 2.00006C662.552 2.00006 663 1.55234 663 1.00006C663 0.447774 662.552 5.89712e-05 662 5.8923e-05L662 1.00006L662 2.00006ZM666 5.92726e-05C665.448 5.92244e-05 665 0.447774 665 1.00006C665 1.55234 665.448 2.00006 666 2.00006L666 1.00006L666 5.92726e-05ZM670 2.00006C670.552 2.00006 671 1.55234 671 1.00006C671 0.447775 670.552 5.96706e-05 670 5.96223e-05L670 1.00006L670 2.00006ZM674 5.9972e-05C673.448 5.99237e-05 673 0.447775 673 1.00006C673 1.55234 673.448 2.00006 674 2.00006L674 1.00006L674 5.9972e-05ZM678 2.00006C678.552 2.00006 679 1.55235 679 1.00006C679 0.447776 678.552 6.037e-05 678 6.03217e-05L678 1.00006L678 2.00006ZM682 6.06714e-05C681.448 6.06231e-05 681 0.447776 681 1.00006C681 1.55235 681.448 2.00006 682 2.00006L682 1.00006L682 6.06714e-05ZM686 2.00006C686.552 2.00006 687 1.55235 687 1.00006C687 0.447776 686.552 6.10694e-05 686 6.10211e-05L686 1.00006L686 2.00006ZM690 6.13708e-05C689.448 6.13225e-05 689 0.447777 689 1.00006C689 1.55235 689.448 2.00006 690 2.00006L690 1.00006L690 6.13708e-05ZM694 2.00006C694.552 2.00006 695 1.55235 695 1.00006C695 0.447777 694.552 6.17688e-05 694 6.17205e-05L694 1.00006L694 2.00006ZM698 6.20702e-05C697.448 6.20219e-05 697 0.447777 697 1.00006C697 1.55235 697.448 2.00006 698 2.00006L698 1.00006L698 6.20702e-05ZM702 2.00006C702.552 2.00006 703 1.55235 703 1.00006C703 0.447778 702.552 6.24682e-05 702 6.24199e-05L702 1.00006L702 2.00006ZM706 6.27696e-05C705.448 6.27213e-05 705 0.447778 705 1.00006C705 1.55235 705.448 2.00006 706 2.00006L706 1.00006L706 6.27696e-05ZM710 2.00006C710.552 2.00006 711 1.55235 711 1.00006C711 0.447778 710.552 6.31675e-05 710 6.31193e-05L710 1.00006L710 2.00006ZM714 6.34689e-05C713.448 6.34207e-05 713 0.447779 713 1.00006C713 1.55235 713.448 2.00006 714 2.00006L714 1.00006L714 6.34689e-05ZM718 2.00006C718.552 2.00006 719 1.55235 719 1.00006C719 0.447779 718.552 6.38669e-05 718 6.38186e-05L718 1.00006L718 2.00006ZM722 6.41683e-05C721.448 6.412e-05 721 0.447779 721 1.00006C721 1.55235 721.448 2.00006 722 2.00006L722 1.00006L722 6.41683e-05ZM726 2.00006C726.552 2.00006 727 1.55235 727 1.00006C727 0.44778 726.552 6.45663e-05 726 6.4518e-05L726 1.00006L726 2.00006ZM730 6.48677e-05C729.448 6.48194e-05 729 0.44778 729 1.00006C729 1.55235 729.448 2.00006 730 2.00006L730 1.00006L730 6.48677e-05ZM734 2.00007C734.552 2.00007 735 1.55235 735 1.00007C735 0.447781 734.552 6.52657e-05 734 6.52174e-05L734 1.00007L734 2.00007ZM738 6.55671e-05C737.448 6.55188e-05 737 0.447781 737 1.00007C737 1.55235 737.448 2.00007 738 2.00007L738 1.00007L738 6.55671e-05ZM742 2.00007C742.552 2.00007 743 1.55235 743 1.00007C743 0.447781 742.552 6.59651e-05 742 6.59168e-05L742 1.00007L742 2.00007ZM746 6.62665e-05C745.448 6.62182e-05 745 0.447781 745 1.00007C745 1.55235 745.448 2.00007 746 2.00007L746 1.00007L746 6.62665e-05ZM750 2.00007C750.552 2.00007 751 1.55235 751 1.00007C751 0.447782 750.552 6.66644e-05 750 6.66162e-05L750 1.00007L750 2.00007ZM754 6.69659e-05C753.448 6.69176e-05 753 0.447782 753 1.00007C753 1.55235 753.448 2.00007 754 2.00007L754 1.00007L754 6.69659e-05ZM758 2.00007C758.552 2.00007 759 1.55235 759 1.00007C759 0.447783 758.552 6.73638e-05 758 6.73155e-05L758 1.00007L758 2.00007ZM762 6.76652e-05C761.448 6.7617e-05 761 0.447783 761 1.00007C761 1.55235 761.448 2.00007 762 2.00007L762 1.00007L762 6.76652e-05ZM766 2.00007C766.552 2.00007 767 1.55235 767 1.00007C767 0.447783 766.552 6.80632e-05 766 6.80149e-05L766 1.00007L766 2.00007ZM770 6.83646e-05C769.448 6.83163e-05 769 0.447784 769 1.00007C769 1.55235 769.448 2.00007 770 2.00007L770 1.00007L770 6.83646e-05ZM774 2.00007C774.552 2.00007 775 1.55235 775 1.00007C775 0.447784 774.552 6.87626e-05 774 6.87143e-05L774 1.00007L774 2.00007ZM778 6.9064e-05C777.448 6.90157e-05 777 0.447784 777 1.00007C777 1.55235 777.448 2.00007 778 2.00007L778 1.00007L778 6.9064e-05ZM782 2.00007C782.552 2.00007 783 1.55235 783 1.00007C783 0.447785 782.552 6.9462e-05 782 6.94137e-05L782 1.00007L782 2.00007ZM786 6.97634e-05C785.448 6.97151e-05 785 0.447785 785 1.00007C785 1.55235 785.448 2.00007 786 2.00007L786 1.00007L786 6.97634e-05ZM790 2.00007C790.552 2.00007 791 1.55235 791 1.00007C791 0.447785 790.552 7.01614e-05 790 7.01131e-05L790 1.00007L790 2.00007ZM794 7.04628e-05C793.448 7.04145e-05 793 0.447786 793 1.00007C793 1.55236 793.448 2.00007 794 2.00007L794 1.00007L794 7.04628e-05ZM798 2.00007C798.552 2.00007 799 1.55236 799 1.00007C799 0.447786 798.552 7.08607e-05 798 7.08125e-05L798 1.00007L798 2.00007ZM802 7.11621e-05C801.448 7.11139e-05 801 0.447786 801 1.00007C801 1.55236 801.448 2.00007 802 2.00007L802 1.00007L802 7.11621e-05ZM806 2.00007C806.552 2.00007 807 1.55236 807 1.00007C807 0.447787 806.552 7.15601e-05 806 7.15118e-05L806 1.00007L806 2.00007ZM810 7.18615e-05C809.448 7.18132e-05 809 0.447787 809 1.00007C809 1.55236 809.448 2.00007 810 2.00007L810 1.00007L810 7.18615e-05ZM814 2.00007C814.552 2.00007 815 1.55236 815 1.00007C815 0.447788 814.552 7.22595e-05 814 7.22112e-05L814 1.00007L814 2.00007ZM818 7.25609e-05C817.448 7.25126e-05 817 0.447788 817 1.00007C817 1.55236 817.448 2.00007 818 2.00007L818 1.00007L818 7.25609e-05ZM822 2.00007C822.552 2.00007 823 1.55236 823 1.00007C823 0.447788 822.552 7.29589e-05 822 7.29106e-05L822 1.00007L822 2.00007ZM826 7.32603e-05C825.448 7.3212e-05 825 0.447788 825 1.00007C825 1.55236 825.448 2.00007 826 2.00007L826 1.00007L826 7.32603e-05ZM830 2.00007C830.552 2.00007 831 1.55236 831 1.00007C831 0.447789 830.552 7.36583e-05 830 7.361e-05L830 1.00007L830 2.00007ZM834 7.39597e-05C833.448 7.39114e-05 833 0.447789 833 1.00007C833 1.55236 833.448 2.00007 834 2.00007L834 1.00007L834 7.39597e-05ZM838 2.00007C838.552 2.00007 839 1.55236 839 1.00007C839 0.44779 838.552 7.43577e-05 838 7.43094e-05L838 1.00007L838 2.00007ZM842 7.46591e-05C841.448 7.46108e-05 841 0.44779 841 1.00007C841 1.55236 841.448 2.00007 842 2.00007L842 1.00007L842 7.46591e-05ZM846 2.00008C846.552 2.00008 847 1.55236 847 1.00008C847 0.44779 846.552 7.5057e-05 846 7.50088e-05L846 1.00008L846 2.00008ZM850 7.53584e-05C849.448 7.53102e-05 849 0.447791 849 1.00008C849 1.55236 849.448 2.00008 850 2.00008L850 1.00008L850 7.53584e-05ZM854 2.00008C854.552 2.00008 855 1.55236 855 1.00008C855 0.447791 854.552 7.57564e-05 854 7.57081e-05L854 1.00008L854 2.00008ZM858 7.60578e-05C857.448 7.60095e-05 857 0.447791 857 1.00008C857 1.55236 857.448 2.00008 858 2.00008L858 1.00008L858 7.60578e-05ZM862 2.00008C862.552 2.00008 863 1.55236 863 1.00008C863 0.447792 862.552 7.64558e-05 862 7.64075e-05L862 1.00008L862 2.00008ZM866 7.67572e-05C865.448 7.67089e-05 865 0.447792 865 1.00008C865 1.55236 865.448 2.00008 866 2.00008L866 1.00008L866 7.67572e-05ZM870 2.00008C870.552 2.00008 871 1.55236 871 1.00008C871 0.447792 870.552 7.71552e-05 870 7.71069e-05L870 1.00008L870 2.00008ZM874 7.74566e-05C873.448 7.74083e-05 873 0.447793 873 1.00008C873 1.55236 873.448 2.00008 874 2.00008L874 1.00008L874 7.74566e-05ZM878 2.00008C878.552 2.00008 879 1.55236 879 1.00008C879 0.447793 878.552 7.78546e-05 878 7.78063e-05L878 1.00008L878 2.00008ZM882 7.8156e-05C881.448 7.81077e-05 881 0.447793 881 1.00008C881 1.55236 881.448 2.00008 882 2.00008L882 1.00008L882 7.8156e-05ZM886 2.00008C886.552 2.00008 887 1.55236 887 1.00008C887 0.447794 886.552 7.85539e-05 886 7.85057e-05L886 1.00008L886 2.00008ZM890 7.88554e-05C889.448 7.88071e-05 889 0.447794 889 1.00008C889 1.55236 889.448 2.00008 890 2.00008L890 1.00008L890 7.88554e-05ZM894 2.00008C894.552 2.00008 895 1.55236 895 1.00008C895 0.447795 894.552 7.92533e-05 894 7.9205e-05L894 1.00008L894 2.00008ZM898 7.95547e-05C897.448 7.95064e-05 897 0.447795 897 1.00008C897 1.55236 897.448 2.00008 898 2.00008L898 1.00008L898 7.95547e-05ZM902 2.00008C902.552 2.00008 903 1.55236 903 1.00008C903 0.447795 902.552 7.99527e-05 902 7.99044e-05L902 1.00008L902 2.00008ZM906 8.02541e-05C905.448 8.02058e-05 905 0.447795 905 1.00008C905 1.55236 905.448 2.00008 906 2.00008L906 1.00008L906 8.02541e-05ZM910 2.00008C910.552 2.00008 911 1.55237 911 1.00008C911 0.447796 910.552 8.06521e-05 910 8.06038e-05L910 1.00008L910 2.00008ZM914 8.09535e-05C913.448 8.09052e-05 913 0.447796 913 1.00008C913 1.55237 913.448 2.00008 914 2.00008L914 1.00008L914 8.09535e-05ZM918 2.00008C918.552 2.00008 919 1.55237 919 1.00008C919 0.447797 918.552 8.13515e-05 918 8.13032e-05L918 1.00008L918 2.00008ZM922 8.16529e-05C921.448 8.16046e-05 921 0.447797 921 1.00008C921 1.55237 921.448 2.00008 922 2.00008L922 1.00008L922 8.16529e-05ZM926 2.00008C926.552 2.00008 927 1.55237 927 1.00008C927 0.447797 926.552 8.20509e-05 926 8.20026e-05L926 1.00008L926 2.00008ZM930 8.23523e-05C929.448 8.2304e-05 929 0.447798 929 1.00008C929 1.55237 929.448 2.00008 930 2.00008L930 1.00008L930 8.23523e-05ZM934 2.00008C934.552 2.00008 935 1.55237 935 1.00008C935 0.447798 934.552 8.27502e-05 934 8.2702e-05L934 1.00008L934 2.00008ZM938 8.30516e-05C937.448 8.30034e-05 937 0.447798 937 1.00008C937 1.55237 937.448 2.00008 938 2.00008L938 1.00008L938 8.30516e-05ZM942 2.00008C942.552 2.00008 943 1.55237 943 1.00008C943 0.447799 942.552 8.34496e-05 942 8.34013e-05L942 1.00008L942 2.00008ZM946 8.3751e-05C945.448 8.37027e-05 945 0.447799 945 1.00008C945 1.55237 945.448 2.00008 946 2.00008L946 1.00008L946 8.3751e-05ZM950 2.00008C950.552 2.00008 951 1.55237 951 1.00008C951 0.447799 950.552 8.4149e-05 950 8.41007e-05L950 1.00008L950 2.00008ZM954 8.44504e-05C953.448 8.44021e-05 953 0.4478 953 1.00008C953 1.55237 953.448 2.00008 954 2.00008L954 1.00008L954 8.44504e-05ZM958 2.00008C958.552 2.00008 959 1.55237 959 1.00008C959 0.4478 958.552 8.48484e-05 958 8.48001e-05L958 1.00008L958 2.00008ZM962 8.51498e-05C961.448 8.51015e-05 961 0.4478 961 1.00009C961 1.55237 961.448 2.00009 962 2.00009L962 1.00009L962 8.51498e-05ZM966 2.00009C966.552 2.00009 967 1.55237 967 1.00009C967 0.447801 966.552 8.55478e-05 966 8.54995e-05L966 1.00009L966 2.00009ZM970 8.58492e-05C969.448 8.58009e-05 969 0.447801 969 1.00009C969 1.55237 969.448 2.00009 970 2.00009L970 1.00009L970 8.58492e-05ZM974 2.00009C974.552 2.00009 975 1.55237 975 1.00009C975 0.447802 974.552 8.62471e-05 974 8.61989e-05L974 1.00009L974 2.00009ZM978 8.65486e-05C977.448 8.65003e-05 977 0.447802 977 1.00009C977 1.55237 977.448 2.00009 978 2.00009L978 1.00009L978 8.65486e-05ZM982 2.00009C982.552 2.00009 983 1.55237 983 1.00009C983 0.447802 982.552 8.69465e-05 982 8.68982e-05L982 1.00009L982 2.00009ZM986 8.72479e-05C985.448 8.71997e-05 985 0.447802 985 1.00009C985 1.55237 985.448 2.00009 986 2.00009L986 1.00009L986 8.72479e-05ZM990 2.00009C990.552 2.00009 991 1.55237 991 1.00009C991 0.447803 990.552 8.76459e-05 990 8.75976e-05L990 1.00009L990 2.00009ZM994 8.79473e-05C993.448 8.7899e-05 993 0.447803 993 1.00009C993 1.55237 993.448 2.00009 994 2.00009L994 1.00009L994 8.79473e-05ZM998 2.00009C998.552 2.00009 999 1.55237 999 1.00009C999 0.447804 998.552 8.83453e-05 998 8.8297e-05L998 1.00009L998 2.00009ZM1002 8.86467e-05C1001.45 8.85984e-05 1001 0.447804 1001 1.00009C1001 1.55237 1001.45 2.00009 1002 2.00009L1002 1.00009L1002 8.86467e-05ZM1006 2.00009C1006.55 2.00009 1007 1.55237 1007 1.00009C1007 0.447804 1006.55 8.90447e-05 1006 8.89964e-05L1006 1.00009L1006 2.00009ZM1010 8.93461e-05C1009.45 8.92978e-05 1009 0.447805 1009 1.00009C1009 1.55237 1009.45 2.00009 1010 2.00009L1010 1.00009L1010 8.93461e-05ZM1014 2.00009C1014.55 2.00009 1015 1.55237 1015 1.00009C1015 0.447805 1014.55 8.97441e-05 1014 8.96958e-05L1014 1.00009L1014 2.00009ZM1018 9.00455e-05C1017.45 8.99972e-05 1017 0.447805 1017 1.00009C1017 1.55237 1017.45 2.00009 1018 2.00009L1018 1.00009L1018 9.00455e-05ZM1022 2.00009C1022.55 2.00009 1023 1.55238 1023 1.00009C1023 0.447806 1022.55 9.04434e-05 1022 9.03952e-05L1022 1.00009L1022 2.00009ZM1026 9.07449e-05C1025.45 9.06966e-05 1025 0.447806 1025 1.00009C1025 1.55238 1025.45 2.00009 1026 2.00009L1026 1.00009L1026 9.07449e-05ZM1030 2.00009C1030.55 2.00009 1031 1.55238 1031 1.00009C1031 0.447806 1030.55 9.11428e-05 1030 9.10945e-05L1030 1.00009L1030 2.00009ZM1034 9.14442e-05C1033.45 9.13959e-05 1033 0.447807 1033 1.00009C1033 1.55238 1033.45 2.00009 1034 2.00009L1034 1.00009L1034 9.14442e-05ZM1038 2.00009C1038.55 2.00009 1039 1.55238 1039 1.00009C1039 0.447807 1038.55 9.18422e-05 1038 9.17939e-05L1038 1.00009L1038 2.00009ZM1042 9.21436e-05C1041.45 9.20953e-05 1041 0.447807 1041 1.00009C1041 1.55238 1041.45 2.00009 1042 2.00009L1042 1.00009L1042 9.21436e-05ZM1046 2.00009C1046.55 2.00009 1047 1.55238 1047 1.00009C1047 0.447808 1046.55 9.25416e-05 1046 9.24933e-05L1046 1.00009L1046 2.00009ZM1050 9.2843e-05C1049.45 9.27947e-05 1049 0.447808 1049 1.00009C1049 1.55238 1049.45 2.00009 1050 2.00009L1050 1.00009L1050 9.2843e-05ZM1054 2.00009C1054.55 2.00009 1055 1.55238 1055 1.00009C1055 0.447809 1054.55 9.3241e-05 1054 9.31927e-05L1054 1.00009L1054 2.00009ZM1058 9.35424e-05C1057.45 9.34941e-05 1057 0.447809 1057 1.00009C1057 1.55238 1057.45 2.00009 1058 2.00009L1058 1.00009L1058 9.35424e-05ZM1062 2.00009C1062.55 2.00009 1063 1.55238 1063 1.00009C1063 0.447809 1062.55 9.39404e-05 1062 9.38921e-05L1062 1.00009L1062 2.00009ZM1066 9.42418e-05C1065.45 9.41935e-05 1065 0.447809 1065 1.00009C1065 1.55238 1065.45 2.00009 1066 2.00009L1066 1.00009L1066 9.42418e-05ZM1070 2.00009C1070.55 2.00009 1071 1.55238 1071 1.00009C1071 0.44781 1070.55 9.46397e-05 1070 9.45915e-05L1070 1.00009L1070 2.00009ZM1074 9.49411e-05C1073.45 9.48929e-05 1073 0.44781 1073 1.00009C1073 1.55238 1073.45 2.00009 1074 2.00009L1074 1.00009L1074 9.49411e-05ZM1078 2.0001C1078.55 2.0001 1079 1.55238 1079 1.0001C1079 0.447811 1078.55 9.53391e-05 1078 9.52908e-05L1078 1.0001L1078 2.0001ZM1082 9.56405e-05C1081.45 9.55922e-05 1081 0.447811 1081 1.0001C1081 1.55238 1081.45 2.0001 1082 2.0001L1082 1.0001L1082 9.56405e-05ZM1086 2.0001C1086.55 2.0001 1087 1.55238 1087 1.0001C1087 0.447811 1086.55 9.60385e-05 1086 9.59902e-05L1086 1.0001L1086 2.0001ZM1090 9.63399e-05C1089.45 9.62916e-05 1089 0.447812 1089 1.0001C1089 1.55238 1089.45 2.0001 1090 2.0001L1090 1.0001L1090 9.63399e-05ZM1094 2.0001C1094.55 2.0001 1095 1.55238 1095 1.0001C1095 0.447812 1094.55 9.67379e-05 1094 9.66896e-05L1094 1.0001L1094 2.0001ZM1098 9.70393e-05C1097.45 9.6991e-05 1097 0.447812 1097 1.0001C1097 1.55238 1097.45 2.0001 1098 2.0001L1098 1.0001L1098 9.70393e-05ZM1102 2.0001C1102.55 2.0001 1103 1.55238 1103 1.0001C1103 0.447813 1102.55 9.74373e-05 1102 9.7389e-05L1102 1.0001L1102 2.0001ZM1106 9.77387e-05C1105.45 9.76904e-05 1105 0.447813 1105 1.0001C1105 1.55238 1105.45 2.0001 1106 2.0001L1106 1.0001L1106 9.77387e-05ZM1110 2.0001C1110.55 2.0001 1111 1.55238 1111 1.0001C1111 0.447813 1110.55 9.81366e-05 1110 9.80884e-05L1110 1.0001L1110 2.0001ZM1114 9.84381e-05C1113.45 9.83898e-05 1113 0.447814 1113 1.0001C1113 1.55238 1113.45 2.0001 1114 2.0001L1114 1.0001L1114 9.84381e-05ZM1118 2.0001C1118.55 2.0001 1119 1.55238 1119 1.0001C1119 0.447814 1118.55 9.8836e-05 1118 9.87877e-05L1118 1.0001L1118 2.0001ZM1122 9.91374e-05C1121.45 9.90892e-05 1121 0.447814 1121 1.0001C1121 1.55238 1121.45 2.0001 1122 2.0001L1122 1.0001L1122 9.91374e-05ZM1126 2.0001C1126.55 2.0001 1127 1.55238 1127 1.0001C1127 0.447815 1126.55 9.95354e-05 1126 9.94871e-05L1126 1.0001L1126 2.0001ZM1130 9.98368e-05C1129.45 9.97885e-05 1129 0.447815 1129 1.0001C1129 1.55238 1129.45 2.0001 1130 2.0001L1130 1.0001L1130 9.98368e-05ZM1134 2.0001C1134.55 2.0001 1135 1.55239 1135 1.0001C1135 0.447816 1134.55 0.000100235 1134 0.000100187L1134 1.0001L1134 2.0001ZM1138 0.000100536C1137.45 0.000100488 1137 0.447816 1137 1.0001C1137 1.55239 1137.45 2.0001 1138 2.0001L1138 1.0001L1138 0.000100536ZM1142 2.0001C1142.55 2.0001 1143 1.55239 1143 1.0001C1143 0.447816 1142.55 0.000100934 1142 0.000100886L1142 1.0001L1142 2.0001ZM1146 0.000101236C1145.45 0.000101187 1145 0.447816 1145 1.0001C1145 1.55239 1145.45 2.0001 1146 2.0001L1146 1.0001L1146 0.000101236ZM1150 2.0001C1150.55 2.0001 1151 1.55239 1151 1.0001C1151 0.447817 1150.55 0.000101634 1150 0.000101585L1150 1.0001L1150 2.0001ZM1154 0.000101935C1153.45 0.000101887 1153 0.447817 1153 1.0001C1153 1.55239 1153.45 2.0001 1154 2.0001L1154 1.0001L1154 0.000101935ZM1158 2.0001C1158.55 2.0001 1159 1.55239 1159 1.0001C1159 0.447818 1158.55 0.000102333 1158 0.000102285L1158 1.0001L1158 2.0001ZM1162 0.000102634C1161.45 0.000102586 1161 0.447818 1161 1.0001C1161 1.55239 1161.45 2.0001 1162 2.0001L1162 1.0001L1162 0.000102634ZM1166 2.0001C1166.55 2.0001 1167 1.55239 1167 1.0001C1167 0.447818 1166.55 0.000103032 1166 0.000102984L1166 1.0001L1166 2.0001ZM1170 0.000103334C1169.45 0.000103285 1169 0.447818 1169 1.0001C1169 1.55239 1169.45 2.0001 1170 2.0001L1170 1.0001L1170 0.000103334ZM1174 2.0001C1174.55 2.0001 1175 1.55239 1175 1.0001C1175 0.447819 1174.55 0.000103732 1174 0.000103683L1174 1.0001L1174 2.0001ZM1178 0.000104033C1177.45 0.000103985 1177 0.447819 1177 1.0001C1177 1.55239 1177.45 2.0001 1178 2.0001L1178 1.0001L1178 0.000104033ZM1182 2.0001C1182.55 2.0001 1183 1.55239 1183 1.0001C1183 0.44782 1182.55 0.000104431 1182 0.000104383L1182 1.0001L1182 2.0001ZM1186 0.000104732C1185.45 0.000104684 1185 0.44782 1185 1.0001C1185 1.55239 1185.45 2.0001 1186 2.0001L1186 1.0001L1186 0.000104732ZM1190 2.00011C1190.55 2.00011 1191 1.55239 1191 1.00011C1191 0.44782 1190.55 0.00010513 1190 0.000105082L1190 1.00011L1190 2.00011ZM1194 0.000105432C1193.45 0.000105384 1193 0.447821 1193 1.00011C1193 1.55239 1193.45 2.00011 1194 2.00011L1194 1.00011L1194 0.000105432ZM1198 2.00011C1198.55 2.00011 1199 1.55239 1199 1.00011C1199 0.447821 1198.55 0.00010583 1198 0.000105782L1198 1.00011L1198 2.00011ZM1202 0.000106131C1201.45 0.000106083 1201 0.447821 1201 1.00011C1201 1.55239 1201.45 2.00011 1202 2.00011L1202 1.00011L1202 0.000106131ZM1206 2.00011C1206.55 2.00011 1207 1.55239 1207 1.00011C1207 0.447822 1206.55 0.000106529 1206 0.000106481L1206 1.00011L1206 2.00011ZM1210 0.000106831C1209.45 0.000106782 1209 0.447822 1209 1.00011C1209 1.55239 1209.45 2.00011 1210 2.00011L1210 1.00011L1210 0.000106831ZM1214 2.00011C1214.55 2.00011 1215 1.55239 1215 1.00011C1215 0.447823 1214.55 0.000107229 1214 0.00010718L1214 1.00011L1214 2.00011ZM1218 0.00010753C1217.45 0.000107482 1217 0.447823 1217 1.00011C1217 1.55239 1217.45 2.00011 1218 2.00011L1218 1.00011L1218 0.00010753ZM1222 2.00011C1222.55 2.00011 1223 1.55239 1223 1.00011C1223 0.447823 1222.55 0.000107928 1222 0.00010788L1222 1.00011L1222 2.00011ZM1226 0.000108229C1225.45 0.000108181 1225 0.447823 1225 1.00011C1225 1.55239 1225.45 2.00011 1226 2.00011L1226 1.00011L1226 0.000108229ZM1230 2.00011C1230.55 2.00011 1231 1.55239 1231 1.00011C1231 0.447824 1230.55 0.000108627 1230 0.000108579L1230 1.00011L1230 2.00011ZM1234 0.000108929C1233.45 0.000108881 1233 0.447824 1233 1.00011C1233 1.55239 1233.45 2.00011 1234 2.00011L1234 1.00011L1234 0.000108929ZM1238 2.00011C1238.55 2.00011 1239 1.55239 1239 1.00011C1239 0.447825 1238.55 0.000109327 1238 0.000109278L1238 1.00011L1238 2.00011ZM1242 0.000109628C1241.45 0.00010958 1241 0.447825 1241 1.00011C1241 1.55239 1241.45 2.00011 1242 2.00011L1242 1.00011L1242 0.000109628ZM1246 2.00011C1246.55 2.00011 1247 1.55239 1247 1.00011C1247 0.447825 1246.55 0.000110026 1246 0.000109978L1246 1.00011L1246 2.00011ZM1250 0.000110328C1249.45 0.000110279 1249 0.447825 1249 1.00011C1249 1.55239 1249.45 2.00011 1250 2.00011L1250 1.00011L1250 0.000110328ZM1254 2.00011C1254.55 2.00011 1255 1.5524 1255 1.00011C1255 0.447826 1254.55 0.000110726 1254 0.000110677L1254 1.00011L1254 2.00011ZM1258 0.000111027C1257.45 0.000110979 1257 0.447826 1257 1.00011C1257 1.5524 1257.45 2.00011 1258 2.00011L1258 1.00011L1258 0.000111027ZM1262 2.00011C1262.55 2.00011 1263 1.5524 1263 1.00011C1263 0.447827 1262.55 0.000111425 1262 0.000111377L1262 1.00011L1262 2.00011ZM1266 0.000111726C1265.45 0.000111678 1265 0.447827 1265 1.00011C1265 1.5524 1265.45 2.00011 1266 2.00011L1266 1.00011L1266 0.000111726ZM1270 2.00011C1270.55 2.00011 1271 1.5524 1271 1.00011C1271 0.447827 1270.55 0.000112124 1270 0.000112076L1270 1.00011L1270 2.00011ZM1274 0.000112426C1273.45 0.000112377 1273 0.447828 1273 1.00011C1273 1.5524 1273.45 2.00011 1274 2.00011L1274 1.00011L1274 0.000112426ZM1278 2.00011C1278.55 2.00011 1279 1.5524 1279 1.00011C1279 0.447828 1278.55 0.000112824 1278 0.000112775L1278 1.00011L1278 2.00011ZM1282 0.000113125C1281.45 0.000113077 1281 0.447828 1281 1.00011C1281 1.5524 1281.45 2.00011 1282 2.00011L1282 1.00011L1282 0.000113125ZM1286 2.00011C1286.55 2.00011 1287 1.5524 1287 1.00011C1287 0.447829 1286.55 0.000113523 1286 0.000113475L1286 1.00011L1286 2.00011ZM1290 0.000113824C1289.45 0.000113776 1289 0.447829 1289 1.00011C1289 1.5524 1289.45 2.00011 1290 2.00011L1290 1.00011L1290 0.000113824ZM1294 2.00011C1294.55 2.00011 1295 1.5524 1295 1.00011C1295 0.44783 1294.55 0.000114222 1294 0.000114174L1294 1.00011L1294 2.00011ZM1298 0.000114524C1297.45 0.000114476 1297 0.44783 1297 1.00011C1297 1.5524 1297.45 2.00011 1298 2.00011L1298 1.00011L1298 0.000114524ZM1302 2.00011C1302.55 2.00011 1303 1.5524 1303 1.00011C1303 0.44783 1302.55 0.000114922 1302 0.000114874L1302 1.00011L1302 2.00011ZM1306 0.000115223C1305.45 0.000115175 1305 0.44783 1305 1.00012C1305 1.5524 1305.45 2.00012 1306 2.00012L1306 1.00012L1306 0.000115223ZM1310 2.00012C1310.55 2.00012 1311 1.5524 1311 1.00012C1311 0.447831 1310.55 0.000115621 1310 0.000115573L1310 1.00012L1310 2.00012ZM1314 0.000115923C1313.45 0.000115874 1313 0.447831 1313 1.00012C1313 1.5524 1313.45 2.00012 1314 2.00012L1314 1.00012L1314 0.000115923ZM1318 2.00012C1318.55 2.00012 1319 1.5524 1319 1.00012C1319 0.447832 1318.55 0.000116321 1318 0.000116272L1318 1.00012L1318 2.00012ZM1322 0.000116622C1321.45 0.000116574 1321 0.447832 1321 1.00012C1321 1.5524 1321.45 2.00012 1322 2.00012L1322 1.00012L1322 0.000116622ZM1326 2.00012C1326.55 2.00012 1327 1.5524 1327 1.00012C1327 0.447832 1326.55 0.00011702 1326 0.000116972L1326 1.00012L1326 2.00012ZM1330 0.000117321C1329.45 0.000117273 1329 0.447832 1329 1.00012C1329 1.5524 1329.45 2.00012 1330 2.00012L1330 1.00012L1330 0.000117321ZM1334 2.00012C1334.55 2.00012 1335 1.5524 1335 1.00012C1335 0.447833 1334.55 0.000117719 1334 0.000117671L1334 1.00012L1334 2.00012ZM1338 0.000118021C1337.45 0.000117972 1337 0.447833 1337 1.00012C1337 1.5524 1337.45 2.00012 1338 2.00012L1338 1.00012L1338 0.000118021ZM1342 2.00012C1342.55 2.00012 1343 1.5524 1343 1.00012C1343 0.447834 1342.55 0.000118419 1342 0.00011837L1342 1.00012L1342 2.00012ZM1346 0.00011872C1345.45 0.000118672 1345 0.447834 1345 1.00012C1345 1.5524 1345.45 2.00012 1346 2.00012L1346 1.00012L1346 0.00011872ZM1350 2.00012C1350.55 2.00012 1351 1.5524 1351 1.00012C1351 0.447834 1350.55 0.000119118 1350 0.00011907L1350 1.00012L1350 2.00012ZM1354 0.00011942C1353.45 0.000119371 1353 0.447835 1353 1.00012C1353 1.5524 1353.45 2.00012 1354 2.00012L1354 1.00012L1354 0.00011942ZM1358 2.00012C1358.55 2.00012 1359 1.5524 1359 1.00012C1359 0.447835 1358.55 0.000119817 1358 0.000119769L1358 1.00012L1358 2.00012ZM1362 0.000120119C1361.45 0.000120071 1361 0.447835 1361 1.00012C1361 1.5524 1361.45 2.00012 1362 2.00012L1362 1.00012L1362 0.000120119ZM1366 2.00012C1366.55 2.00012 1367 1.55241 1367 1.00012C1367 0.447836 1366.55 0.000120517 1366 0.000120469L1366 1.00012L1366 2.00012ZM1370 0.000120818C1369.45 0.00012077 1369 0.447836 1369 1.00012C1369 1.55241 1369.45 2.00012 1370 2.00012L1370 1.00012L1370 0.000120818ZM1374 2.00012C1374.55 2.00012 1375 1.55241 1375 1.00012C1375 0.447837 1374.55 0.000121216 1374 0.000121168L1374 1.00012L1374 2.00012ZM1378 0.000121518C1377.45 0.000121469 1377 0.447837 1377 1.00012C1377 1.55241 1377.45 2.00012 1378 2.00012L1378 1.00012L1378 0.000121518ZM1382 2.00012C1382.55 2.00012 1383 1.55241 1383 1.00012C1383 0.447837 1382.55 0.000121916 1382 0.000121867L1382 1.00012L1382 2.00012ZM1386 0.000122217C1385.45 0.000122169 1385 0.447837 1385 1.00012C1385 1.55241 1385.45 2.00012 1386 2.00012L1386 1.00012L1386 0.000122217ZM1390 2.00012C1390.55 2.00012 1391 1.55241 1391 1.00012C1391 0.447838 1390.55 0.000122615 1390 0.000122567L1390 1.00012L1390 2.00012ZM1394 0.000122916C1393.45 0.000122868 1393 0.447838 1393 1.00012C1393 1.55241 1393.45 2.00012 1394 2.00012L1394 1.00012L1394 0.000122916ZM1398 2.00012C1398.55 2.00012 1399 1.55241 1399 1.00012C1399 0.447839 1398.55 0.000123314 1398 0.000123266L1398 1.00012L1398 2.00012ZM1402 0.000123616C1401.45 0.000123568 1401 0.447839 1401 1.00012C1401 1.55241 1401.45 2.00012 1402 2.00012L1402 1.00012L1402 0.000123616ZM1406 2.00012C1406.55 2.00012 1407 1.55241 1407 1.00012C1407 0.447839 1406.55 0.000124014 1406 0.000123966L1406 1.00012L1406 2.00012ZM1410 0.000124315C1409.45 0.000124267 1409 0.447839 1409 1.00012C1409 1.55241 1409.45 2.00012 1410 2.00012L1410 1.00012L1410 0.000124315ZM1414 2.00012C1414.55 2.00012 1415 1.55241 1415 1.00012C1415 0.44784 1414.55 0.000124713 1414 0.000124665L1414 1.00012L1414 2.00012ZM1418 0.000125015C1417.45 0.000124966 1417 0.44784 1417 1.00012C1417 1.55241 1417.45 2.00012 1418 2.00013L1418 1.00013L1418 0.000125015ZM1422 2.00013C1422.55 2.00013 1423 1.55241 1423 1.00013C1423 0.447841 1422.55 0.000125413 1422 0.000125364L1422 1.00013L1422 2.00013ZM1426 0.000125714C1425.45 0.000125666 1425 0.447841 1425 1.00013C1425 1.55241 1425.45 2.00013 1426 2.00013L1426 1.00013L1426 0.000125714ZM-12 1L-12 2L-10 2L-10 1L-10 1.74846e-07L-12 0L-12 1ZM-6 1L-6 2L-2 2L-2 1L-2 8.74228e-07L-6 5.24537e-07L-6 1ZM2 1L2 2L6 2L6 1L6 1.57361e-06L2 1.22392e-06L2 1ZM10 1L10 2L14 2L14 1L14 2.27299e-06L10 1.9233e-06L10 1ZM18 1L18 2L22 2L22 1L22 2.97237e-06L18 2.62268e-06L18 1ZM26 1L26 2L30 2L30 1L30 3.67176e-06L26 3.32207e-06L26 1ZM34 1L34 2L38 2L38 1L38 4.37114e-06L34 4.02145e-06L34 1ZM42 1L42 2L46 2.00001L46 1.00001L46 5.07052e-06L42 4.72083e-06L42 1ZM50 1.00001L50 2.00001L54 2.00001L54 1.00001L54 5.7699e-06L50 5.42021e-06L50 1.00001ZM58 1.00001L58 2.00001L62 2.00001L62 1.00001L62 6.46929e-06L58 6.11959e-06L58 1.00001ZM66 1.00001L66 2.00001L70 2.00001L70 1.00001L70 7.16867e-06L66 6.81898e-06L66 1.00001ZM74 1.00001L74 2.00001L78 2.00001L78 1.00001L78 7.86805e-06L74 7.51836e-06L74 1.00001ZM82 1.00001L82 2.00001L86 2.00001L86 1.00001L86 8.56743e-06L82 8.21774e-06L82 1.00001ZM90 1.00001L90 2.00001L94 2.00001L94 1.00001L94 9.26681e-06L90 8.91712e-06L90 1.00001ZM98 1.00001L98 2.00001L102 2.00001L102 1.00001L102 9.9662e-06L98 9.61651e-06L98 1.00001ZM106 1.00001L106 2.00001L110 2.00001L110 1.00001L110 1.06656e-05L106 1.03159e-05L106 1.00001ZM114 1.00001L114 2.00001L118 2.00001L118 1.00001L118 1.1365e-05L114 1.10153e-05L114 1.00001ZM122 1.00001L122 2.00001L126 2.00001L126 1.00001L126 1.20643e-05L122 1.17147e-05L122 1.00001ZM130 1.00001L130 2.00001L134 2.00001L134 1.00001L134 1.27637e-05L130 1.2414e-05L130 1.00001ZM138 1.00001L138 2.00001L142 2.00001L142 1.00001L142 1.34631e-05L138 1.31134e-05L138 1.00001ZM146 1.00001L146 2.00001L150 2.00001L150 1.00001L150 1.41625e-05L146 1.38128e-05L146 1.00001ZM154 1.00001L154 2.00001L158 2.00001L158 1.00001L158 1.48619e-05L154 1.45122e-05L154 1.00001ZM162 1.00002L162 2.00002L166 2.00002L166 1.00002L166 1.55613e-05L162 1.52116e-05L162 1.00002ZM170 1.00002L170 2.00002L174 2.00002L174 1.00002L174 1.62606e-05L170 1.59109e-05L170 1.00002ZM178 1.00002L178 2.00002L182 2.00002L182 1.00002L182 1.696e-05L178 1.66103e-05L178 1.00002ZM186 1.00002L186 2.00002L190 2.00002L190 1.00002L190 1.76594e-05L186 1.73097e-05L186 1.00002ZM194 1.00002L194 2.00002L198 2.00002L198 1.00002L198 1.83588e-05L194 1.80091e-05L194 1.00002ZM202 1.00002L202 2.00002L206 2.00002L206 1.00002L206 1.90582e-05L202 1.87085e-05L202 1.00002ZM210 1.00002L210 2.00002L214 2.00002L214 1.00002L214 1.97575e-05L210 1.94079e-05L210 1.00002ZM218 1.00002L218 2.00002L222 2.00002L222 1.00002L222 2.04569e-05L218 2.01072e-05L218 1.00002ZM226 1.00002L226 2.00002L230 2.00002L230 1.00002L230 2.11563e-05L226 2.08066e-05L226 1.00002ZM234 1.00002L234 2.00002L238 2.00002L238 1.00002L238 2.18557e-05L234 2.1506e-05L234 1.00002ZM242 1.00002L242 2.00002L246 2.00002L246 1.00002L246 2.25551e-05L242 2.22054e-05L242 1.00002ZM250 1.00002L250 2.00002L254 2.00002L254 1.00002L254 2.32545e-05L250 2.29048e-05L250 1.00002ZM258 1.00002L258 2.00002L262 2.00002L262 1.00002L262 2.39538e-05L258 2.36042e-05L258 1.00002ZM266 1.00002L266 2.00002L270 2.00002L270 1.00002L270 2.46532e-05L266 2.43035e-05L266 1.00002ZM274 1.00003L274 2.00003L278 2.00003L278 1.00003L278 2.53526e-05L274 2.50029e-05L274 1.00003ZM282 1.00003L282 2.00003L286 2.00003L286 1.00003L286 2.6052e-05L282 2.57023e-05L282 1.00003ZM290 1.00003L290 2.00003L294 2.00003L294 1.00003L294 2.67514e-05L290 2.64017e-05L290 1.00003ZM298 1.00003L298 2.00003L302 2.00003L302 1.00003L302 2.74508e-05L298 2.71011e-05L298 1.00003ZM306 1.00003L306 2.00003L310 2.00003L310 1.00003L310 2.81501e-05L306 2.78004e-05L306 1.00003ZM314 1.00003L314 2.00003L318 2.00003L318 1.00003L318 2.88495e-05L314 2.84998e-05L314 1.00003ZM322 1.00003L322 2.00003L326 2.00003L326 1.00003L326 2.95489e-05L322 2.91992e-05L322 1.00003ZM330 1.00003L330 2.00003L334 2.00003L334 1.00003L334 3.02483e-05L330 2.98986e-05L330 1.00003ZM338 1.00003L338 2.00003L342 2.00003L342 1.00003L342 3.09477e-05L338 3.0598e-05L338 1.00003ZM346 1.00003L346 2.00003L350 2.00003L350 1.00003L350 3.1647e-05L346 3.12974e-05L346 1.00003ZM354 1.00003L354 2.00003L358 2.00003L358 1.00003L358 3.23464e-05L354 3.19967e-05L354 1.00003ZM362 1.00003L362 2.00003L366 2.00003L366 1.00003L366 3.30458e-05L362 3.26961e-05L362 1.00003ZM370 1.00003L370 2.00003L374 2.00003L374 1.00003L374 3.37452e-05L370 3.33955e-05L370 1.00003ZM378 1.00003L378 2.00003L382 2.00003L382 1.00003L382 3.44446e-05L378 3.40949e-05L378 1.00003ZM386 1.00003L386 2.00003L390 2.00004L390 1.00004L390 3.5144e-05L386 3.47943e-05L386 1.00003ZM394 1.00004L394 2.00004L398 2.00004L398 1.00004L398 3.58433e-05L394 3.54937e-05L394 1.00004ZM402 1.00004L402 2.00004L406 2.00004L406 1.00004L406 3.65427e-05L402 3.6193e-05L402 1.00004ZM410 1.00004L410 2.00004L414 2.00004L414 1.00004L414 3.72421e-05L410 3.68924e-05L410 1.00004ZM418 1.00004L418 2.00004L422 2.00004L422 1.00004L422 3.79415e-05L418 3.75918e-05L418 1.00004ZM426 1.00004L426 2.00004L430 2.00004L430 1.00004L430 3.86409e-05L426 3.82912e-05L426 1.00004ZM434 1.00004L434 2.00004L438 2.00004L438 1.00004L438 3.93403e-05L434 3.89906e-05L434 1.00004ZM442 1.00004L442 2.00004L446 2.00004L446 1.00004L446 4.00396e-05L442 3.96899e-05L442 1.00004ZM450 1.00004L450 2.00004L454 2.00004L454 1.00004L454 4.0739e-05L450 4.03893e-05L450 1.00004ZM458 1.00004L458 2.00004L462 2.00004L462 1.00004L462 4.14384e-05L458 4.10887e-05L458 1.00004ZM466 1.00004L466 2.00004L470 2.00004L470 1.00004L470 4.21378e-05L466 4.17881e-05L466 1.00004ZM474 1.00004L474 2.00004L478 2.00004L478 1.00004L478 4.28372e-05L474 4.24875e-05L474 1.00004ZM482 1.00004L482 2.00004L486 2.00004L486 1.00004L486 4.35365e-05L482 4.31869e-05L482 1.00004ZM490 1.00004L490 2.00004L494 2.00004L494 1.00004L494 4.42359e-05L490 4.38862e-05L490 1.00004ZM498 1.00004L498 2.00004L502 2.00004L502 1.00004L502 4.49353e-05L498 4.45856e-05L498 1.00004ZM506 1.00005L506 2.00005L510 2.00005L510 1.00005L510 4.56347e-05L506 4.5285e-05L506 1.00005ZM514 1.00005L514 2.00005L518 2.00005L518 1.00005L518 4.63341e-05L514 4.59844e-05L514 1.00005ZM522 1.00005L522 2.00005L526 2.00005L526 1.00005L526 4.70335e-05L522 4.66838e-05L522 1.00005ZM530 1.00005L530 2.00005L534 2.00005L534 1.00005L534 4.77328e-05L530 4.73831e-05L530 1.00005ZM538 1.00005L538 2.00005L542 2.00005L542 1.00005L542 4.84322e-05L538 4.80825e-05L538 1.00005ZM546 1.00005L546 2.00005L550 2.00005L550 1.00005L550 4.91316e-05L546 4.87819e-05L546 1.00005ZM554 1.00005L554 2.00005L558 2.00005L558 1.00005L558 4.9831e-05L554 4.94813e-05L554 1.00005ZM562 1.00005L562 2.00005L566 2.00005L566 1.00005L566 5.05304e-05L562 5.01807e-05L562 1.00005ZM570 1.00005L570 2.00005L574 2.00005L574 1.00005L574 5.12298e-05L570 5.08801e-05L570 1.00005ZM578 1.00005L578 2.00005L582 2.00005L582 1.00005L582 5.19291e-05L578 5.15794e-05L578 1.00005ZM586 1.00005L586 2.00005L590 2.00005L590 1.00005L590 5.26285e-05L586 5.22788e-05L586 1.00005ZM594 1.00005L594 2.00005L598 2.00005L598 1.00005L598 5.33279e-05L594 5.29782e-05L594 1.00005ZM602 1.00005L602 2.00005L606 2.00005L606 1.00005L606 5.40273e-05L602 5.36776e-05L602 1.00005ZM610 1.00005L610 2.00005L614 2.00005L614 1.00005L614 5.47267e-05L610 5.4377e-05L610 1.00005ZM618 1.00006L618 2.00006L622 2.00006L622 1.00006L622 5.5426e-05L618 5.50764e-05L618 1.00006ZM626 1.00006L626 2.00006L630 2.00006L630 1.00006L630 5.61254e-05L626 5.57757e-05L626 1.00006ZM634 1.00006L634 2.00006L638 2.00006L638 1.00006L638 5.68248e-05L634 5.64751e-05L634 1.00006ZM642 1.00006L642 2.00006L646 2.00006L646 1.00006L646 5.75242e-05L642 5.71745e-05L642 1.00006ZM650 1.00006L650 2.00006L654 2.00006L654 1.00006L654 5.82236e-05L650 5.78739e-05L650 1.00006ZM658 1.00006L658 2.00006L662 2.00006L662 1.00006L662 5.8923e-05L658 5.85733e-05L658 1.00006ZM666 1.00006L666 2.00006L670 2.00006L670 1.00006L670 5.96223e-05L666 5.92726e-05L666 1.00006ZM674 1.00006L674 2.00006L678 2.00006L678 1.00006L678 6.03217e-05L674 5.9972e-05L674 1.00006ZM682 1.00006L682 2.00006L686 2.00006L686 1.00006L686 6.10211e-05L682 6.06714e-05L682 1.00006ZM690 1.00006L690 2.00006L694 2.00006L694 1.00006L694 6.17205e-05L690 6.13708e-05L690 1.00006ZM698 1.00006L698 2.00006L702 2.00006L702 1.00006L702 6.24199e-05L698 6.20702e-05L698 1.00006ZM706 1.00006L706 2.00006L710 2.00006L710 1.00006L710 6.31193e-05L706 6.27696e-05L706 1.00006ZM714 1.00006L714 2.00006L718 2.00006L718 1.00006L718 6.38186e-05L714 6.34689e-05L714 1.00006ZM722 1.00006L722 2.00006L726 2.00006L726 1.00006L726 6.4518e-05L722 6.41683e-05L722 1.00006ZM730 1.00006L730 2.00006L734 2.00007L734 1.00007L734 6.52174e-05L730 6.48677e-05L730 1.00006ZM738 1.00007L738 2.00007L742 2.00007L742 1.00007L742 6.59168e-05L738 6.55671e-05L738 1.00007ZM746 1.00007L746 2.00007L750 2.00007L750 1.00007L750 6.66162e-05L746 6.62665e-05L746 1.00007ZM754 1.00007L754 2.00007L758 2.00007L758 1.00007L758 6.73155e-05L754 6.69659e-05L754 1.00007ZM762 1.00007L762 2.00007L766 2.00007L766 1.00007L766 6.80149e-05L762 6.76652e-05L762 1.00007ZM770 1.00007L770 2.00007L774 2.00007L774 1.00007L774 6.87143e-05L770 6.83646e-05L770 1.00007ZM778 1.00007L778 2.00007L782 2.00007L782 1.00007L782 6.94137e-05L778 6.9064e-05L778 1.00007ZM786 1.00007L786 2.00007L790 2.00007L790 1.00007L790 7.01131e-05L786 6.97634e-05L786 1.00007ZM794 1.00007L794 2.00007L798 2.00007L798 1.00007L798 7.08125e-05L794 7.04628e-05L794 1.00007ZM802 1.00007L802 2.00007L806 2.00007L806 1.00007L806 7.15118e-05L802 7.11621e-05L802 1.00007ZM810 1.00007L810 2.00007L814 2.00007L814 1.00007L814 7.22112e-05L810 7.18615e-05L810 1.00007ZM818 1.00007L818 2.00007L822 2.00007L822 1.00007L822 7.29106e-05L818 7.25609e-05L818 1.00007ZM826 1.00007L826 2.00007L830 2.00007L830 1.00007L830 7.361e-05L826 7.32603e-05L826 1.00007ZM834 1.00007L834 2.00007L838 2.00007L838 1.00007L838 7.43094e-05L834 7.39597e-05L834 1.00007ZM842 1.00007L842 2.00007L846 2.00008L846 1.00008L846 7.50088e-05L842 7.46591e-05L842 1.00007ZM850 1.00008L850 2.00008L854 2.00008L854 1.00008L854 7.57081e-05L850 7.53584e-05L850 1.00008ZM858 1.00008L858 2.00008L862 2.00008L862 1.00008L862 7.64075e-05L858 7.60578e-05L858 1.00008ZM866 1.00008L866 2.00008L870 2.00008L870 1.00008L870 7.71069e-05L866 7.67572e-05L866 1.00008ZM874 1.00008L874 2.00008L878 2.00008L878 1.00008L878 7.78063e-05L874 7.74566e-05L874 1.00008ZM882 1.00008L882 2.00008L886 2.00008L886 1.00008L886 7.85057e-05L882 7.8156e-05L882 1.00008ZM890 1.00008L890 2.00008L894 2.00008L894 1.00008L894 7.9205e-05L890 7.88554e-05L890 1.00008ZM898 1.00008L898 2.00008L902 2.00008L902 1.00008L902 7.99044e-05L898 7.95547e-05L898 1.00008ZM906 1.00008L906 2.00008L910 2.00008L910 1.00008L910 8.06038e-05L906 8.02541e-05L906 1.00008ZM914 1.00008L914 2.00008L918 2.00008L918 1.00008L918 8.13032e-05L914 8.09535e-05L914 1.00008ZM922 1.00008L922 2.00008L926 2.00008L926 1.00008L926 8.20026e-05L922 8.16529e-05L922 1.00008ZM930 1.00008L930 2.00008L934 2.00008L934 1.00008L934 8.2702e-05L930 8.23523e-05L930 1.00008ZM938 1.00008L938 2.00008L942 2.00008L942 1.00008L942 8.34013e-05L938 8.30516e-05L938 1.00008ZM946 1.00008L946 2.00008L950 2.00008L950 1.00008L950 8.41007e-05L946 8.3751e-05L946 1.00008ZM954 1.00008L954 2.00008L958 2.00008L958 1.00008L958 8.48001e-05L954 8.44504e-05L954 1.00008ZM962 1.00009L962 2.00009L966 2.00009L966 1.00009L966 8.54995e-05L962 8.51498e-05L962 1.00009ZM970 1.00009L970 2.00009L974 2.00009L974 1.00009L974 8.61989e-05L970 8.58492e-05L970 1.00009ZM978 1.00009L978 2.00009L982 2.00009L982 1.00009L982 8.68982e-05L978 8.65486e-05L978 1.00009ZM986 1.00009L986 2.00009L990 2.00009L990 1.00009L990 8.75976e-05L986 8.72479e-05L986 1.00009ZM994 1.00009L994 2.00009L998 2.00009L998 1.00009L998 8.8297e-05L994 8.79473e-05L994 1.00009ZM1002 1.00009L1002 2.00009L1006 2.00009L1006 1.00009L1006 8.89964e-05L1002 8.86467e-05L1002 1.00009ZM1010 1.00009L1010 2.00009L1014 2.00009L1014 1.00009L1014 8.96958e-05L1010 8.93461e-05L1010 1.00009ZM1018 1.00009L1018 2.00009L1022 2.00009L1022 1.00009L1022 9.03952e-05L1018 9.00455e-05L1018 1.00009ZM1026 1.00009L1026 2.00009L1030 2.00009L1030 1.00009L1030 9.10945e-05L1026 9.07449e-05L1026 1.00009ZM1034 1.00009L1034 2.00009L1038 2.00009L1038 1.00009L1038 9.17939e-05L1034 9.14442e-05L1034 1.00009ZM1042 1.00009L1042 2.00009L1046 2.00009L1046 1.00009L1046 9.24933e-05L1042 9.21436e-05L1042 1.00009ZM1050 1.00009L1050 2.00009L1054 2.00009L1054 1.00009L1054 9.31927e-05L1050 9.2843e-05L1050 1.00009ZM1058 1.00009L1058 2.00009L1062 2.00009L1062 1.00009L1062 9.38921e-05L1058 9.35424e-05L1058 1.00009ZM1066 1.00009L1066 2.00009L1070 2.00009L1070 1.00009L1070 9.45915e-05L1066 9.42418e-05L1066 1.00009ZM1074 1.00009L1074 2.00009L1078 2.0001L1078 1.0001L1078 9.52908e-05L1074 9.49411e-05L1074 1.00009ZM1082 1.0001L1082 2.0001L1086 2.0001L1086 1.0001L1086 9.59902e-05L1082 9.56405e-05L1082 1.0001ZM1090 1.0001L1090 2.0001L1094 2.0001L1094 1.0001L1094 9.66896e-05L1090 9.63399e-05L1090 1.0001ZM1098 1.0001L1098 2.0001L1102 2.0001L1102 1.0001L1102 9.7389e-05L1098 9.70393e-05L1098 1.0001ZM1106 1.0001L1106 2.0001L1110 2.0001L1110 1.0001L1110 9.80884e-05L1106 9.77387e-05L1106 1.0001ZM1114 1.0001L1114 2.0001L1118 2.0001L1118 1.0001L1118 9.87877e-05L1114 9.84381e-05L1114 1.0001ZM1122 1.0001L1122 2.0001L1126 2.0001L1126 1.0001L1126 9.94871e-05L1122 9.91374e-05L1122 1.0001ZM1130 1.0001L1130 2.0001L1134 2.0001L1134 1.0001L1134 0.000100187L1130 9.98368e-05L1130 1.0001ZM1138 1.0001L1138 2.0001L1142 2.0001L1142 1.0001L1142 0.000100886L1138 0.000100536L1138 1.0001ZM1146 1.0001L1146 2.0001L1150 2.0001L1150 1.0001L1150 0.000101585L1146 0.000101236L1146 1.0001ZM1154 1.0001L1154 2.0001L1158 2.0001L1158 1.0001L1158 0.000102285L1154 0.000101935L1154 1.0001ZM1162 1.0001L1162 2.0001L1166 2.0001L1166 1.0001L1166 0.000102984L1162 0.000102634L1162 1.0001ZM1170 1.0001L1170 2.0001L1174 2.0001L1174 1.0001L1174 0.000103683L1170 0.000103334L1170 1.0001ZM1178 1.0001L1178 2.0001L1182 2.0001L1182 1.0001L1182 0.000104383L1178 0.000104033L1178 1.0001ZM1186 1.0001L1186 2.0001L1190 2.00011L1190 1.00011L1190 0.000105082L1186 0.000104732L1186 1.0001ZM1194 1.00011L1194 2.00011L1198 2.00011L1198 1.00011L1198 0.000105782L1194 0.000105432L1194 1.00011ZM1202 1.00011L1202 2.00011L1206 2.00011L1206 1.00011L1206 0.000106481L1202 0.000106131L1202 1.00011ZM1210 1.00011L1210 2.00011L1214 2.00011L1214 1.00011L1214 0.00010718L1210 0.000106831L1210 1.00011ZM1218 1.00011L1218 2.00011L1222 2.00011L1222 1.00011L1222 0.00010788L1218 0.00010753L1218 1.00011ZM1226 1.00011L1226 2.00011L1230 2.00011L1230 1.00011L1230 0.000108579L1226 0.000108229L1226 1.00011ZM1234 1.00011L1234 2.00011L1238 2.00011L1238 1.00011L1238 0.000109278L1234 0.000108929L1234 1.00011ZM1242 1.00011L1242 2.00011L1246 2.00011L1246 1.00011L1246 0.000109978L1242 0.000109628L1242 1.00011ZM1250 1.00011L1250 2.00011L1254 2.00011L1254 1.00011L1254 0.000110677L1250 0.000110328L1250 1.00011ZM1258 1.00011L1258 2.00011L1262 2.00011L1262 1.00011L1262 0.000111377L1258 0.000111027L1258 1.00011ZM1266 1.00011L1266 2.00011L1270 2.00011L1270 1.00011L1270 0.000112076L1266 0.000111726L1266 1.00011ZM1274 1.00011L1274 2.00011L1278 2.00011L1278 1.00011L1278 0.000112775L1274 0.000112426L1274 1.00011ZM1282 1.00011L1282 2.00011L1286 2.00011L1286 1.00011L1286 0.000113475L1282 0.000113125L1282 1.00011ZM1290 1.00011L1290 2.00011L1294 2.00011L1294 1.00011L1294 0.000114174L1290 0.000113824L1290 1.00011ZM1298 1.00011L1298 2.00011L1302 2.00011L1302 1.00011L1302 0.000114874L1298 0.000114524L1298 1.00011ZM1306 1.00012L1306 2.00012L1310 2.00012L1310 1.00012L1310 0.000115573L1306 0.000115223L1306 1.00012ZM1314 1.00012L1314 2.00012L1318 2.00012L1318 1.00012L1318 0.000116272L1314 0.000115923L1314 1.00012ZM1322 1.00012L1322 2.00012L1326 2.00012L1326 1.00012L1326 0.000116972L1322 0.000116622L1322 1.00012ZM1330 1.00012L1330 2.00012L1334 2.00012L1334 1.00012L1334 0.000117671L1330 0.000117321L1330 1.00012ZM1338 1.00012L1338 2.00012L1342 2.00012L1342 1.00012L1342 0.00011837L1338 0.000118021L1338 1.00012ZM1346 1.00012L1346 2.00012L1350 2.00012L1350 1.00012L1350 0.00011907L1346 0.00011872L1346 1.00012ZM1354 1.00012L1354 2.00012L1358 2.00012L1358 1.00012L1358 0.000119769L1354 0.00011942L1354 1.00012ZM1362 1.00012L1362 2.00012L1366 2.00012L1366 1.00012L1366 0.000120469L1362 0.000120119L1362 1.00012ZM1370 1.00012L1370 2.00012L1374 2.00012L1374 1.00012L1374 0.000121168L1370 0.000120818L1370 1.00012ZM1378 1.00012L1378 2.00012L1382 2.00012L1382 1.00012L1382 0.000121867L1378 0.000121518L1378 1.00012ZM1386 1.00012L1386 2.00012L1390 2.00012L1390 1.00012L1390 0.000122567L1386 0.000122217L1386 1.00012ZM1394 1.00012L1394 2.00012L1398 2.00012L1398 1.00012L1398 0.000123266L1394 0.000122916L1394 1.00012ZM1402 1.00012L1402 2.00012L1406 2.00012L1406 1.00012L1406 0.000123966L1402 0.000123616L1402 1.00012ZM1410 1.00012L1410 2.00012L1414 2.00012L1414 1.00012L1414 0.000124665L1410 0.000124315L1410 1.00012ZM1418 1.00013L1418 2.00013L1422 2.00013L1422 1.00013L1422 0.000125364L1418 0.000125015L1418 1.00013ZM1426 1.00013L1426 2.00013L1428 2.00013L1428 1.00013L1428 0.000125889L1426 0.000125714L1426 1.00013Z" fill="#919191"/>
</g>
<defs>
<clipPath id="clip0_96_63">
<rect width="8" height="2" fill="white" transform="matrix(-1 0 0 1 8 0)"/>
</clipPath>
</defs>
</svg>
