<svg width="2" height="8" viewBox="0 0 2 8" fill="none" xmlns="http://www.w3.org/2000/svg">
<g clip-path="url(#clip0_101_4)">
<path d="M1 461.333C3.94552 461.333 6.33333 458.946 6.33333 456C6.33333 453.054 3.94552 450.667 1 450.667C-1.94552 450.667 -4.33333 453.054 -4.33333 456C-4.33333 458.946 -1.94552 461.333 1 461.333ZM1.00002 -6.66665C3.94554 -6.66665 6.33335 -9.05446 6.33335 -12C6.33335 -14.9455 3.94554 -17.3333 1.00002 -17.3333C-1.9455 -17.3333 -4.33331 -14.9455 -4.33331 -12C-4.33331 -9.05446 -1.9455 -6.66665 1.00002 -6.66665ZM2 453.983C2 453.43 1.55228 452.983 1 452.983C0.447715 452.983 1.12318e-07 453.43 8.81764e-08 453.983L1 453.983L2 453.983ZM2.64529e-07 449.948C2.40388e-07 450.501 0.447715 450.948 1 450.948C1.55228 450.948 2 450.501 2 449.948L1 449.948L2.64529e-07 449.948ZM2 445.914C2 445.362 1.55229 444.914 1 444.914C0.447716 444.914 4.65023e-07 445.362 4.40882e-07 445.914L1 445.914L2 445.914ZM6.17235e-07 441.879C5.93094e-07 442.432 0.447716 442.879 1 442.879C1.55229 442.879 2 442.432 2 441.879L1 441.879L6.17235e-07 441.879ZM2 437.845C2 437.293 1.55229 436.845 1 436.845C0.447716 436.845 8.17729e-07 437.293 7.93588e-07 437.845L1 437.845L2 437.845ZM9.69941e-07 433.81C9.458e-07 434.363 0.447716 434.81 1 434.81C1.55229 434.81 2 434.363 2 433.81L1 433.81L9.69941e-07 433.81ZM2 429.776C2 429.224 1.55229 428.776 1 428.776C0.447716 428.776 1.17043e-06 429.224 1.14629e-06 429.776L1 429.776L2 429.776ZM1.32265e-06 425.741C1.29851e-06 426.294 0.447717 426.741 1 426.741C1.55229 426.741 2 426.294 2 425.741L1 425.741L1.32265e-06 425.741ZM2 421.707C2 421.155 1.55229 420.707 1 420.707C0.447717 420.707 1.52314e-06 421.155 1.499e-06 421.707L1 421.707L2 421.707ZM1.67535e-06 417.672C1.65121e-06 418.225 0.447717 418.672 1 418.672C1.55229 418.672 2 418.225 2 417.672L1 417.672L1.67535e-06 417.672ZM2 413.638C2 413.086 1.55229 412.638 1 412.638C0.447717 412.638 1.87585e-06 413.086 1.8517e-06 413.638L1 413.638L2 413.638ZM2.02806e-06 409.603C2.00392e-06 410.156 0.447717 410.603 1 410.603C1.55229 410.603 2 410.156 2 409.603L1 409.603L2.02806e-06 409.603ZM2 405.569C2 405.017 1.55229 404.569 1 404.569C0.447717 404.569 2.22855e-06 405.017 2.20441e-06 405.569L1 405.569L2 405.569ZM2.38076e-06 401.534C2.35662e-06 402.087 0.447718 402.534 1 402.534C1.55229 402.534 2 402.087 2 401.534L1 401.534L2.38076e-06 401.534ZM2 397.5C2 396.948 1.55229 396.5 1 396.5C0.447718 396.5 2.58126e-06 396.948 2.55712e-06 397.5L1 397.5L2 397.5ZM2.73347e-06 393.466C2.70933e-06 394.018 0.447718 394.466 1 394.466C1.55229 394.466 2 394.018 2 393.466L1 393.466L2.73347e-06 393.466ZM2 389.431C2 388.879 1.55229 388.431 1 388.431C0.447718 388.431 2.93396e-06 388.879 2.90982e-06 389.431L1 389.431L2 389.431ZM3.08617e-06 385.397C3.06203e-06 385.949 0.447718 386.397 1 386.397C1.55229 386.397 2 385.949 2 385.397L1 385.397L3.08617e-06 385.397ZM2 381.362C2 380.81 1.55229 380.362 1 380.362C0.447719 380.362 3.28667e-06 380.81 3.26253e-06 381.362L1 381.362L2 381.362ZM3.43888e-06 377.328C3.41474e-06 377.88 0.447719 378.328 1 378.328C1.55229 378.328 2 377.88 2 377.328L1 377.328L3.43888e-06 377.328ZM2 373.293C2 372.741 1.55229 372.293 1 372.293C0.447719 372.293 3.63937e-06 372.741 3.61523e-06 373.293L1 373.293L2 373.293ZM3.79159e-06 369.259C3.76745e-06 369.811 0.447719 370.259 1 370.259C1.55229 370.259 2 369.811 2 369.259L1 369.259L3.79159e-06 369.259ZM2 365.224C2 364.672 1.55229 364.224 1 364.224C0.447719 364.224 3.99208e-06 364.672 3.96794e-06 365.224L1 365.224L2 365.224ZM4.14429e-06 361.19C4.12015e-06 361.742 0.447719 362.19 1 362.19C1.55229 362.19 2 361.742 2 361.19L1 361.19L4.14429e-06 361.19ZM2 357.155C2 356.603 1.55229 356.155 1 356.155C0.44772 356.155 4.34479e-06 356.603 4.32065e-06 357.155L1 357.155L2 357.155ZM4.497e-06 353.121C4.47286e-06 353.673 0.44772 354.121 1 354.121C1.55229 354.121 2 353.673 2 353.121L1 353.121L4.497e-06 353.121ZM2 349.086C2 348.534 1.55229 348.086 1 348.086C0.44772 348.086 4.69749e-06 348.534 4.67335e-06 349.086L1 349.086L2 349.086ZM4.8497e-06 345.052C4.82556e-06 345.604 0.44772 346.052 1 346.052C1.55229 346.052 2 345.604 2 345.052L1 345.052L4.8497e-06 345.052ZM2.00001 341.017C2.00001 340.465 1.55229 340.017 1.00001 340.017C0.44772 340.017 5.0502e-06 340.465 5.02606e-06 341.017L1.00001 341.017L2.00001 341.017ZM5.20241e-06 336.983C5.17827e-06 337.535 0.44772 337.983 1.00001 337.983C1.55229 337.983 2.00001 337.535 2.00001 336.983L1.00001 336.983L5.20241e-06 336.983ZM2.00001 332.948C2.00001 332.396 1.55229 331.948 1.00001 331.948C0.447721 331.948 5.4029e-06 332.396 5.37876e-06 332.948L1.00001 332.948L2.00001 332.948ZM5.55512e-06 328.914C5.53097e-06 329.466 0.447721 329.914 1.00001 329.914C1.55229 329.914 2.00001 329.466 2.00001 328.914L1.00001 328.914L5.55512e-06 328.914ZM2.00001 324.879C2.00001 324.327 1.55229 323.879 1.00001 323.879C0.447721 323.879 5.75561e-06 324.327 5.73147e-06 324.879L1.00001 324.879L2.00001 324.879ZM5.90782e-06 320.845C5.88368e-06 321.397 0.447721 321.845 1.00001 321.845C1.55229 321.845 2.00001 321.397 2.00001 320.845L1.00001 320.845L5.90782e-06 320.845ZM2.00001 316.81C2.00001 316.258 1.55229 315.81 1.00001 315.81C0.447721 315.81 6.10832e-06 316.258 6.08417e-06 316.81L1.00001 316.81L2.00001 316.81ZM6.26053e-06 312.776C6.23639e-06 313.328 0.447721 313.776 1.00001 313.776C1.55229 313.776 2.00001 313.328 2.00001 312.776L1.00001 312.776L6.26053e-06 312.776ZM2.00001 308.741C2.00001 308.189 1.55229 307.741 1.00001 307.741C0.447722 307.741 6.46102e-06 308.189 6.43688e-06 308.741L1.00001 308.741L2.00001 308.741ZM6.61323e-06 304.707C6.58909e-06 305.259 0.447722 305.707 1.00001 305.707C1.55229 305.707 2.00001 305.259 2.00001 304.707L1.00001 304.707L6.61323e-06 304.707ZM2.00001 300.672C2.00001 300.12 1.55229 299.672 1.00001 299.672C0.447722 299.672 6.81373e-06 300.12 6.78959e-06 300.672L1.00001 300.672L2.00001 300.672ZM6.96594e-06 296.638C6.9418e-06 297.19 0.447722 297.638 1.00001 297.638C1.55229 297.638 2.00001 297.19 2.00001 296.638L1.00001 296.638L6.96594e-06 296.638ZM2.00001 292.603C2.00001 292.051 1.55229 291.603 1.00001 291.603C0.447722 291.603 7.16643e-06 292.051 7.14229e-06 292.603L1.00001 292.603L2.00001 292.603ZM7.31864e-06 288.569C7.2945e-06 289.121 0.447723 289.569 1.00001 289.569C1.55229 289.569 2.00001 289.121 2.00001 288.569L1.00001 288.569L7.31864e-06 288.569ZM2.00001 284.534C2.00001 283.982 1.55229 283.534 1.00001 283.534C0.447723 283.534 7.51914e-06 283.982 7.495e-06 284.534L1.00001 284.534L2.00001 284.534ZM7.67135e-06 280.5C7.64721e-06 281.052 0.447723 281.5 1.00001 281.5C1.55229 281.5 2.00001 281.052 2.00001 280.5L1.00001 280.5L7.67135e-06 280.5ZM2.00001 276.465C2.00001 275.913 1.55229 275.465 1.00001 275.465C0.447723 275.465 7.87185e-06 275.913 7.8477e-06 276.465L1.00001 276.465L2.00001 276.465ZM8.02406e-06 272.431C7.99992e-06 272.983 0.447723 273.431 1.00001 273.431C1.55229 273.431 2.00001 272.983 2.00001 272.431L1.00001 272.431L8.02406e-06 272.431ZM2.00001 268.396C2.00001 267.844 1.55229 267.396 1.00001 267.396C0.447723 267.396 8.22455e-06 267.844 8.20041e-06 268.396L1.00001 268.396L2.00001 268.396ZM8.37676e-06 264.362C8.35262e-06 264.914 0.447724 265.362 1.00001 265.362C1.55229 265.362 2.00001 264.914 2.00001 264.362L1.00001 264.362L8.37676e-06 264.362ZM2.00001 260.328C2.00001 259.775 1.55229 259.328 1.00001 259.328C0.447724 259.328 8.57726e-06 259.775 8.55312e-06 260.328L1.00001 260.328L2.00001 260.328ZM8.72947e-06 256.293C8.70533e-06 256.845 0.447724 257.293 1.00001 257.293C1.55229 257.293 2.00001 256.845 2.00001 256.293L1.00001 256.293L8.72947e-06 256.293ZM2.00001 252.259C2.00001 251.706 1.55229 251.259 1.00001 251.259C0.447724 251.259 8.92996e-06 251.706 8.90582e-06 252.259L1.00001 252.259L2.00001 252.259ZM9.08217e-06 248.224C9.05803e-06 248.776 0.447724 249.224 1.00001 249.224C1.55229 249.224 2.00001 248.776 2.00001 248.224L1.00001 248.224L9.08217e-06 248.224ZM2.00001 244.19C2.00001 243.637 1.55229 243.19 1.00001 243.19C0.447725 243.19 9.28267e-06 243.637 9.25853e-06 244.19L1.00001 244.19L2.00001 244.19ZM9.43488e-06 240.155C9.41074e-06 240.707 0.447725 241.155 1.00001 241.155C1.55229 241.155 2.00001 240.707 2.00001 240.155L1.00001 240.155L9.43488e-06 240.155ZM2.00001 236.121C2.00001 235.568 1.55229 235.121 1.00001 235.121C0.447725 235.121 9.63537e-06 235.568 9.61123e-06 236.121L1.00001 236.121L2.00001 236.121ZM9.78759e-06 232.086C9.76344e-06 232.638 0.447725 233.086 1.00001 233.086C1.55229 233.086 2.00001 232.638 2.00001 232.086L1.00001 232.086L9.78759e-06 232.086ZM2.00001 228.052C2.00001 227.499 1.55229 227.052 1.00001 227.052C0.447725 227.052 9.98808e-06 227.499 9.96394e-06 228.052L1.00001 228.052L2.00001 228.052ZM1.01403e-05 224.017C1.01162e-05 224.569 0.447725 225.017 1.00001 225.017C1.55229 225.017 2.00001 224.569 2.00001 224.017L1.00001 224.017L1.01403e-05 224.017ZM2.00001 219.983C2.00001 219.43 1.5523 218.983 1.00001 218.983C0.447726 218.983 1.03408e-05 219.43 1.03166e-05 219.983L1.00001 219.983L2.00001 219.983ZM1.0493e-05 215.948C1.04689e-05 216.5 0.447726 216.948 1.00001 216.948C1.5523 216.948 2.00001 216.5 2.00001 215.948L1.00001 215.948L1.0493e-05 215.948ZM2.00001 211.914C2.00001 211.361 1.5523 210.914 1.00001 210.914C0.447726 210.914 1.06935e-05 211.361 1.06694e-05 211.914L1.00001 211.914L2.00001 211.914ZM1.08457e-05 207.879C1.08216e-05 208.431 0.447726 208.879 1.00001 208.879C1.5523 208.879 2.00001 208.431 2.00001 207.879L1.00001 207.879L1.08457e-05 207.879ZM2.00001 203.845C2.00001 203.292 1.5523 202.845 1.00001 202.845C0.447726 202.845 1.10462e-05 203.292 1.10221e-05 203.845L1.00001 203.845L2.00001 203.845ZM1.11984e-05 199.81C1.11743e-05 200.363 0.447726 200.81 1.00001 200.81C1.5523 200.81 2.00001 200.363 2.00001 199.81L1.00001 199.81L1.11984e-05 199.81ZM2.00001 195.776C2.00001 195.223 1.5523 194.776 1.00001 194.776C0.447727 194.776 1.13989e-05 195.223 1.13748e-05 195.776L1.00001 195.776L2.00001 195.776ZM1.15511e-05 191.741C1.1527e-05 192.294 0.447727 192.741 1.00001 192.741C1.5523 192.741 2.00001 192.294 2.00001 191.741L1.00001 191.741L1.15511e-05 191.741ZM2.00001 187.707C2.00001 187.155 1.5523 186.707 1.00001 186.707C0.447727 186.707 1.17516e-05 187.155 1.17275e-05 187.707L1.00001 187.707L2.00001 187.707ZM1.19038e-05 183.672C1.18797e-05 184.225 0.447727 184.672 1.00001 184.672C1.5523 184.672 2.00001 184.225 2.00001 183.672L1.00001 183.672L1.19038e-05 183.672ZM2.00001 179.638C2.00001 179.086 1.5523 178.638 1.00001 178.638C0.447727 178.638 1.21043e-05 179.086 1.20802e-05 179.638L1.00001 179.638L2.00001 179.638ZM1.22565e-05 175.603C1.22324e-05 176.156 0.447727 176.603 1.00001 176.603C1.5523 176.603 2.00001 176.156 2.00001 175.603L1.00001 175.603L1.22565e-05 175.603ZM2.00001 171.569C2.00001 171.017 1.5523 170.569 1.00001 170.569C0.447728 170.569 1.2457e-05 171.017 1.24329e-05 171.569L1.00001 171.569L2.00001 171.569ZM1.26092e-05 167.534C1.25851e-05 168.087 0.447728 168.534 1.00001 168.534C1.5523 168.534 2.00001 168.087 2.00001 167.534L1.00001 167.534L1.26092e-05 167.534ZM2.00001 163.5C2.00001 162.948 1.5523 162.5 1.00001 162.5C0.447728 162.5 1.28097e-05 162.948 1.27856e-05 163.5L1.00001 163.5L2.00001 163.5ZM1.29619e-05 159.465C1.29378e-05 160.018 0.447728 160.465 1.00001 160.465C1.5523 160.465 2.00001 160.018 2.00001 159.465L1.00001 159.465L1.29619e-05 159.465ZM2.00001 155.431C2.00001 154.879 1.5523 154.431 1.00001 154.431C0.447728 154.431 1.31624e-05 154.879 1.31383e-05 155.431L1.00001 155.431L2.00001 155.431ZM1.33146e-05 151.396C1.32905e-05 151.949 0.447729 152.396 1.00001 152.396C1.5523 152.396 2.00001 151.949 2.00001 151.396L1.00001 151.396L1.33146e-05 151.396ZM2.00001 147.362C2.00001 146.81 1.5523 146.362 1.00001 146.362C0.447729 146.362 1.35151e-05 146.81 1.3491e-05 147.362L1.00001 147.362L2.00001 147.362ZM1.36673e-05 143.327C1.36432e-05 143.88 0.447729 144.327 1.00001 144.327C1.5523 144.327 2.00001 143.88 2.00001 143.327L1.00001 143.327L1.36673e-05 143.327ZM2.00001 139.293C2.00001 138.741 1.5523 138.293 1.00001 138.293C0.447729 138.293 1.38678e-05 138.741 1.38437e-05 139.293L1.00001 139.293L2.00001 139.293ZM1.40201e-05 135.258C1.39959e-05 135.811 0.447729 136.258 1.00001 136.258C1.5523 136.258 2.00001 135.811 2.00001 135.258L1.00001 135.258L1.40201e-05 135.258ZM2.00001 131.224C2.00001 130.672 1.5523 130.224 1.00001 130.224C0.447729 130.224 1.42206e-05 130.672 1.41964e-05 131.224L1.00001 131.224L2.00001 131.224ZM1.43728e-05 127.19C1.43486e-05 127.742 0.44773 128.19 1.00001 128.19C1.5523 128.19 2.00001 127.742 2.00001 127.19L1.00001 127.19L1.43728e-05 127.19ZM2.00001 123.155C2.00001 122.603 1.5523 122.155 1.00001 122.155C0.44773 122.155 1.45733e-05 122.603 1.45491e-05 123.155L1.00001 123.155L2.00001 123.155ZM1.47255e-05 119.121C1.47013e-05 119.673 0.44773 120.121 1.00001 120.121C1.5523 120.121 2.00001 119.673 2.00001 119.121L1.00001 119.121L1.47255e-05 119.121ZM2.00001 115.086C2.00001 114.534 1.5523 114.086 1.00001 114.086C0.44773 114.086 1.4926e-05 114.534 1.49018e-05 115.086L1.00001 115.086L2.00001 115.086ZM1.50782e-05 111.052C1.5054e-05 111.604 0.44773 112.052 1.00002 112.052C1.5523 112.052 2.00002 111.604 2.00002 111.052L1.00002 111.052L1.50782e-05 111.052ZM2.00002 107.017C2.00002 106.465 1.5523 106.017 1.00002 106.017C0.447731 106.017 1.52787e-05 106.465 1.52545e-05 107.017L1.00002 107.017L2.00002 107.017ZM1.54309e-05 102.983C1.54067e-05 103.535 0.447731 103.983 1.00002 103.983C1.5523 103.983 2.00002 103.535 2.00002 102.983L1.00002 102.983L1.54309e-05 102.983ZM2.00002 98.9481C2.00002 98.3959 1.5523 97.9481 1.00002 97.9481C0.447731 97.9481 1.56314e-05 98.3959 1.56072e-05 98.9481L1.00002 98.9481L2.00002 98.9481ZM1.57836e-05 94.9137C1.57594e-05 95.4659 0.447731 95.9137 1.00002 95.9137C1.5523 95.9137 2.00002 95.4659 2.00002 94.9137L1.00002 94.9137L1.57836e-05 94.9137ZM2.00002 90.8792C2.00002 90.3269 1.5523 89.8792 1.00002 89.8792C0.447731 89.8792 1.59841e-05 90.3269 1.59599e-05 90.8792L1.00002 90.8792L2.00002 90.8792ZM1.61363e-05 86.8447C1.61122e-05 87.397 0.447731 87.8447 1.00002 87.8447C1.5523 87.8447 2.00002 87.397 2.00002 86.8447L1.00002 86.8447L1.61363e-05 86.8447ZM2.00002 82.8102C2.00002 82.2579 1.5523 81.8102 1.00002 81.8102C0.447732 81.8102 1.63368e-05 82.2579 1.63126e-05 82.8102L1.00002 82.8102L2.00002 82.8102ZM1.6489e-05 78.7757C1.64649e-05 79.328 0.447732 79.7757 1.00002 79.7757C1.5523 79.7757 2.00002 79.328 2.00002 78.7757L1.00002 78.7757L1.6489e-05 78.7757ZM2.00002 74.7412C2.00002 74.1889 1.5523 73.7412 1.00002 73.7412C0.447732 73.7412 1.66895e-05 74.1889 1.66654e-05 74.7412L1.00002 74.7412L2.00002 74.7412ZM1.68417e-05 70.7067C1.68176e-05 71.259 0.447732 71.7067 1.00002 71.7067C1.5523 71.7067 2.00002 71.259 2.00002 70.7067L1.00002 70.7067L1.68417e-05 70.7067ZM2.00002 66.6723C2.00002 66.12 1.5523 65.6723 1.00002 65.6723C0.447732 65.6723 1.70422e-05 66.12 1.70181e-05 66.6723L1.00002 66.6723L2.00002 66.6723ZM1.71944e-05 62.6378C1.71703e-05 63.1901 0.447732 63.6378 1.00002 63.6378C1.5523 63.6378 2.00002 63.1901 2.00002 62.6378L1.00002 62.6378L1.71944e-05 62.6378ZM2.00002 58.6033C2.00002 58.051 1.5523 57.6033 1.00002 57.6033C0.447733 57.6033 1.73949e-05 58.051 1.73708e-05 58.6033L1.00002 58.6033L2.00002 58.6033ZM1.75471e-05 54.5688C1.7523e-05 55.1211 0.447733 55.5688 1.00002 55.5688C1.5523 55.5688 2.00002 55.1211 2.00002 54.5688L1.00002 54.5688L1.75471e-05 54.5688ZM2.00002 50.5343C2.00002 49.982 1.5523 49.5343 1.00002 49.5343C0.447733 49.5343 1.77476e-05 49.982 1.77235e-05 50.5343L1.00002 50.5343L2.00002 50.5343ZM1.78998e-05 46.4998C1.78757e-05 47.0521 0.447733 47.4998 1.00002 47.4998C1.5523 47.4998 2.00002 47.0521 2.00002 46.4998L1.00002 46.4998L1.78998e-05 46.4998ZM2.00002 42.4653C2.00002 41.9131 1.5523 41.4653 1.00002 41.4653C0.447733 41.4653 1.81003e-05 41.9131 1.80762e-05 42.4653L1.00002 42.4653L2.00002 42.4653ZM1.82525e-05 38.4309C1.82284e-05 38.9831 0.447733 39.4309 1.00002 39.4309C1.5523 39.4309 2.00002 38.9831 2.00002 38.4309L1.00002 38.4309L1.82525e-05 38.4309ZM2.00002 34.3964C2.00002 33.8441 1.5523 33.3964 1.00002 33.3964C0.447734 33.3964 1.8453e-05 33.8441 1.84289e-05 34.3964L1.00002 34.3964L2.00002 34.3964ZM1.86052e-05 30.3619C1.85811e-05 30.9142 0.447734 31.3619 1.00002 31.3619C1.5523 31.3619 2.00002 30.9142 2.00002 30.3619L1.00002 30.3619L1.86052e-05 30.3619ZM2.00002 26.3274C2.00002 25.7751 1.5523 25.3274 1.00002 25.3274C0.447734 25.3274 1.88057e-05 25.7751 1.87816e-05 26.3274L1.00002 26.3274L2.00002 26.3274ZM1.89579e-05 22.2929C1.89338e-05 22.8452 0.447734 23.2929 1.00002 23.2929C1.5523 23.2929 2.00002 22.8452 2.00002 22.2929L1.00002 22.2929L1.89579e-05 22.2929ZM2.00002 18.2584C2.00002 17.7062 1.5523 17.2584 1.00002 17.2584C0.447734 17.2584 1.91584e-05 17.7062 1.91343e-05 18.2584L1.00002 18.2584L2.00002 18.2584ZM1.93106e-05 14.224C1.92865e-05 14.7763 0.447735 15.224 1.00002 15.224C1.5523 15.224 2.00002 14.7763 2.00002 14.224L1.00002 14.224L1.93106e-05 14.224ZM2.00002 10.1895C2.00002 9.63718 1.5523 9.18946 1.00002 9.18946C0.447735 9.18946 1.95111e-05 9.63718 1.9487e-05 10.1895L1.00002 10.1895L2.00002 10.1895ZM1.96634e-05 6.15499C1.96392e-05 6.70727 0.447735 7.15499 1.00002 7.15499C1.5523 7.15499 2.00002 6.70727 2.00002 6.15499L1.00002 6.15499L1.96634e-05 6.15499ZM2.00002 2.12051C2.00002 1.56822 1.5523 1.12051 1.00002 1.12051C0.447735 1.12051 1.98638e-05 1.56822 1.98397e-05 2.12051L1.00002 2.12051L2.00002 2.12051ZM2.00161e-05 -1.914C1.99919e-05 -1.36171 0.447735 -0.913998 1.00002 -0.913998C1.5523 -0.913998 2.00002 -1.36171 2.00002 -1.914L1.00002 -1.914L2.00161e-05 -1.914ZM2.00002 -5.94848C2.00002 -6.50076 1.5523 -6.94848 1.00002 -6.94848C0.447735 -6.94848 2.02166e-05 -6.50076 2.01924e-05 -5.94848L1.00002 -5.94848L2.00002 -5.94848ZM2.03688e-05 -9.98295C2.03446e-05 -9.43067 0.447736 -8.98295 1.00002 -8.98295C1.55231 -8.98295 2.00002 -9.43067 2.00002 -9.98295L1.00002 -9.98295L2.03688e-05 -9.98295ZM1 456L2 456L2 453.983L1 453.983L8.81764e-08 453.983L0 456L1 456ZM1 449.948L2 449.948L2 445.914L1 445.914L4.40882e-07 445.914L2.64529e-07 449.948L1 449.948ZM1 441.879L2 441.879L2 437.845L1 437.845L7.93588e-07 437.845L6.17235e-07 441.879L1 441.879ZM1 433.81L2 433.81L2 429.776L1 429.776L1.14629e-06 429.776L9.69941e-07 433.81L1 433.81ZM1 425.741L2 425.741L2 421.707L1 421.707L1.499e-06 421.707L1.32265e-06 425.741L1 425.741ZM1 417.672L2 417.672L2 413.638L1 413.638L1.8517e-06 413.638L1.67535e-06 417.672L1 417.672ZM1 409.603L2 409.603L2 405.569L1 405.569L2.20441e-06 405.569L2.02806e-06 409.603L1 409.603ZM1 401.534L2 401.534L2 397.5L1 397.5L2.55712e-06 397.5L2.38076e-06 401.534L1 401.534ZM1 393.466L2 393.466L2 389.431L1 389.431L2.90982e-06 389.431L2.73347e-06 393.466L1 393.466ZM1 385.397L2 385.397L2 381.362L1 381.362L3.26253e-06 381.362L3.08617e-06 385.397L1 385.397ZM1 377.328L2 377.328L2 373.293L1 373.293L3.61523e-06 373.293L3.43888e-06 377.328L1 377.328ZM1 369.259L2 369.259L2 365.224L1 365.224L3.96794e-06 365.224L3.79159e-06 369.259L1 369.259ZM1 361.19L2 361.19L2 357.155L1 357.155L4.32065e-06 357.155L4.14429e-06 361.19L1 361.19ZM1 353.121L2 353.121L2 349.086L1 349.086L4.67335e-06 349.086L4.497e-06 353.121L1 353.121ZM1 345.052L2 345.052L2.00001 341.017L1.00001 341.017L5.02606e-06 341.017L4.8497e-06 345.052L1 345.052ZM1.00001 336.983L2.00001 336.983L2.00001 332.948L1.00001 332.948L5.37876e-06 332.948L5.20241e-06 336.983L1.00001 336.983ZM1.00001 328.914L2.00001 328.914L2.00001 324.879L1.00001 324.879L5.73147e-06 324.879L5.55512e-06 328.914L1.00001 328.914ZM1.00001 320.845L2.00001 320.845L2.00001 316.81L1.00001 316.81L6.08417e-06 316.81L5.90782e-06 320.845L1.00001 320.845ZM1.00001 312.776L2.00001 312.776L2.00001 308.741L1.00001 308.741L6.43688e-06 308.741L6.26053e-06 312.776L1.00001 312.776ZM1.00001 304.707L2.00001 304.707L2.00001 300.672L1.00001 300.672L6.78959e-06 300.672L6.61323e-06 304.707L1.00001 304.707ZM1.00001 296.638L2.00001 296.638L2.00001 292.603L1.00001 292.603L7.14229e-06 292.603L6.96594e-06 296.638L1.00001 296.638ZM1.00001 288.569L2.00001 288.569L2.00001 284.534L1.00001 284.534L7.495e-06 284.534L7.31864e-06 288.569L1.00001 288.569ZM1.00001 280.5L2.00001 280.5L2.00001 276.465L1.00001 276.465L7.8477e-06 276.465L7.67135e-06 280.5L1.00001 280.5ZM1.00001 272.431L2.00001 272.431L2.00001 268.396L1.00001 268.396L8.20041e-06 268.396L8.02406e-06 272.431L1.00001 272.431ZM1.00001 264.362L2.00001 264.362L2.00001 260.328L1.00001 260.328L8.55312e-06 260.328L8.37676e-06 264.362L1.00001 264.362ZM1.00001 256.293L2.00001 256.293L2.00001 252.259L1.00001 252.259L8.90582e-06 252.259L8.72947e-06 256.293L1.00001 256.293ZM1.00001 248.224L2.00001 248.224L2.00001 244.19L1.00001 244.19L9.25853e-06 244.19L9.08217e-06 248.224L1.00001 248.224ZM1.00001 240.155L2.00001 240.155L2.00001 236.121L1.00001 236.121L9.61123e-06 236.121L9.43488e-06 240.155L1.00001 240.155ZM1.00001 232.086L2.00001 232.086L2.00001 228.052L1.00001 228.052L9.96394e-06 228.052L9.78759e-06 232.086L1.00001 232.086ZM1.00001 224.017L2.00001 224.017L2.00001 219.983L1.00001 219.983L1.03166e-05 219.983L1.01403e-05 224.017L1.00001 224.017ZM1.00001 215.948L2.00001 215.948L2.00001 211.914L1.00001 211.914L1.06694e-05 211.914L1.0493e-05 215.948L1.00001 215.948ZM1.00001 207.879L2.00001 207.879L2.00001 203.845L1.00001 203.845L1.10221e-05 203.845L1.08457e-05 207.879L1.00001 207.879ZM1.00001 199.81L2.00001 199.81L2.00001 195.776L1.00001 195.776L1.13748e-05 195.776L1.11984e-05 199.81L1.00001 199.81ZM1.00001 191.741L2.00001 191.741L2.00001 187.707L1.00001 187.707L1.17275e-05 187.707L1.15511e-05 191.741L1.00001 191.741ZM1.00001 183.672L2.00001 183.672L2.00001 179.638L1.00001 179.638L1.20802e-05 179.638L1.19038e-05 183.672L1.00001 183.672ZM1.00001 175.603L2.00001 175.603L2.00001 171.569L1.00001 171.569L1.24329e-05 171.569L1.22565e-05 175.603L1.00001 175.603ZM1.00001 167.534L2.00001 167.534L2.00001 163.5L1.00001 163.5L1.27856e-05 163.5L1.26092e-05 167.534L1.00001 167.534ZM1.00001 159.465L2.00001 159.465L2.00001 155.431L1.00001 155.431L1.31383e-05 155.431L1.29619e-05 159.465L1.00001 159.465ZM1.00001 151.396L2.00001 151.396L2.00001 147.362L1.00001 147.362L1.3491e-05 147.362L1.33146e-05 151.396L1.00001 151.396ZM1.00001 143.327L2.00001 143.327L2.00001 139.293L1.00001 139.293L1.38437e-05 139.293L1.36673e-05 143.327L1.00001 143.327ZM1.00001 135.258L2.00001 135.258L2.00001 131.224L1.00001 131.224L1.41964e-05 131.224L1.40201e-05 135.258L1.00001 135.258ZM1.00001 127.19L2.00001 127.19L2.00001 123.155L1.00001 123.155L1.45491e-05 123.155L1.43728e-05 127.19L1.00001 127.19ZM1.00001 119.121L2.00001 119.121L2.00001 115.086L1.00001 115.086L1.49018e-05 115.086L1.47255e-05 119.121L1.00001 119.121ZM1.00002 111.052L2.00002 111.052L2.00002 107.017L1.00002 107.017L1.52545e-05 107.017L1.50782e-05 111.052L1.00002 111.052ZM1.00002 102.983L2.00002 102.983L2.00002 98.9481L1.00002 98.9481L1.56072e-05 98.9481L1.54309e-05 102.983L1.00002 102.983ZM1.00002 94.9137L2.00002 94.9137L2.00002 90.8792L1.00002 90.8792L1.59599e-05 90.8792L1.57836e-05 94.9137L1.00002 94.9137ZM1.00002 86.8447L2.00002 86.8447L2.00002 82.8102L1.00002 82.8102L1.63126e-05 82.8102L1.61363e-05 86.8447L1.00002 86.8447ZM1.00002 78.7757L2.00002 78.7757L2.00002 74.7412L1.00002 74.7412L1.66654e-05 74.7412L1.6489e-05 78.7757L1.00002 78.7757ZM1.00002 70.7067L2.00002 70.7067L2.00002 66.6723L1.00002 66.6723L1.70181e-05 66.6723L1.68417e-05 70.7067L1.00002 70.7067ZM1.00002 62.6378L2.00002 62.6378L2.00002 58.6033L1.00002 58.6033L1.73708e-05 58.6033L1.71944e-05 62.6378L1.00002 62.6378ZM1.00002 54.5688L2.00002 54.5688L2.00002 50.5343L1.00002 50.5343L1.77235e-05 50.5343L1.75471e-05 54.5688L1.00002 54.5688ZM1.00002 46.4998L2.00002 46.4998L2.00002 42.4653L1.00002 42.4653L1.80762e-05 42.4653L1.78998e-05 46.4998L1.00002 46.4998ZM1.00002 38.4309L2.00002 38.4309L2.00002 34.3964L1.00002 34.3964L1.84289e-05 34.3964L1.82525e-05 38.4309L1.00002 38.4309ZM1.00002 30.3619L2.00002 30.3619L2.00002 26.3274L1.00002 26.3274L1.87816e-05 26.3274L1.86052e-05 30.3619L1.00002 30.3619ZM1.00002 22.2929L2.00002 22.2929L2.00002 18.2584L1.00002 18.2584L1.91343e-05 18.2584L1.89579e-05 22.2929L1.00002 22.2929ZM1.00002 14.224L2.00002 14.224L2.00002 10.1895L1.00002 10.1895L1.9487e-05 10.1895L1.93106e-05 14.224L1.00002 14.224ZM1.00002 6.15499L2.00002 6.15499L2.00002 2.12051L1.00002 2.12051L1.98397e-05 2.12051L1.96634e-05 6.15499L1.00002 6.15499ZM1.00002 -1.914L2.00002 -1.914L2.00002 -5.94848L1.00002 -5.94848L2.01924e-05 -5.94848L2.00161e-05 -1.914L1.00002 -1.914ZM1.00002 -9.98295L2.00002 -9.98295L2.00002 -12L1.00002 -12L2.04569e-05 -12L2.03688e-05 -9.98295L1.00002 -9.98295Z" fill="#919191"/>
</g>
<defs>
<clipPath id="clip0_101_4">
<rect width="2" height="8" fill="white"/>
</clipPath>
</defs>
</svg>
