<svg width="233" height="230" viewBox="0 0 233 230" fill="none" xmlns="http://www.w3.org/2000/svg">
<path d="M63 21.1179C63 14.4905 68.3726 9.11792 75 9.11792H150C156.627 9.11792 162 14.4905 162 21.1179V208.118C162 214.745 156.627 220.118 150 220.118H76C68.8203 220.118 63 214.298 63 207.118V21.1179Z" fill="#156585"/>
<path opacity="0.2" d="M92.8428 0.326559C101.772 -0.611886 111.008 0.419475 119.249 4.10821C120.727 4.83295 122.604 5.2232 123.403 6.82134C105.442 6.84922 87.4723 6.8678 69.5117 6.81205C69.9577 6.35677 70.4223 5.8829 71.0355 5.65061C78.0692 3.08615 85.3724 1.12563 92.8428 0.326559Z" fill="#0087A3"/>
<path d="M67.3775 6.94234C69.4216 6.77509 71.4658 6.868 73.5099 6.84013C78.9269 6.81225 84.3438 6.88659 89.7701 6.81226C107.74 6.85871 125.7 6.84013 143.661 6.82155C146.774 6.86801 149.886 6.84013 152.999 6.84942C155.591 6.82155 158.23 7.51841 160.339 9.04222C163.071 10.9842 164.827 14.1526 165.227 17.4604C165.32 30.3942 165.245 43.3373 165.273 56.2804C165.264 60.0806 165.32 63.8716 165.255 67.6718C164.753 67.3559 165.756 67.9877 165.255 67.6718C165.682 70.673 164.929 98.6219 165.264 101.651C163.582 102.134 162.768 94.0839 161.817 91.3559C161.575 90.7892 161.733 75.1847 161.501 74.6179C161.501 73.3219 161.501 72.6179 161.501 71.3057C161.501 69.318 161.501 69.5585 161.501 67.5232C161.501 67.5232 161.741 61.6179 161.741 59.7421C161.815 60.4111 162.159 59.3983 161.741 59.7421C161.769 58.9151 162.308 60.0487 161.741 59.7421C161.481 60.346 161.973 59.1288 161.741 59.7421C162.215 59.6399 161.324 60.0063 161.798 59.9041C161.556 59.2258 162.058 60.5731 161.798 59.9041C161.649 46.7008 161.789 33.4975 161.724 20.2943C161.696 16.0573 158.648 12.1456 154.634 10.8912C152.497 10.1758 150.221 10.4545 148.009 10.4174C123.173 10.4174 98.3369 10.4174 73.5006 10.4081C69.115 10.4452 65.0918 13.7252 63.9489 17.9249C63.41 19.8669 63.6237 21.911 63.5958 23.8994C63.6051 85.4744 63.5865 147.04 63.6051 208.615C63.5494 211.18 64.4321 213.772 66.1231 215.714C67.9443 217.869 70.6853 219.17 73.4913 219.375C75.2474 219.505 77.0128 219.421 78.7782 219.44C102.685 219.449 126.592 219.43 150.5 219.449C152.469 219.458 154.467 219.142 156.223 218.223C159.169 216.717 161.268 213.679 161.631 210.39C161.798 208.875 161.714 207.351 161.724 205.837C161.714 172.796 161.724 139.746 161.724 106.706C161.77 101.586 161.649 96.4663 161.817 91.3559C163.09 94.7381 163.982 98.2596 165.264 101.651C165.301 137.024 165.255 172.406 165.282 207.779C165.31 210.399 165.45 213.122 164.372 215.574C163.684 217.386 162.337 218.808 161.138 220.285C159.615 221.149 158.1 222.079 156.409 222.562C155.117 222.943 153.761 223.017 152.432 223.045C126.955 223.054 101.477 222.989 76.0093 223.017C72.9338 222.98 69.8583 223.166 66.8014 222.831C67.6655 222.831 68.5203 222.775 69.3844 222.729C67.8235 222.041 66.216 221.382 64.8873 220.285C61.9141 217.739 59.935 213.958 60.0093 210C60.0372 182.766 60 155.533 60 128.299C60 92.3966 60.0279 56.4848 60 20.573C60.0465 17.8413 60.3531 14.9331 61.9605 12.6288C63.856 9.89705 66.7271 7.91795 69.9327 7.04454C69.0871 6.9795 68.2323 6.93305 67.3775 6.94234Z" fill="#9DD2DB"/>
<path d="M59.1744 10.9096C61.1349 8.58673 64.071 7.11867 67.1094 6.94213C67.9642 6.93283 68.819 6.97929 69.6738 7.00717C66.4683 7.88057 63.5972 9.85967 61.7017 12.5914C60.0943 14.8957 59.7876 17.8039 59.7412 20.5356C59.7691 56.4474 59.7412 92.3499 59.7412 128.262C59.7319 155.495 59.7783 182.729 59.7505 209.962C59.6668 213.92 61.6552 217.711 64.6285 220.248C65.9572 221.344 67.5647 222.004 69.1256 222.692C68.2615 222.738 67.3974 222.794 66.5426 222.794C65.0374 222.627 63.6343 221.995 62.2778 221.381C62.1105 221.307 61.7946 221.149 61.6274 221.075C58.6169 218.901 56.5635 215.379 56.4706 211.635C56.3962 208.234 56.5077 204.833 56.4427 201.433C56.4427 201.247 56.4427 200.866 56.4427 200.68C56.4613 197.335 56.4799 193.981 56.4241 190.636C56.4241 190.441 56.4241 190.041 56.4241 189.846C56.4891 186.325 56.4427 182.812 56.4427 179.291C56.4427 179.151 56.4427 178.863 56.4427 178.724C56.4427 174.218 56.4891 169.711 56.4241 165.205C56.4241 164.833 56.4148 164.471 56.4148 164.108C56.4799 156.61 56.4427 149.112 56.4334 141.614C56.452 135.797 56.452 129.981 56.4427 124.164C56.4427 124.034 56.4334 123.765 56.4334 123.635C56.4241 122.454 56.452 121.265 56.3684 120.094C56.3405 119.639 56.3219 119.184 56.3033 118.729C56.5263 115.7 56.4427 112.671 56.3312 109.641C56.3498 109.186 56.3684 108.722 56.3962 108.266C56.5635 101.01 56.3684 93.7436 56.4984 86.487C56.5356 85.3348 56.294 84.2012 55.9502 83.1048C55.4671 81.5346 55.6529 79.8807 55.6064 78.2732C55.6622 76.5729 55.5879 74.8632 55.6436 73.1629C55.6622 71.9178 56.3962 70.84 56.4891 69.6135C56.6099 68.2384 56.5821 66.8075 56.0524 65.5067C55.4857 64.1687 55.6343 62.7006 55.6436 61.2883C55.6808 57.4974 55.6622 53.7064 55.6436 49.9155C55.5972 48.3824 56.5728 47.0537 56.4891 45.5206C56.4427 39.574 56.4891 33.6274 56.4613 27.6808C56.5077 24.4753 56.4427 21.2697 56.4706 18.0734C56.4706 15.4346 57.5205 12.9073 59.1744 10.9096Z" fill="#C2E4EA"/>
<path d="M83.8993 15.1278C85.0886 14.5611 86.4824 15.9269 85.9341 17.1255C85.5718 18.3706 83.6763 18.4263 83.1374 17.2835C82.6264 16.5309 83.0445 15.4345 83.8993 15.1278Z" fill="white"/>
<path d="M136.518 16.2894C136.982 15.7133 137.502 14.97 138.339 14.9978C139.194 14.9607 139.695 15.7505 140.123 16.3637C139.519 16.0478 139.008 15.4996 138.32 15.3881C137.679 15.6018 137.112 15.992 136.518 16.2894Z" fill="white"/>
<path d="M141.2 16.0383C141.786 15.5459 142.427 14.8769 143.272 15.0348C144.006 15.0999 144.48 15.7224 144.926 16.2427C144.285 15.964 143.681 15.5644 142.984 15.4158C142.362 15.5366 141.795 15.8432 141.2 16.0383Z" fill="white"/>
<path d="M141.636 17.3392C141.692 16.6795 142.008 15.9361 142.779 15.9361C143.634 15.741 144.108 16.5587 144.508 17.1533C143.681 16.7073 142.77 16.2056 141.841 16.6981C142.519 16.9675 143.197 17.237 143.866 17.525C143.523 17.8316 143.179 18.1289 142.835 18.4263C142.742 18.1011 142.649 17.7666 142.566 17.4414C142.259 17.4135 141.943 17.3856 141.636 17.3392Z" fill="white"/>
<path d="M122.162 131.597C122.162 131.188 122.478 130.9 122.682 130.584C122.97 132.015 122.878 133.474 122.878 134.914C122.701 134.979 122.339 135.091 122.162 135.147C122.125 133.967 122.078 132.777 122.162 131.597Z" fill="white"/>
<path d="M134.826 130.891C135.895 131.04 137.409 130.371 138.078 131.532C138.329 132.573 138.292 133.697 138.115 134.757C137.976 134.868 137.697 135.091 137.558 135.193C137.418 134.05 137.548 132.88 137.316 131.755C136.898 131.152 135.969 131.384 135.681 131.978C135.495 132.954 135.616 133.948 135.458 134.924C135.328 134.989 135.068 135.11 134.928 135.175C134.733 133.753 134.826 132.313 134.826 130.891Z" fill="white"/>
<path d="M72.1464 15.4902C72.7503 15.6482 73.7724 15.7876 73.6423 16.6517C73.5494 17.4043 72.676 17.395 72.1092 17.5808C71.9141 16.8933 71.9048 16.1778 72.1464 15.4902Z" fill="white"/>
<path d="M75.0537 15.7133C75.7785 15.3045 76.7076 16.1314 76.3453 16.884C76.113 17.6459 74.7843 17.6831 74.6449 16.8747C74.4405 16.4752 74.6356 15.8713 75.0537 15.7133Z" fill="white"/>
<path d="M77.7954 15.648C78.3529 15.5179 79.0869 15.7502 79.1705 16.4006C79.3378 17.2926 77.9533 17.9151 77.5166 17.0696C77.0892 16.605 77.3772 16.0011 77.7954 15.648Z" fill="white"/>
<path d="M80.5645 15.6573C81.6237 15.2298 82.5343 16.8837 81.3915 17.3669C80.3136 17.9709 79.496 16.1776 80.5645 15.6573Z" fill="white"/>
<path d="M146.934 15.667C149.154 15.6856 151.375 15.6949 153.596 15.667C153.605 16.3639 153.605 17.07 153.586 17.7669C151.375 17.9063 149.164 17.6182 146.952 17.739C146.943 17.0421 146.934 16.3546 146.934 15.667Z" fill="white"/>
<path d="M137.075 16.531C137.54 16.308 137.995 15.9456 138.534 15.927C138.915 16.0571 139.259 16.2801 139.621 16.4845C138.766 16.4845 137.921 16.5124 137.075 16.531Z" fill="white"/>
<path d="M153.948 15.8804C154.143 16.0662 154.348 16.252 154.552 16.4379C154.357 16.7909 154.171 17.144 153.985 17.5064C153.976 16.9582 153.967 16.4193 153.948 15.8804Z" fill="white"/>
<path d="M137.335 17.0609C137.976 17.0238 138.645 16.9215 139.24 17.2003C139.082 17.6277 138.887 18.0458 138.692 18.4547C138.255 17.9901 137.79 17.5255 137.335 17.0609Z" fill="white"/>
<path d="M122.255 129.191C122.552 129.228 122.859 129.275 123.166 129.33C122.84 129.646 122.506 129.962 122.162 130.259C122.181 129.897 122.19 129.544 122.255 129.191Z" fill="white"/>
<path d="M87.1605 129.442C88.3963 129.563 90.1059 129.061 90.8957 130.324C91.5183 131.226 90.6449 132.09 90.0967 132.75C90.4962 133.539 90.9143 134.329 91.2395 135.147C90.0967 134.859 89.7529 133.669 89.2604 132.759C88.8051 132.722 88.3498 132.685 87.8946 132.647C87.7924 133.521 88.1454 134.636 87.3557 135.277C86.9375 133.363 87.2441 131.384 87.1605 129.442ZM87.8667 130.092C87.8574 130.77 87.8667 131.458 87.8667 132.136C88.7122 132.006 90.236 132.285 90.2825 131.049C90.2546 129.795 88.6936 130.167 87.8667 130.092Z" fill="white"/>
<path d="M52.5316 30.8491C53.758 29.7063 54.7522 28.1918 56.4247 27.6436C56.4619 33.5901 56.4154 39.5367 56.4526 45.4833C56.5362 47.0164 55.5606 48.3451 55.607 49.8782C55.6256 53.6691 55.6442 57.4601 55.607 61.251C55.5978 62.6633 55.4491 64.1407 56.0159 65.4694C56.5455 66.7702 56.5734 68.2011 56.4526 69.5763C56.3597 70.8027 55.6256 71.8899 55.607 73.1256C55.5513 74.826 55.6256 76.5356 55.5699 78.236C52.4479 72.3916 48.1552 66.9932 42.4131 63.5275C39.3562 61.697 35.7789 60.5821 32.1924 60.9165C32.6755 59.2162 33.4653 57.6366 34.2644 56.0757C38.7987 46.6726 45.024 38.0965 52.5316 30.8491ZM47.031 46.0965C45.6279 46.431 44.8846 48.2522 45.693 49.4694C46.5757 50.9839 49.2052 50.733 49.7069 49.0141C50.3387 47.4252 48.6663 45.5948 47.031 46.0965Z" fill="white"/>
<path d="M24.9076 86.366C25.9576 88.9862 27.2026 91.5228 28.6335 93.9479C30.4454 97.0141 32.8147 99.7086 35.4256 102.115C36.299 102.998 37.3769 103.825 37.7485 105.061C37.7578 106.399 36.5871 107.337 35.9088 108.387C31.9134 106.176 27.4442 104.596 22.817 104.754C22.6777 101.019 23.1701 97.3114 23.6161 93.6134C24.0342 91.1883 24.0807 88.6981 24.9076 86.366Z" fill="white"/>
<path d="M165.41 27.5232C165.856 27.3838 166.004 27.5325 165.865 27.9878C165.419 28.1272 165.261 27.9785 165.41 27.5232Z" fill="#2A5F73"/>
<path d="M70.6963 29.242C72.5639 29.2049 74.4222 29.242 76.2898 29.1956C77.0517 29.1956 77.8322 29.1584 78.557 29.4279C78.5477 29.623 78.5384 30.0132 78.5291 30.1991C77.7207 30.4778 76.8473 30.4221 76.0018 30.4314C74.2271 30.3942 72.4524 30.4406 70.6777 30.4128C70.687 30.0225 70.6963 29.6323 70.6963 29.242Z" fill="#F54A40"/>
<path d="M83.9277 29.4183C86.1763 29.2417 88.4341 29.3254 90.692 29.3161C98.3482 29.3068 106.014 29.3254 113.67 29.3068C114.934 29.3161 116.216 29.1674 117.452 29.4462C117.99 29.7621 117.721 30.4589 117.795 30.9607C115.686 31.1 113.577 30.9978 111.459 30.9793C103.709 30.9885 95.951 30.97 88.2018 30.9885C86.8824 30.9793 85.5445 31.1093 84.2343 30.877C84.095 30.3939 84.0114 29.9014 83.9277 29.4183Z" fill="#C3C4C5"/>
<path d="M70.7433 32.2427C73.3356 32.252 75.9372 32.1033 78.5296 32.3635C78.5017 32.6051 78.4645 33.0882 78.4367 33.3391C75.8536 33.4413 73.2613 33.4506 70.6689 33.3484C70.6968 32.9674 70.7154 32.6051 70.7433 32.2427Z" fill="#F5423A"/>
<path d="M83.8994 34.3799C86.5196 34.064 89.1677 34.2685 91.7972 34.2127C94.9285 34.2406 98.0597 34.1662 101.191 34.2127C101.869 34.1198 102.167 34.8724 102.074 35.4299C101.637 36.071 100.791 35.9595 100.113 35.9967C96.2293 35.9316 92.3547 35.9781 88.4709 35.9595C87.0585 35.9409 85.6276 36.0989 84.2246 35.848C84.076 35.3648 83.9923 34.8631 83.8994 34.3799Z" fill="#C4C5C5"/>
<path d="M70.7242 35.2255C73.3072 35.1419 75.8996 35.1326 78.4826 35.2162C78.4826 35.5879 78.4919 35.9595 78.4919 36.3405C75.8903 36.4427 73.2794 36.4055 70.6777 36.3777C70.687 35.9967 70.7056 35.6065 70.7242 35.2255Z" fill="#F6443C"/>
<path d="M47.0311 46.0968C48.6664 45.595 50.3388 47.4162 49.707 49.0143C49.2053 50.724 46.5758 50.9748 45.6931 49.4696C44.8847 48.2617 45.628 46.4313 47.0311 46.0968Z" fill="#053041"/>
<path d="M110.176 57.4882C115.064 57.0236 120.109 57.8691 124.476 60.1363C128.88 62.2919 132.578 65.7762 135.171 69.9295C137.967 74.4266 139.305 79.8064 139.055 85.0933C138.674 93.3628 134.167 101.307 127.245 105.841C122.785 108.842 117.368 110.348 111.998 110.19C107.631 110.115 103.329 108.833 99.5376 106.678C94.7339 103.946 90.8779 99.6346 88.6108 94.6079C86.5016 89.9528 85.8605 84.6845 86.6224 79.6392C87.3471 74.8912 89.4191 70.357 92.5411 66.6961C96.936 61.5021 103.403 58.12 110.176 57.4882ZM108.615 70.5985C107.658 71.8529 107.649 73.4882 107.64 74.9934C108.746 74.9748 109.851 75.0492 110.92 75.3279C110.808 75.681 110.706 76.0341 110.595 76.3872C109.619 76.4057 108.643 76.4336 107.668 76.4801C107.668 77.0004 107.668 77.53 107.658 78.0503C108.625 78.0596 109.6 77.976 110.548 78.1897C111.031 78.3756 111.013 79.0445 110.557 79.2582C109.628 79.472 108.662 79.3976 107.714 79.4069C107.686 79.9087 107.658 80.4011 107.631 80.9028C108.578 80.9586 109.545 80.9028 110.483 81.098C110.864 81.3395 111.041 82.0271 110.511 82.2129C109.6 82.4917 108.625 82.3616 107.696 82.3895C107.64 84.35 108.56 86.3384 110.279 87.3419C112.267 88.6055 115.101 88.1595 116.634 86.3756C117.693 85.3256 118.009 83.8204 118.139 82.3895C117.145 82.3709 116.142 82.4359 115.175 82.1572C115.045 81.8227 115.054 81.451 115.222 81.1351C116.188 80.9214 117.192 80.9679 118.176 80.94C118.158 80.4197 118.149 79.8994 118.13 79.379C117.219 79.3697 116.3 79.4441 115.408 79.2397C114.924 79.0724 114.878 78.3477 115.408 78.2083C116.29 78.0039 117.21 78.0782 118.111 78.0596C118.13 77.53 118.149 77.0004 118.167 76.4801C117.284 76.4336 116.374 76.5172 115.51 76.285C114.98 76.1735 114.989 75.4023 115.38 75.1421C116.272 74.9656 117.182 75.0213 118.084 75.0213C118.074 74.0921 118.111 73.1537 117.898 72.2431C117.368 70.0968 115.324 68.4243 113.113 68.3686C111.356 68.2385 109.61 69.1491 108.615 70.5985ZM104.221 83.6996C104.193 85.8552 105.373 87.8994 106.85 89.4046C108.188 90.8076 110.056 91.4952 111.923 91.839C111.914 93.6415 111.895 95.4534 111.923 97.2652C110.492 97.3489 109.061 97.2188 107.64 97.3674C106.59 97.4696 106.608 99.2443 107.649 99.3465C110.214 99.4952 112.787 99.3094 115.352 99.4023C116.439 99.3651 117.6 99.5788 118.613 99.105C118.836 98.5846 118.864 97.9435 118.492 97.4882C116.987 97.0794 115.408 97.3674 113.874 97.3117C113.837 95.4906 113.809 93.6694 113.902 91.8483C115.937 91.5138 117.963 90.659 119.31 89.0329C120.592 87.4905 121.624 85.53 121.475 83.4766C121.075 83.0213 120.425 83.1514 119.895 83.0678C119.617 84.2571 119.412 85.5022 118.79 86.5707C117.712 88.4104 115.77 89.7484 113.642 89.99C111.264 90.278 108.838 89.1073 107.398 87.2304C106.469 86.0318 106.181 84.4987 105.874 83.0585C105.261 83.0306 104.286 82.8727 104.221 83.6996Z" fill="#5ACBE8"/>
<path d="M26.9149 63.109C28.4294 61.9011 30.297 61.1671 32.2111 60.9255C35.7976 60.591 39.3841 61.706 42.4317 63.5364C48.1739 67.0022 52.4573 72.3913 55.5886 78.245C55.635 79.8524 55.4492 81.5063 55.9323 83.0765C56.2761 84.173 56.5177 85.2972 56.4805 86.4587C56.3505 93.7154 56.5456 100.981 56.3783 108.238C55.4585 110.078 54.7059 111.992 53.9904 113.915C51.8627 109.818 50.1066 105.534 48.0345 101.418C47.7651 100.805 47.412 100.182 47.4027 99.4947C47.4863 98.6492 47.8394 97.8687 48.1182 97.0696C49.3725 93.5667 50.4782 90.008 51.6954 86.4958C52.0392 85.5202 52.2901 84.526 52.4294 83.504C51.2959 85.2229 50.9335 87.2856 50.2366 89.1997C49.0938 92.396 48.1832 95.6759 46.9196 98.835C43.0636 90.7792 39.3655 82.6491 35.5839 74.5655C34.7291 72.8001 34.153 70.8675 32.8615 69.3437C33.0566 70.1706 33.3168 70.9975 33.6791 71.7687C37.0055 78.8768 40.2575 86.022 43.6211 93.1114C43.9648 93.8733 44.2808 94.6445 44.5781 95.425C42.4875 94.5795 40.5363 93.4273 38.5293 92.396C36.3644 91.2624 34.153 90.1939 32.0066 89.0231C31.9416 89.1439 31.7929 89.3855 31.7279 89.5063C35.5932 91.4296 39.3934 93.4831 43.2587 95.4157C44.4387 95.9174 45.4515 96.8001 45.9254 98.0173C48.1182 102.905 50.4318 107.727 52.6803 112.577C53.8882 115.086 54.9939 117.65 56.3598 120.085C56.4434 121.265 56.4155 122.445 56.4248 123.625C53.1728 122.463 49.8836 121.432 46.6315 120.28C44.6524 119.629 42.7198 118.756 40.6478 118.459C42.376 119.676 44.5038 119.992 46.4271 120.744C49.7721 121.859 53.0798 123.067 56.4341 124.154C56.4434 129.971 56.4434 135.787 56.4248 141.604C55.3098 140.991 54.1484 140.35 53.3772 139.3C52.3737 137.952 51.6582 136.41 50.6826 135.044C48.1925 131.476 45.34 128.187 42.534 124.879C42.3295 124.61 42.1251 124.34 41.9207 124.08C39.3563 120.642 36.4852 117.26 35.2958 113.042C34.8499 111.49 35.045 109.78 35.9091 108.405C36.5874 107.355 37.7581 106.417 37.7488 105.079C37.3772 103.843 36.2993 103.025 35.4259 102.133C32.815 99.727 30.4457 97.0324 28.6338 93.9662C27.2029 91.5411 25.9579 88.9953 24.9079 86.3843C23.0403 81.1718 21.7488 75.4761 22.9567 69.9662C23.5328 67.346 24.7778 64.7815 26.9149 63.109Z" fill="#5ACBE8"/>
<path d="M108.615 70.5984C109.609 69.1489 111.356 68.2384 113.122 68.3406C115.333 68.3963 117.377 70.0781 117.907 72.2151C118.12 73.1257 118.083 74.0641 118.093 74.9933C117.191 75.0026 116.271 74.9375 115.389 75.1141C114.989 75.3835 114.989 76.1454 115.519 76.2569C116.383 76.4892 117.284 76.4056 118.176 76.4521C118.158 76.9817 118.139 77.5113 118.121 78.0316C117.219 78.0409 116.299 77.9759 115.417 78.1803C114.878 78.3104 114.924 79.0351 115.417 79.2117C116.309 79.4068 117.229 79.3324 118.139 79.351C118.158 79.8714 118.167 80.3917 118.186 80.912C117.201 80.9492 116.197 80.8934 115.231 81.1071C115.073 81.423 115.054 81.7947 115.184 82.1292C116.141 82.4079 117.154 82.3429 118.148 82.3615C118.018 83.7924 117.702 85.2976 116.643 86.3475C115.11 88.1315 112.276 88.5775 110.288 87.3139C108.569 86.3104 107.649 84.322 107.705 82.3615C108.634 82.3336 109.609 82.4544 110.52 82.1849C111.059 82.0084 110.873 81.3115 110.492 81.07C109.554 80.8748 108.587 80.9306 107.64 80.8748C107.668 80.3731 107.695 79.8806 107.723 79.3789C108.671 79.3696 109.637 79.4439 110.566 79.2302C111.022 79.0165 111.04 78.3475 110.557 78.1617C109.609 77.948 108.625 78.0316 107.668 78.0223C107.668 77.502 107.668 76.9724 107.677 76.4521C108.652 76.4149 109.628 76.387 110.604 76.3591C110.715 76.0061 110.817 75.6437 110.929 75.2999C109.86 75.0212 108.755 74.9468 107.649 74.9654C107.649 73.4881 107.658 71.8528 108.615 70.5984Z" fill="#FEFEFF"/>
<path d="M32.8606 69.3347C34.1522 70.8492 34.7282 72.7912 35.583 74.5566C39.374 82.6495 43.0627 90.7796 46.9187 98.826C48.1824 95.6762 49.0929 92.387 50.2358 89.1907C50.9327 87.2767 51.295 85.214 52.4286 83.495C52.2892 84.5171 52.0291 85.5113 51.6946 86.4869C50.4774 89.9991 49.3717 93.5578 48.1173 97.0607C47.8479 97.8597 47.4948 98.6402 47.4019 99.4857C47.4112 100.173 47.755 100.796 48.0337 101.409C50.115 105.525 51.8618 109.809 53.9896 113.906C54.705 111.983 55.4576 110.069 56.3775 108.229C56.3589 108.684 56.3403 109.14 56.3125 109.604C55.6899 111.212 54.7887 112.735 54.5192 114.454C54.5842 116.025 55.6435 117.316 56.2846 118.691C56.3032 119.147 56.3218 119.602 56.3496 120.057C54.9745 117.623 53.8688 115.068 52.6702 112.55C50.4123 107.699 48.0987 102.868 45.9152 97.9898C45.4507 96.7726 44.4379 95.8899 43.2486 95.3882C39.3833 93.4555 35.5923 91.4021 31.7178 89.4788C31.7828 89.358 31.9315 89.1164 31.9965 88.9956C34.1429 90.1663 36.345 91.2349 38.5192 92.3684C40.5261 93.3998 42.4774 94.5519 44.568 95.3975C44.2706 94.617 43.9547 93.8458 43.6109 93.0839C40.2474 85.9944 36.9954 78.8493 33.669 71.7412C33.3159 70.9793 33.0558 70.1617 32.8606 69.3347Z" fill="#F7FEFE"/>
<path d="M13.5539 78.5427C15.1241 77.8179 17.2055 78.9051 17.4192 80.6426C17.6979 82.0177 16.7223 83.4579 15.3564 83.7552C14.1021 84.0804 12.6154 83.4393 12.1509 82.1943C11.5469 80.8563 12.1601 79.0909 13.5539 78.5427Z" fill="#053041"/>
<path d="M104.22 83.6994C104.285 82.8724 105.27 83.0304 105.846 83.0397C106.153 84.4892 106.441 86.013 107.37 87.2116C108.81 89.0885 111.235 90.2592 113.614 89.9712C115.742 89.7296 117.684 88.3916 118.761 86.5519C119.384 85.4834 119.588 84.2383 119.867 83.049C120.397 83.1326 121.056 83.0025 121.447 83.4578C121.595 85.5112 120.564 87.481 119.282 89.0141C117.935 90.6402 115.909 91.4857 113.874 91.8295C113.781 93.6506 113.809 95.4718 113.846 97.2929C115.379 97.3486 116.959 97.0606 118.464 97.4694C118.836 97.9247 118.817 98.5658 118.585 99.0862C117.572 99.5693 116.401 99.3463 115.324 99.3835C112.759 99.2906 110.185 99.4764 107.621 99.3277C106.58 99.2255 106.571 97.4508 107.612 97.3486C109.033 97.2 110.473 97.3301 111.895 97.2464C111.867 95.4346 111.886 93.632 111.895 91.8202C110.027 91.4764 108.16 90.7888 106.822 89.3858C105.372 87.8899 104.192 85.855 104.22 83.6994Z" fill="#FDFEFE"/>
<path d="M9.60407 109.195C13.4786 106.529 18.0965 104.838 22.8259 104.745C27.4531 104.587 31.9223 106.166 35.9177 108.378C35.0536 109.753 34.8585 111.463 35.3045 113.014C36.4845 117.223 39.3649 120.615 41.9293 124.053C41.6877 130.919 42.1059 137.776 41.9386 144.643C35.5182 135.918 29.1256 127.165 22.6494 118.487C21.4601 116.972 20.5402 115.188 18.9421 114.046C19.6668 115.895 21.0698 117.335 22.2127 118.924C28.2986 127.147 34.3381 135.407 40.4148 143.639C42.5426 146.668 44.8747 149.549 46.9653 152.615C39.5507 151.1 32.1918 149.335 24.805 147.69C24.8143 147.857 24.8422 148.201 24.8608 148.369C29.8132 149.298 34.6912 150.598 39.625 151.621C41.8829 152.159 44.1593 152.596 46.4078 153.144C48.1732 153.488 48.9073 155.3 49.92 156.564C52.0943 159.425 54.1012 162.408 56.4055 165.168C56.4706 169.674 56.4334 174.18 56.4241 178.687C54.5565 178.585 52.6889 178.343 50.812 178.529C52.5774 179.337 54.5379 179.179 56.4241 179.254C56.4241 182.775 56.4613 186.287 56.4055 189.809C55.4392 189.279 54.4729 188.731 53.6459 187.988C52.3173 186.789 51.3602 185.265 50.3382 183.825C49.0466 181.967 47.5507 180.238 46.5937 178.176C45.2371 175.314 43.8062 172.452 41.7899 169.981C40.9909 168.513 40.1546 167.035 38.9003 165.911C33.4461 160.931 26.589 157.855 20.9212 153.144C14.4542 147.96 8.62846 141.688 5.0698 134.134C2.99779 129.665 1.78989 124.619 2.66329 119.695C3.40661 115.449 6.0547 111.639 9.60407 109.195Z" fill="#5ACBE8"/>
<path d="M18.9426 114.055C20.5408 115.198 21.4606 116.972 22.6499 118.496C29.1261 127.175 35.5187 135.927 41.9392 144.652C42.1064 137.786 41.6883 130.928 41.9299 124.062C42.1343 124.331 42.3387 124.592 42.5431 124.861C42.3759 127.379 42.5153 129.897 42.5338 132.424C42.571 136.308 42.5803 140.192 42.5896 144.076C42.5524 145.033 42.8126 145.981 43.4258 146.724C46.3712 150.626 49.2052 154.603 52.132 158.515C53.5536 160.373 54.808 162.371 56.4061 164.09C56.4061 164.452 56.4061 164.824 56.4154 165.186C54.1111 162.427 52.1041 159.444 49.9299 156.582C48.9171 155.319 48.1831 153.507 46.4177 153.163C44.1599 152.615 41.8834 152.187 39.6349 151.639C34.7011 150.617 29.823 149.316 24.8706 148.387C24.852 148.22 24.8242 147.876 24.8149 147.709C32.2016 149.353 39.5605 151.119 46.9752 152.633C44.8846 149.567 42.5617 146.687 40.4247 143.658C34.348 135.425 28.3085 127.165 22.2225 118.942C21.0611 117.344 19.6674 115.904 18.9426 114.055Z" fill="#F9FCFC"/>
<path d="M40.6484 118.44C42.7297 118.738 44.6531 119.602 46.6322 120.261C49.8842 121.413 53.1734 122.445 56.4255 123.606C56.4255 123.736 56.4348 124.006 56.4348 124.136C53.0805 123.049 49.7727 121.832 46.4278 120.726C44.4951 119.973 42.3674 119.657 40.6484 118.44Z" fill="#FBFDFD"/>
<path d="M11.4072 168.067C13.0983 168.82 14.4827 170.074 15.988 171.133C21.8881 175.379 27.751 179.691 33.6697 183.918C33.1215 181.289 32.4433 178.678 31.8672 176.048C31.4398 174.023 30.7615 172.044 30.6779 169.962C31.6256 171.979 31.8486 174.227 32.4526 176.355C32.722 177.489 32.9729 178.641 33.233 179.774C33.6512 181.261 33.7441 182.859 34.4224 184.262C35.3236 185.405 36.6802 186.065 37.8045 186.966C42.1065 190.236 46.5385 193.34 50.8219 196.648C52.6709 198.014 54.4642 199.454 56.434 200.652C56.434 200.838 56.434 201.219 56.434 201.405C53.8695 199.593 51.4537 197.595 48.88 195.802C48.0809 195.18 47.0403 195.384 46.1111 195.496C44.067 195.784 42.0135 196.016 39.9601 196.267C37.8974 196.508 35.8347 196.973 33.7441 196.843C35.5281 196.239 37.4235 196.164 39.2818 195.914C42.0414 195.551 44.801 195.235 47.5606 194.873C45.9067 193.479 44.1227 192.234 42.3852 190.952C38.5757 188.22 34.8869 185.321 31.0588 182.608C29.7952 181.735 28.6152 180.48 26.9891 180.387C25.0007 180.211 22.9938 180.257 21.0054 180.127C18.8033 179.969 16.5733 180.109 14.3991 179.644C18.7197 179.291 23.0402 179.941 27.3701 179.932C23.5141 177.043 19.528 174.32 15.6535 171.449C14.204 170.371 12.6151 169.442 11.4072 168.067Z" fill="#FBFDFD"/>
<path d="M103.542 128.912C103.784 129.219 104.155 129.497 104.118 129.934C104.155 131.569 104.081 133.196 104.044 134.831C103.05 134.822 101.777 135.491 101.024 134.561C100.16 133.558 100.253 131.7 101.433 130.966C102.065 130.575 102.771 130.975 103.393 131.17C103.384 130.417 103.431 129.665 103.542 128.912ZM101.628 131.662C101.145 132.201 101.145 133.01 101.312 133.679C101.461 134.301 102.204 134.756 102.78 134.348C103.654 133.837 103.263 132.647 103.384 131.82C102.817 131.727 102.158 131.189 101.628 131.662Z" fill="white"/>
<path d="M120.305 129.145C120.481 129.172 120.843 129.219 121.02 129.247C121.011 131.17 121.039 133.103 121.029 135.026C120.853 135.054 120.49 135.1 120.314 135.119C120.23 133.121 120.249 131.133 120.305 129.145Z" fill="white"/>
<path d="M110.752 131.059C111.124 130.575 111.458 130.055 111.886 129.609C112.062 129.962 112.22 130.343 112.378 130.715C112.555 130.78 112.917 130.901 113.094 130.966C112.768 131.217 112.434 131.449 112.146 131.737C111.997 132.545 112.081 133.372 112.109 134.19C112.406 134.487 112.703 134.803 112.982 135.128C112.49 135.054 111.988 134.998 111.523 134.822C111.114 133.586 111.737 132.081 110.752 131.059Z" fill="white"/>
<path d="M128.165 129.711C128.323 129.711 128.648 129.72 128.806 129.72C128.862 130.036 128.927 130.361 128.983 130.687C129.289 130.863 129.596 131.04 129.893 131.225C129.642 131.29 129.131 131.402 128.88 131.458C128.871 132.378 128.871 133.307 128.89 134.227C129.224 134.487 129.568 134.747 129.893 135.026C129.354 134.979 128.713 135.146 128.267 134.738C127.951 133.493 128.546 131.922 127.319 131.058C127.57 130.965 127.83 130.882 128.081 130.789C128.118 130.426 128.137 130.064 128.165 129.711Z" fill="white"/>
<path d="M92.0293 131.83C92.5125 130.78 94.0548 130.492 94.9097 131.244C95.3185 131.69 95.4857 132.276 95.7366 132.815C94.6774 133.195 93.5438 133.14 92.4381 133.177C92.7447 133.641 92.8934 134.45 93.581 134.496C94.2779 134.413 94.9004 134.041 95.5694 133.837C95.2535 134.766 94.2778 135.342 93.3115 135.072C91.8899 134.794 91.4718 132.982 92.0293 131.83ZM92.3731 132.489C93.2279 132.526 94.092 132.48 94.9468 132.378C94.5752 132.025 94.2778 131.439 93.7018 131.43C93.0514 131.384 92.754 132.09 92.3731 132.489Z" fill="white"/>
<path d="M96.1641 132.136C96.5915 130.789 98.5055 130.315 99.4161 131.44C99.7692 132.527 99.5834 133.697 99.6205 134.822C98.7936 134.85 97.9852 135.073 97.1676 135.054C96.2384 134.989 95.7924 133.595 96.5915 133.056C97.2976 132.601 98.171 132.601 98.9794 132.471C98.8679 132.118 98.7564 131.774 98.6449 131.421C97.7901 131.532 96.9724 131.839 96.1641 132.136ZM96.7866 134.05C97.1397 134.348 97.6135 134.654 98.0874 134.413C98.7007 134.255 98.7843 133.567 98.9608 133.066C98.1803 133.196 97.0839 133.112 96.7866 134.05Z" fill="white"/>
<path d="M104.843 130.622C106.004 131.328 106.088 132.806 106.599 133.948C107.156 132.824 107.212 131.31 108.42 130.65C108.104 132.406 107.351 134.051 106.701 135.695C106.478 136.448 105.679 136.578 105.01 136.671C105.391 136.16 105.855 135.714 106.162 135.147C105.865 133.605 105.001 132.211 104.843 130.622Z" fill="white"/>
<path d="M114.905 130.872C116.318 130.426 117.628 131.876 117.349 133.242C117.302 134.524 115.899 135.481 114.71 134.979C112.945 134.329 113.065 131.328 114.905 130.872ZM114.868 131.569C113.939 132.173 113.948 133.762 114.859 134.375C115.76 134.793 116.689 133.892 116.587 132.981C116.736 132.071 115.76 131.002 114.868 131.569Z" fill="white"/>
<path d="M124.309 131.133C125.089 130.492 126.111 130.938 126.938 131.254C126.854 131.514 126.78 131.774 126.696 132.034C126.241 131.783 125.795 131.514 125.312 131.356C124.95 131.532 124.634 131.792 124.309 132.034C125.182 132.573 126.483 132.619 127.04 133.576C127.263 134.701 125.823 135.379 124.885 135.063C124.206 135.017 123.918 134.385 123.695 133.837C124.309 134.041 124.885 134.441 125.554 134.468C125.907 134.292 126.232 134.069 126.557 133.855C125.832 133.483 125.052 133.223 124.336 132.833C123.732 132.489 123.677 131.495 124.309 131.133Z" fill="white"/>
<path d="M130.459 131.746C131.017 130.584 132.922 130.464 133.591 131.579C133.823 132.062 133.851 132.61 133.953 133.14C132.922 133.149 131.881 133.112 130.85 133.158C131.147 133.641 131.268 134.505 131.983 134.515C132.689 134.385 133.33 134.041 134.009 133.846C133.767 134.18 133.553 134.561 133.228 134.831C132.16 135.565 130.376 134.849 130.236 133.521C130.19 132.926 130.218 132.303 130.459 131.746ZM130.803 132.48C131.593 132.415 132.754 132.954 133.275 132.155C132.949 131.876 132.643 131.541 132.225 131.43C131.518 131.337 131.184 132.043 130.803 132.48Z" fill="white"/>
<path d="M20.9219 153.163C26.5897 157.874 33.4376 160.949 38.901 165.929C40.1553 167.054 41.0009 168.531 41.7907 169.999C41.6606 171.198 41.642 172.619 40.6478 173.474C39.5049 174.394 37.8139 174.199 36.6246 173.456C35.1844 172.536 34.1251 171.161 33.0566 169.86C29.9068 165.762 25.2146 162.993 20.29 161.59C20.4945 161.544 20.9033 161.46 21.117 161.414C20.9869 158.663 21.0334 155.913 20.9219 153.163Z" fill="#03697E"/>
<path d="M8.62907 162.789C12.0391 160.512 16.4525 160.531 20.2807 161.59C25.2052 162.993 29.8974 165.762 33.0472 169.86C32.8707 170.371 32.5641 170.863 32.5826 171.421C32.8521 172.294 33.5118 173.019 33.6233 173.929C33.5211 174.849 32.9171 175.602 32.434 176.355C31.83 174.227 31.607 171.978 30.6593 169.962C30.7336 172.043 31.4119 174.032 31.8486 176.048C32.4247 178.677 33.103 181.279 33.6512 183.918C27.7325 179.69 21.8788 175.379 15.9694 171.133C14.4642 170.073 13.089 168.819 11.3887 168.067C12.5966 169.442 14.1854 170.371 15.6256 171.467C19.5002 174.348 23.4769 177.07 27.3422 179.95C23.0124 179.96 18.6918 179.309 14.3712 179.662C16.5362 180.127 18.7754 179.997 20.9775 180.146C22.9752 180.276 24.9729 180.229 26.9613 180.406C28.5966 180.499 29.7673 181.753 31.031 182.626C34.8498 185.339 38.5478 188.238 42.3573 190.97C44.0949 192.252 45.8695 193.497 47.5327 194.891C44.7731 195.254 42.0136 195.569 39.254 195.932C37.405 196.183 35.5002 196.257 33.7162 196.861C35.8068 196.982 37.8695 196.526 39.9323 196.285C41.9857 196.025 44.0391 195.802 46.0832 195.514C47.0031 195.402 48.0531 195.198 48.8521 195.82C51.4259 197.614 53.851 199.611 56.4061 201.423C56.4619 204.824 56.3597 208.225 56.434 211.625C56.5269 215.37 58.5804 218.891 61.5908 221.065C58.5432 220.694 55.4863 220.369 52.5037 219.607C44.8103 217.758 37.4607 214.385 31.161 209.59C28.513 207.342 25.9764 204.777 24.5826 201.535C23.5327 199.295 23.3283 196.666 24.0716 194.296C24.3875 193.089 25.0193 191.788 24.499 190.543C23.8858 189.223 22.4642 188.619 21.2377 187.997C17.1866 186.139 13.5908 183.37 10.5524 180.136C7.91362 177.256 5.58145 173.781 5.1912 169.804C4.90317 167.044 6.32477 164.276 8.62907 162.789Z" fill="#5ACBE8"/>
<path d="M32.5915 171.421C32.573 170.864 32.8796 170.371 33.0561 169.86C34.1339 171.161 35.1839 172.536 36.6241 173.456C37.8134 174.199 39.5044 174.394 40.6473 173.475C41.6415 172.62 41.6601 171.198 41.7902 169.999C43.7971 172.471 45.2373 175.324 46.5939 178.195C47.5509 180.257 49.0561 181.986 50.3384 183.844C51.3697 185.284 52.3268 186.808 53.6462 188.006C54.4638 188.75 55.4394 189.298 56.4058 189.828C56.4058 190.023 56.4058 190.422 56.4058 190.617C54.7333 189.586 52.9586 188.741 51.1282 188.016C49.1398 187.198 47.2815 186.102 45.2931 185.303C43.5277 184.578 41.6973 183.862 40.2571 182.562C38.6496 181.075 37.0143 179.598 35.7042 177.842C34.7751 178.343 33.9202 178.975 33.2141 179.765C32.9539 178.622 32.703 177.479 32.4336 176.346C32.9168 175.593 33.5207 174.84 33.6229 173.921C33.5114 173.01 32.8517 172.285 32.5915 171.421Z" fill="#95D9E1" fill-opacity="0.54"/>
<path d="M33.2236 179.774C33.9298 178.984 34.7846 178.352 35.7138 177.85C37.0239 179.606 38.6592 181.084 40.2666 182.57C41.6975 183.881 43.5279 184.587 45.3026 185.311C47.291 186.111 49.1493 187.207 51.1377 188.025C52.9681 188.74 54.7428 189.586 56.4153 190.626C56.4711 193.971 56.4525 197.316 56.4339 200.67C54.4641 199.472 52.6615 198.032 50.8218 196.666C46.5384 193.358 42.1063 190.255 37.8044 186.984C36.6801 186.083 35.3235 185.423 34.4222 184.28C33.7347 182.868 33.6418 181.26 33.2236 179.774Z" fill="#95D9E1" fill-opacity="0.54"/>
<path d="M50.8213 178.548C52.6889 178.352 54.5658 178.603 56.4334 178.706C56.4334 178.845 56.4334 179.133 56.4334 179.272C54.5472 179.198 52.5774 179.356 50.8213 178.548Z" fill="#F5E8E8"/>
<path d="M16.8424 199.76C18.4498 199.054 20.5125 200.429 20.3453 202.204C20.3732 204.137 17.9109 205.354 16.3499 204.258C14.6589 203.263 14.9469 200.346 16.8424 199.76Z" fill="#2A5F73"/>
<path d="M97 213.688C107.341 213.549 117.683 213.679 128.024 213.623C128.405 213.679 129.177 213.558 129.177 214.134C129.483 214.98 128.294 214.933 127.755 214.98C118.984 214.942 110.203 215.017 101.432 214.914C99.9919 214.914 98.5424 215.091 97.1208 214.831C97.0558 214.45 97.0279 214.069 97 213.688Z" fill="#1A1D22"/>
<path d="M136.142 222.524C137.833 222.041 139.347 221.112 140.871 220.248C140.806 220.36 140.676 220.592 140.62 220.703C140.193 221.456 139.784 222.209 139.357 222.961C144.987 223.147 150.637 222.878 156.267 223.054C150.618 223.324 144.95 222.98 139.292 223.221C139.282 223.779 139.282 224.336 139.273 224.903C146.493 224.866 153.721 224.847 160.941 224.894C160.95 224.327 160.95 223.751 160.96 223.184C159.631 223.156 158.311 223.147 156.983 223.166L157.048 222.97C158.358 223.026 159.668 223.036 160.978 223.017C160.978 222.348 160.987 221.688 160.96 221.019C165.15 221.084 169.341 220.945 173.531 221.177C177.415 221.4 181.317 221.196 185.201 221.437C188.704 221.67 192.235 221.437 195.728 221.865C195.942 222.181 196.165 222.506 196.397 222.831C196.751 223.314 197.169 223.779 197.708 224.076C198.665 223.444 199.408 222.571 200.207 221.763C201.396 221.874 202.595 221.986 203.803 222.06C211.143 222.339 218.483 222.71 225.796 223.454C227.905 223.751 230.126 223.807 232.086 224.736C232.133 225.284 231.501 225.377 231.12 225.563C229.029 226.213 226.818 226.278 224.662 226.529C211.236 227.691 197.763 228.025 184.291 228.369C179.468 228.601 174.637 228.48 169.814 228.629C163.636 228.871 157.447 228.768 151.268 228.861C134.293 229.177 117.308 229.047 100.323 229.056C94.7945 229.047 89.2568 229.066 83.719 228.908C76.5181 228.722 69.3171 228.917 62.1255 228.601C58.0186 228.48 53.9118 228.601 49.8049 228.387C46.8409 228.22 43.8583 228.304 40.8943 228.118C37.7259 227.914 34.5389 228.034 31.3705 227.793C23.6957 227.551 16.0209 227.207 8.37395 226.576C5.94886 226.343 3.4959 226.167 1.14514 225.526C0.764186 225.331 -0.0627621 225.331 0.150943 224.708C1.01506 224.253 1.99996 224.095 2.95699 223.928C8.08592 223.138 13.2706 222.905 18.4367 222.497C23.3054 222.311 28.1742 222.069 33.0337 221.883C36.1185 221.828 39.1661 221.233 42.2602 221.391C43.626 222.013 45.0198 222.636 46.525 222.803C49.5819 223.128 52.6667 222.952 55.7329 222.989C81.2103 222.961 106.688 223.026 132.156 223.017C133.494 222.97 134.85 222.905 136.142 222.524Z" fill="#CFD1D1"/>
<ellipse cx="116" cy="224.618" rx="116" ry="4.5" fill="#D9D9D9"/>
<g opacity="0.5">
<path d="M79.116 153.571H77.2389V163.251H79.116V153.571Z" fill="white"/>
<path d="M82.5022 154.786H80.6251V162.049H82.5022V154.786Z" fill="white"/>
<path d="M85.9004 153.571H84.0233V163.251H85.9004V153.571Z" fill="white"/>
<path d="M89.2867 149.118H87.4097V167.422H89.2867V149.118Z" fill="white"/>
<path d="M92.6849 151.719H90.8079V165.091H92.6849V151.719Z" fill="white"/>
<path d="M123.343 149.118H121.466V167.422H123.343V149.118Z" fill="white"/>
<path d="M126.73 152.676H124.853V164.134H126.73V152.676Z" fill="white"/>
<path d="M129.895 155.731H128.018V161.08H129.895V155.731Z" fill="white"/>
<path d="M132.95 154.148H131.073V162.687H132.95V154.148Z" fill="white"/>
<path d="M136.066 149.645H134.189V167.177H136.066V149.645Z" fill="white"/>
<path d="M139.28 154.786H137.403V162.049H139.28V154.786Z" fill="white"/>
<path d="M142.617 152.676H140.74V164.134H142.617V152.676Z" fill="white"/>
<path d="M145.721 149.118H143.844V167.717H145.721V149.118Z" fill="white"/>
<path d="M148.776 152.676H146.899V163.57H148.776V152.676Z" fill="white"/>
<path d="M151.953 155.338H150.076V160.908H151.953V155.338Z" fill="white"/>
<path d="M155.033 156.479H153.156V159.767H155.033V156.479Z" fill="white"/>
<path d="M75.8772 155.731H74.0001V160.503H75.8772V155.731Z" fill="white"/>
<path d="M109.456 149.118H107.579V167.422H109.456V149.118Z" fill="white"/>
<path d="M112.842 151.719H110.965V165.091H112.842V151.719Z" fill="white"/>
<path d="M96.0708 154.786H94.1937V162.049H96.0708V154.786Z" fill="white"/>
<path d="M99.4695 155.731H97.5924V161.08H99.4695V155.731Z" fill="white"/>
<path d="M116.51 154.786H114.633V162.049H116.51V154.786Z" fill="white"/>
<path d="M119.908 152.676H118.031V164.134H119.908V152.676Z" fill="white"/>
<path d="M102.855 154.148H100.978V162.687H102.855V154.148Z" fill="white"/>
<path d="M106.254 152.676H104.376V164.134H106.254V152.676Z" fill="white"/>
</g>
</svg>
