<svg width="222" height="192" viewBox="0 0 222 192" fill="none" xmlns="http://www.w3.org/2000/svg">
<path opacity="0.6" d="M86.3043 27.4963C86.3043 27.4963 136.557 20.5205 143.222 54.2633C146.747 72.1178 172.668 59.2136 187.471 65.4088C198.007 69.8156 192.556 84.7652 198.886 88.6582C230.07 107.866 221.953 191.853 215.9 191.843L7.96835 191.497C7.96835 191.497 -8.84826 166.311 6.37852 151.609C21.6053 136.906 11.148 130.177 9.30143 124.496C7.17837 117.974 -0.425142 99.3393 21.2399 91.1877C32.3687 86.9983 35.8249 75.4081 36.6642 67.6715C38.1059 54.451 45.5021 42.6831 56.7197 36.2606C63.8098 32.1996 73.3981 28.85 86.3043 27.4963Z" fill="#5ACBE8"/>
<path d="M171.44 0.662492C171.428 0.662492 171.428 0.662491 171.415 0.650223C171.195 0.564344 170.961 0.503004 170.741 0.429394C170.667 0.404857 170.581 0.38032 170.508 0.368052C170.422 0.343515 170.336 0.331246 170.262 0.30671C170.176 0.282173 170.09 0.269905 170.005 0.245368C169.919 0.233099 169.845 0.208561 169.759 0.196293C169.673 0.184025 169.575 0.159489 169.489 0.14722C169.416 0.134952 169.33 0.122683 169.256 0.110415C169.158 0.0981463 169.06 0.0858776 168.949 0.0736092C168.876 0.0613408 168.802 0.0613412 168.729 0.0490728C168.618 0.0368044 168.496 0.0245364 168.385 0.0245364C168.324 0.0245364 168.262 0.0122673 168.201 0.0122673C168.017 -1.12339e-06 167.845 0 167.661 0H85.095C84.8987 0 84.7147 -1.12339e-06 84.5184 0.0122673C84.1381 0.036804 83.77 0.0736103 83.3897 0.122684C83.2057 0.147221 83.0217 0.184024 82.8376 0.220829C78.1266 1.19003 74.4951 5.14045 74.0044 10.0233C73.9676 10.4036 73.9431 10.7839 73.9431 11.1642V149.036V180.493C73.9431 185.326 77.0102 189.448 81.2918 190.994C81.3164 191.007 81.3286 191.007 81.3532 191.019C81.5617 191.092 81.7826 191.166 82.0034 191.227C82.077 191.252 82.1629 191.276 82.2365 191.289C82.3224 191.313 82.4082 191.326 82.4819 191.35C82.5677 191.375 82.6536 191.387 82.7395 191.411C82.8254 191.424 82.899 191.448 82.9849 191.46C83.0707 191.473 83.1689 191.497 83.2548 191.51C83.3284 191.522 83.4143 191.534 83.4879 191.546C83.586 191.559 83.6842 191.571 83.7823 191.583C83.8559 191.595 83.9295 191.595 84.0031 191.608C84.1135 191.62 84.2362 191.632 84.3467 191.632C84.408 191.632 84.4693 191.644 84.5307 191.644C84.7147 191.657 84.8865 191.657 85.0705 191.657H167.637C168.017 191.657 168.397 191.632 168.778 191.595C174.016 191.056 178.188 186.884 178.715 181.621C178.752 181.241 178.776 180.861 178.776 180.48V42.6204V11.1642C178.789 6.33049 175.722 2.22058 171.44 0.662492Z" fill="white"/>
<path d="M173.378 15.2251H79.3412V176.432H173.378V15.2251Z" fill="#156585"/>
<path opacity="0.2" d="M150.409 94.175C163.594 80.9901 163.594 59.613 150.409 46.428C137.224 33.243 115.847 33.243 102.662 46.428C89.4772 59.613 89.4772 80.9901 102.662 94.175C115.847 107.36 137.224 107.36 150.409 94.175Z" fill="white"/>
<path opacity="0.3" d="M145.554 10.1583H107.325C106.773 10.1583 106.319 9.70433 106.319 9.15225C106.319 8.60017 106.773 8.14624 107.325 8.14624H145.541C146.093 8.14624 146.547 8.60017 146.547 9.15225C146.56 9.70433 146.106 10.1583 145.554 10.1583Z" fill="#174659"/>
<path opacity="0.2" d="M147.564 91.3297C159.178 79.7161 159.178 60.8869 147.564 49.2734C135.951 37.6599 117.121 37.6598 105.508 49.2734C93.8942 60.8869 93.8942 79.7161 105.508 91.3297C117.121 102.943 135.951 102.943 147.564 91.3297Z" fill="white"/>
<path d="M143.816 87.5821C153.36 78.0383 153.36 62.5647 143.816 53.021C134.272 43.4772 118.799 43.4772 109.255 53.021C99.7113 62.5647 99.7113 78.0383 109.255 87.5821C118.799 97.1258 134.272 97.1258 143.816 87.5821Z" fill="white"/>
<path opacity="0.3" d="M130.93 184.198C130.93 186.762 128.856 188.835 126.317 188.835C123.777 188.835 121.704 186.762 121.704 184.198C121.704 181.633 123.777 179.56 126.317 179.56C128.856 179.56 130.93 181.646 130.93 184.198Z" fill="#25586C"/>
<path opacity="0.2" d="M173.378 169.672H79.3412V176.432H173.378V169.672Z" fill="#053041"/>
<path opacity="0.2" d="M173.378 15.2251H79.3412V23.7762H173.378V15.2251Z" fill="#053041"/>
<path d="M121.127 67.4144C122.072 67.4144 122.943 67.4144 123.826 67.4144C123.973 67.4144 124.133 67.4512 124.256 67.4021C124.415 67.3285 124.538 67.1935 124.673 67.0831C124.538 66.9727 124.39 66.7764 124.256 66.7764C123.446 66.7519 122.636 66.7641 121.826 66.7641C121.618 66.7641 121.409 66.7641 121.164 66.7641C121.164 66.163 121.164 65.6109 121.164 64.9975C122.096 64.9975 123.016 65.0098 123.924 64.9975C124.206 64.9975 124.648 65.1202 124.66 64.6785C124.673 64.2246 124.231 64.3595 123.949 64.3473C123.029 64.335 122.121 64.3473 121.176 64.3473C121.176 63.7461 121.176 63.194 121.176 62.5561C122.084 62.5561 122.992 62.5684 123.912 62.5561C124.206 62.5561 124.685 62.7033 124.673 62.2248C124.66 61.7586 124.182 61.9181 123.887 61.9181C122.992 61.9059 122.096 61.9181 121.176 61.9181C121.176 61.3047 121.176 60.7649 121.176 60.1392C122.059 60.1392 122.918 60.1392 123.777 60.1392C123.937 60.1392 124.121 60.176 124.256 60.1269C124.415 60.0656 124.538 59.9184 124.685 59.8202C124.55 59.7098 124.403 59.5135 124.268 59.5135C123.495 59.4767 122.722 59.5013 121.949 59.489C121.753 59.489 121.556 59.489 121.36 59.489C121.495 57.4279 123.838 55.465 126.292 55.3055C128.832 55.146 131.322 56.9985 131.801 59.489C130.991 59.489 130.193 59.489 129.384 59.489C129.187 59.489 128.979 59.4522 128.795 59.5135C128.66 59.5626 128.549 59.7098 128.427 59.8202C128.549 59.9306 128.672 60.1147 128.807 60.1269C129.236 60.1637 129.666 60.1515 130.108 60.1515C130.696 60.1515 131.298 60.1515 131.936 60.1515C131.936 60.7526 131.936 61.3047 131.936 61.9304C131.089 61.9304 130.242 61.9304 129.408 61.9304C129.261 61.9304 129.102 61.8936 128.979 61.9427C128.783 62.0163 128.623 62.1512 128.439 62.2494C128.611 62.3598 128.783 62.5683 128.954 62.5683C129.764 62.6052 130.574 62.5806 131.383 62.5806C131.555 62.5806 131.739 62.5806 131.948 62.5806C131.948 63.1818 131.948 63.7216 131.948 64.3595C131.101 64.3595 130.242 64.3595 129.384 64.3595C129.2 64.3595 129.003 64.3105 128.844 64.3718C128.684 64.4209 128.574 64.5804 128.439 64.703C128.562 64.8012 128.684 64.9852 128.819 64.9975C129.249 65.0343 129.678 65.022 130.108 65.022C130.696 65.022 131.298 65.022 131.936 65.022C131.936 65.5986 131.936 66.1507 131.936 66.7887C131.187 66.7887 130.427 66.7887 129.654 66.7887C129.384 66.7887 129.102 66.7519 128.844 66.8009C128.684 66.8377 128.562 67.0095 128.427 67.1199C128.562 67.2303 128.697 67.4266 128.844 67.4266C129.666 67.4634 130.5 67.4389 131.322 67.4389C131.518 67.4389 131.715 67.4389 131.96 67.4389C131.96 68.8007 131.985 70.1134 131.948 71.4139C131.923 72.3831 131.972 73.3768 131.752 74.3092C131.273 76.3212 129.948 77.6462 127.961 78.1983C125.985 78.7381 124.206 78.2474 122.747 76.812C121.691 75.7691 121.139 74.481 121.152 72.9842C121.127 71.1317 121.127 69.316 121.127 67.4144Z" fill="#18495C"/>
<path d="M123.421 82.0878C124.047 82.2964 124.697 82.4314 125.323 82.6031C125.323 84.8605 125.323 89.3262 125.323 91.559H127.728C127.728 89.3139 127.728 84.8482 127.728 82.5663C128.034 82.505 128.28 82.4682 128.525 82.4068C132.328 81.4499 134.794 79.1189 135.812 75.3034C136.315 73.4264 136.07 71.5125 136.107 69.6109C136.119 68.8502 135.641 68.3718 134.978 68.3718C134.303 68.3718 133.862 68.8257 133.849 69.5986C133.837 70.4083 133.837 71.218 133.862 72.0278C133.911 74.003 133.58 75.8555 132.328 77.4749C130.5 79.855 127.372 80.9101 124.513 80.0636C121.569 79.2048 119.459 76.6407 119.262 73.6227C119.189 72.4081 119.226 71.1812 119.213 69.9544C119.213 69.6477 119.201 69.3287 119.115 69.0465C118.943 68.5558 118.428 68.2982 117.888 68.3718C117.348 68.4577 116.956 68.8993 116.944 69.525C116.919 70.715 116.931 71.9051 116.944 73.0951C116.993 77.1805 119.557 80.7506 123.421 82.0878Z" fill="#18495C"/>
<path d="M149.835 156.496H102.725C99.6822 156.496 97.204 154.03 97.204 150.975C97.204 147.932 99.6699 145.454 102.725 145.454H149.835C152.878 145.454 155.356 147.92 155.356 150.975C155.356 154.03 152.89 156.496 149.835 156.496Z" fill="#F43E5A"/>
<g opacity="0.5">
<path d="M90.7015 119.641H88.8245V129.321H90.7015V119.641Z" fill="white"/>
<path d="M94.0878 120.856H92.2107V128.119H94.0878V120.856Z" fill="white"/>
<path d="M97.486 119.641H95.6089V129.321H97.486V119.641Z" fill="white"/>
<path d="M100.872 115.188H98.9952V133.492H100.872V115.188Z" fill="white"/>
<path d="M104.27 117.789H102.393V131.161H104.27V117.789Z" fill="white"/>
<path d="M134.929 115.188H133.052V133.492H134.929V115.188Z" fill="white"/>
<path d="M138.315 118.746H136.438V130.205H138.315V118.746Z" fill="white"/>
<path d="M141.48 121.801H139.603V127.15H141.48V121.801Z" fill="white"/>
<path d="M144.535 120.218H142.658V128.757H144.535V120.218Z" fill="white"/>
<path d="M147.651 115.715H145.774V133.247H147.651V115.715Z" fill="white"/>
<path d="M150.866 120.856H148.989V128.119H150.866V120.856Z" fill="white"/>
<path d="M154.203 118.746H152.326V130.205H154.203V118.746Z" fill="white"/>
<path d="M157.307 115.188H155.43V133.787H157.307V115.188Z" fill="white"/>
<path d="M160.362 118.746H158.485V129.64H160.362V118.746Z" fill="white"/>
<path d="M163.539 121.408H161.662V126.978H163.539V121.408Z" fill="white"/>
<path d="M166.618 122.549H164.741V125.837H166.618V122.549Z" fill="white"/>
<path d="M87.4628 121.801H85.5857V126.573H87.4628V121.801Z" fill="white"/>
<path d="M121.041 115.188H119.164V133.492H121.041V115.188Z" fill="white"/>
<path d="M124.427 117.789H122.55V131.161H124.427V117.789Z" fill="white"/>
<path d="M107.656 120.856H105.779V128.119H107.656V120.856Z" fill="white"/>
<path d="M111.055 121.801H109.178V127.15H111.055V121.801Z" fill="white"/>
<path d="M128.096 120.856H126.219V128.119H128.096V120.856Z" fill="white"/>
<path d="M131.494 118.746H129.617V130.205H131.494V118.746Z" fill="white"/>
<path d="M114.441 120.218H112.564V128.757H114.441V120.218Z" fill="white"/>
<path d="M117.839 118.746H115.962V130.205H117.839V118.746Z" fill="white"/>
</g>
<path d="M176.732 35.5776H214.359C216.347 35.5776 217.954 37.1971 217.954 39.1845V63.0097C217.954 65.0095 216.347 66.6167 214.359 66.6167H188.976C187.148 69.1808 183.823 73.7814 183.529 73.7814C183.259 73.7814 183.786 69.4384 184.154 66.6167H176.744C174.757 66.6167 173.15 64.9972 173.15 63.0097V39.1968C173.137 37.1971 174.745 35.5776 176.732 35.5776Z" fill="#5ACBE8"/>
<path d="M213.77 47.8335H204.397H195.478C195.416 47.8335 195.367 47.8826 195.367 47.9439V49.3548C195.367 49.4161 195.416 49.4652 195.478 49.4652H204.397H204.851H213.77C213.831 49.4652 213.88 49.4161 213.88 49.3548V47.9439C213.88 47.8826 213.831 47.8335 213.77 47.8335Z" fill="white"/>
<path d="M177.382 49.4655H192.644C192.705 49.4655 192.754 49.4164 192.754 49.3551V47.932C192.754 47.8706 192.705 47.8215 192.644 47.8215H177.382C177.321 47.8215 177.272 47.8706 177.272 47.932V49.3551C177.272 49.4164 177.321 49.4655 177.382 49.4655Z" fill="white"/>
<path d="M177.321 44.1285H197.662C197.723 44.1285 197.772 44.0794 197.772 44.0181V42.6072C197.772 42.5459 197.723 42.4968 197.662 42.4968H177.321C177.259 42.4968 177.21 42.5459 177.21 42.6072V44.0304C177.21 44.0917 177.259 44.1285 177.321 44.1285Z" fill="white"/>
<path d="M201.355 44.1285H213.783C213.844 44.1285 213.893 44.0794 213.893 44.0181V42.6072C213.893 42.5459 213.844 42.4968 213.783 42.4968H201.355C201.293 42.4968 201.244 42.5459 201.244 42.6072V44.0304C201.244 44.0917 201.293 44.1285 201.355 44.1285Z" fill="white"/>
<path d="M177.21 59.9059H213.881V58.2742H177.21V59.9059Z" fill="white"/>
<path d="M196.434 54.7483H213.88V53.1166H196.434V54.7483Z" fill="white"/>
<path d="M177.278 54.7483H194.723V53.1166H177.278V54.7483Z" fill="white"/>
</svg>
