<svg width="307" height="171" viewBox="0 0 307 171" fill="none" xmlns="http://www.w3.org/2000/svg">
<path opacity="0.2" d="M289.117 169.051C288.991 169.319 288.85 169.601 288.709 169.869H36.8036C36.5784 169.601 36.3533 169.319 36.1281 169.051C3.84297 129.639 -9.34411 75.6248 7.06584 42.077C17.2411 21.2718 43.7701 4.94894 66.2458 8.38829C83.8521 11.0806 84.8794 23.7244 103.358 28.376C137.515 36.9603 162.2 0.847094 174.585 11.2356C188.715 23.0901 168.393 80.0085 172.08 81.4745C176.119 83.0814 188.786 9.91063 222.732 0.959859C243.138 -4.4247 270.526 13.5896 277.9 36.3683C285.557 59.9926 270.568 85.3085 278.9 91.7643C285.416 96.8106 296.351 82.7572 301.967 86.6194C309.876 92.0745 306.78 132.712 289.117 169.051Z" fill="#0087A3"/>
<path d="M26.671 146.622H31.3435C31.4139 146.256 31.3716 145.861 31.1746 145.466C29.8798 142.915 27.994 144.719 26.671 146.622Z" fill="#C7DBF9"/>
<path d="M18.3527 146.623H22.42C21.3504 145.692 20.126 145.157 18.9297 145.833C18.5778 146.031 18.3949 146.299 18.3527 146.623Z" fill="#C7DBF9"/>
<path d="M20.7597 126.677C20.9004 126.888 21.0553 127.1 21.196 127.311C19.4368 125.944 16.4532 124.393 15.665 126.705C14.8769 129.031 20.7175 129.158 22.1812 128.82C23.293 130.596 24.3063 132.47 25.0381 134.176C23.8419 133.288 19.2397 130.06 17.6776 131.625C16.7628 132.541 18.0294 134.5 20.5486 134.867C22.6597 135.163 24.5737 134.641 25.1507 134.458C25.8685 136.192 26.2625 137.728 26.1218 138.799C26.0233 139.546 25.8544 140.533 25.6855 141.576C25.6151 141.971 25.5448 142.365 25.4744 142.774C24.8129 141.477 21.7871 136.093 18.9301 138.63C17.7902 139.645 19.6479 141.506 20.7316 142.225C21.7167 142.887 24.5455 143.394 25.4181 143.127C25.2211 144.311 25.0381 145.523 24.9396 146.622H25.3055C25.4603 145.044 25.77 143.225 26.0374 141.633C26.0936 141.322 26.1499 141.012 26.1922 140.73C26.544 141.083 27.4307 141.872 28.2751 141.872C29.3587 141.872 31.9202 140.688 31.1461 138.63C30.2172 136.163 27.107 139.349 26.2485 140.308C26.3329 139.758 26.4173 139.264 26.4736 138.827C26.6144 137.672 26.2062 136.093 25.5026 134.401C26.7129 135.163 30.4002 131.751 29.7106 130.708C28.458 128.834 25.3196 132.118 25.2211 133.711C24.5033 132.076 23.5604 130.384 22.6456 128.89C24.1093 128.58 29.3165 125.845 26.2907 123.548C24.1093 121.884 22.4486 126.451 22.2374 128.228C22.2234 128.213 22.2234 128.213 22.2234 128.199C21.8152 127.551 21.4071 126.959 21.0553 126.437C20.5627 125.718 20.1686 124.83 19.8731 123.858C20.816 123.914 27.0084 120.954 23.7715 118.487C21.5338 116.796 19.859 121.588 19.7183 123.28C19.0146 120.63 18.9161 117.571 18.9161 116.021C20.0138 115.302 24.25 108.959 19.479 108.536C15.8339 108.198 17.6916 114.893 18.5642 115.95C18.5501 117.233 18.6205 119.657 19.0709 122.011C17.8887 120.531 15.1302 118.191 14.0888 120.87C13.1599 123.28 18.0294 123.477 19.3101 123.139C19.6338 124.478 20.0982 125.718 20.7597 126.677Z" fill="#C7DBF9"/>
<path d="M243.754 170.201H239.082C239.011 169.835 239.053 169.44 239.25 169.046C240.531 166.494 242.417 168.298 243.754 170.201Z" fill="#C7DBF9"/>
<path d="M252.058 170.202H247.99C249.06 169.272 250.284 168.736 251.481 169.413C251.832 169.61 252.015 169.878 252.058 170.202Z" fill="#C7DBF9"/>
<path d="M249.651 150.256C249.51 150.468 249.355 150.679 249.215 150.89C250.974 149.523 253.957 147.973 254.746 150.284C255.534 152.61 249.693 152.737 248.229 152.399C247.118 154.175 246.09 156.049 245.372 157.755C246.569 156.867 251.171 153.639 252.733 155.204C253.648 156.12 252.381 158.079 249.862 158.446C247.751 158.742 245.837 158.22 245.26 158.037C244.542 159.771 244.148 161.307 244.289 162.378C244.387 163.125 244.556 164.112 244.725 165.155C244.795 165.55 244.866 165.945 244.936 166.353C245.598 165.057 248.624 159.672 251.48 162.209C252.62 163.224 250.763 165.085 249.679 165.804C248.694 166.466 245.865 166.974 244.992 166.706C245.19 167.89 245.372 169.102 245.471 170.202H245.105C244.95 168.623 244.641 166.804 244.373 165.212C244.317 164.902 244.261 164.591 244.218 164.309C243.867 164.662 242.98 165.451 242.136 165.451C241.052 165.451 238.49 164.267 239.264 162.209C240.193 159.742 243.304 162.928 244.162 163.887C244.078 163.337 243.993 162.844 243.937 162.407C243.796 161.251 244.204 159.672 244.908 157.981C243.698 158.742 240.01 155.331 240.714 154.287C241.967 152.413 245.105 155.697 245.204 157.29C245.921 155.655 246.864 153.963 247.779 152.469C246.315 152.159 241.108 149.424 244.134 147.127C246.315 145.464 247.976 150.031 248.187 151.807C248.201 151.793 248.201 151.793 248.215 151.778C248.624 151.13 249.032 150.538 249.383 150.016C249.876 149.298 250.27 148.41 250.566 147.437C249.623 147.493 243.43 144.533 246.667 142.066C248.905 140.375 250.58 145.168 250.72 146.859C251.424 144.209 251.523 141.15 251.523 139.6C250.425 138.881 246.189 132.538 250.96 132.115C254.605 131.777 252.747 138.472 251.875 139.529C251.889 140.812 251.818 143.236 251.368 145.59C252.55 144.11 255.309 141.77 256.35 144.449C257.279 146.859 252.409 147.056 251.129 146.718C250.777 148.057 250.312 149.298 249.651 150.256Z" fill="#C7DBF9"/>
<path d="M103.27 45.8922C103.27 46.5829 103.833 47.1467 104.523 47.1467H109.083V51.1358H104.523C103.833 51.1358 103.27 51.6996 103.27 52.3903C103.27 53.081 103.833 53.6448 104.523 53.6448H109.083V57.6339H104.523C103.833 57.6339 103.27 58.1977 103.27 58.8884C103.27 59.5791 103.833 60.1429 104.523 60.1429H109.083V61.1719C109.083 65.9785 105.198 69.869 100.399 69.869C95.6 69.869 91.7157 65.9644 91.7157 61.1719V60.1429H96.2756C96.9652 60.1429 97.5281 59.5791 97.5281 58.8884C97.5281 58.1977 96.9652 57.6339 96.2756 57.6339H91.7157V53.6448H96.2756C96.9652 53.6448 97.5281 53.081 97.5281 52.3903C97.5281 51.6996 96.9652 51.1358 96.2756 51.1358H91.7157V47.1467H96.2756C96.9652 47.1467 97.5281 46.5829 97.5281 45.8922C97.5281 45.2015 96.9652 44.6377 96.2756 44.6377H91.7157V43.6228C91.7157 38.8161 95.6 34.9116 100.399 34.9116C102.806 34.9116 104.973 35.8842 106.549 37.4629C108.126 39.0417 109.097 41.2124 109.097 43.6228V44.6377H104.537C103.833 44.6377 103.27 45.2015 103.27 45.8922Z" fill="#EEF1FB"/>
<path d="M100.399 74.8163C93.0247 74.8163 87.0293 68.8116 87.0293 61.4254V53.4754C87.0293 52.7143 87.6485 52.1082 88.3944 52.1082C89.1404 52.1082 89.7596 52.7284 89.7596 53.4754V61.4254C89.7596 67.2892 94.5306 72.0677 100.385 72.0677C106.24 72.0677 111.011 67.2892 111.011 61.4254V53.4754C111.011 52.7143 111.63 52.1082 112.376 52.1082C113.136 52.1082 113.741 52.7284 113.741 53.4754V61.4254C113.755 68.8116 107.76 74.8163 100.399 74.8163Z" fill="#EEF1FB"/>
<path d="M81.9345 68.4733C81.1745 68.4733 80.5693 67.8531 80.5693 67.1061V50.0221C80.5693 49.2609 81.1886 48.6548 81.9345 48.6548C82.6945 48.6548 83.2996 49.275 83.2996 50.0221V67.1061C83.3137 67.8531 82.6945 68.4733 81.9345 68.4733Z" fill="#EEF1FB"/>
<path d="M76.235 62.7506C75.475 62.7506 74.8699 62.1304 74.8699 61.3833V55.7591C74.8699 54.998 75.4891 54.3918 76.235 54.3918C76.995 54.3918 77.6002 55.0121 77.6002 55.7591V61.3833C77.6002 62.1304 76.995 62.7506 76.235 62.7506Z" fill="#EEF1FB"/>
<path d="M70.5351 72.152C69.7751 72.152 69.1699 71.5318 69.1699 70.7847V46.3287C69.1699 45.5675 69.7892 44.9614 70.5351 44.9614C71.2951 44.9614 71.9002 45.5816 71.9002 46.3287V70.7847C71.9002 71.5318 71.281 72.152 70.5351 72.152Z" fill="#EEF1FB"/>
<path d="M64.821 64.5829C64.061 64.5829 63.4558 63.9627 63.4558 63.2156V53.9124C63.4558 53.1513 64.0751 52.5452 64.821 52.5452C65.5809 52.5452 66.1861 53.1654 66.1861 53.9124V63.2156C66.2002 63.9768 65.5809 64.5829 64.821 64.5829Z" fill="#EEF1FB"/>
<path d="M118.85 68.4733C118.091 68.4733 117.485 67.8531 117.485 67.1061V50.0221C117.485 49.2609 118.105 48.6548 118.85 48.6548C119.596 48.6548 120.216 49.275 120.216 50.0221V67.1061C120.23 67.8531 119.61 68.4733 118.85 68.4733Z" fill="#EEF1FB"/>
<path d="M124.564 62.7506C123.804 62.7506 123.199 62.1304 123.199 61.3833V55.7591C123.199 54.998 123.818 54.3918 124.564 54.3918C125.31 54.3918 125.93 55.0121 125.93 55.7591V61.3833C125.93 62.1304 125.324 62.7506 124.564 62.7506Z" fill="#EEF1FB"/>
<path d="M130.265 72.152C129.505 72.152 128.899 71.5318 128.899 70.7847V46.3287C128.899 45.5675 129.519 44.9614 130.265 44.9614C131.025 44.9614 131.63 45.5816 131.63 46.3287V70.7847C131.644 71.5318 131.025 72.152 130.265 72.152Z" fill="#EEF1FB"/>
<path d="M135.964 64.5829C135.204 64.5829 134.599 63.9627 134.599 63.2156V53.9124C134.599 53.1513 135.218 52.5452 135.964 52.5452C136.724 52.5452 137.329 53.1654 137.329 53.9124V63.2156C137.343 63.9768 136.724 64.5829 135.964 64.5829Z" fill="#EEF1FB"/>
<path d="M100.399 80.8773C99.6391 80.8773 99.0339 80.2571 99.0339 79.51V73.463C99.0339 72.7018 99.6532 72.0957 100.399 72.0957C101.145 72.0957 101.764 72.7159 101.764 73.463V79.51C101.764 80.2571 101.159 80.8773 100.399 80.8773Z" fill="#EEF1FB"/>
<path d="M105.255 80.8774H95.5439C94.7839 80.8774 94.1787 80.2572 94.1787 79.5101C94.1787 78.7489 94.798 78.1428 95.5439 78.1428H105.255C106.015 78.1428 106.62 78.763 106.62 79.5101C106.62 80.2572 106.015 80.8774 105.255 80.8774Z" fill="#EEF1FB"/>
<path d="M111.743 116.159C111.546 116.159 111.349 116.06 111.222 115.891C111.025 115.609 111.096 115.214 111.377 115.003C114.853 112.592 122.678 106.503 120.469 101.894C119.301 99.4693 116.486 98.7222 113.207 97.8765C108.675 96.6925 103.524 95.3534 101.188 89.0808C99.8225 85.4159 100.217 81.9906 102.342 79.1856C106.282 73.9702 115.599 71.433 127.252 72.4056C127.604 72.4338 127.857 72.7439 127.829 73.0963C127.801 73.4487 127.491 73.7024 127.14 73.6742C121.566 73.209 116.415 73.5755 112.207 74.7173C108.154 75.8308 105.1 77.6351 103.341 79.9468C101.469 82.4276 101.145 85.3454 102.37 88.6297C104.481 94.2821 109.083 95.4802 113.53 96.6502C116.95 97.5382 120.187 98.3839 121.609 101.344C124.142 106.63 116.739 112.818 112.095 116.046C111.996 116.116 111.87 116.159 111.743 116.159Z" fill="#5ACBE8"/>
<path d="M126.323 74.675H123.1C122.129 74.675 121.341 73.8857 121.341 72.9131C121.341 71.9405 122.129 71.1511 123.1 71.1511H126.323V74.675Z" fill="#5ACBE8"/>
<path d="M218.802 112.564C218.69 112.564 218.577 112.494 218.521 112.381C217.845 110.746 218.253 104.516 218.732 97.2844C219.337 88.1786 220.083 76.8457 218.38 75.0414C218.141 74.7877 217.873 74.7595 217.606 75.0555C215.101 77.8042 216.522 100.583 217.62 112.24C217.634 112.409 217.507 112.55 217.353 112.564C217.198 112.578 217.043 112.451 217.029 112.296C216.902 110.915 213.876 78.2834 217.17 74.6467C217.662 74.1111 218.352 74.1252 218.83 74.6326C220.702 76.6342 220.012 87.1496 219.337 97.3408C218.887 104.191 218.464 110.661 219.084 112.169C219.154 112.325 219.07 112.494 218.915 112.564C218.872 112.55 218.844 112.564 218.802 112.564Z" fill="#2A5F73"/>
<path d="M219.73 112.564C219.716 112.564 219.716 112.564 219.702 112.564C219.533 112.55 219.421 112.395 219.435 112.24C219.449 112.156 220.237 104.347 222.728 96.4107C226.092 85.6697 230.778 79.8482 236.647 79.0729C238.969 78.7769 240.32 79.0729 240.785 79.9751C241.882 82.1176 237.421 86.9102 232.706 91.9705C229.399 95.5085 225.289 99.9205 226.078 100.921C226.261 101.147 226.458 101.26 226.683 101.26C227.668 101.26 229.188 99.3566 230.666 97.5101C232.974 94.6205 235.366 91.6181 237.463 93.0277C237.815 93.2673 238.026 93.6338 238.054 94.0849C238.322 98.2995 222.601 111.944 221.926 112.522C221.799 112.635 221.616 112.621 221.504 112.494C221.391 112.367 221.405 112.184 221.532 112.071C226.035 108.181 237.66 97.3833 237.449 94.1271C237.435 93.8593 237.337 93.6761 237.125 93.5351C235.479 92.4357 233.171 95.3394 231.13 97.9048C229.427 100.047 227.949 101.88 226.683 101.88C226.275 101.88 225.909 101.697 225.613 101.316C224.544 99.991 227.457 96.7489 232.27 91.5758C236.225 87.333 241.165 82.0471 240.25 80.2711C239.926 79.6368 238.702 79.4253 236.731 79.6932C223.263 81.4551 220.068 112.015 220.04 112.311C220.012 112.452 219.885 112.564 219.73 112.564Z" fill="#2A5F73"/>
<path d="M216.212 112.846C216.057 112.846 215.916 112.719 215.916 112.564C214.368 87.5587 210.062 83.4427 209.217 82.8789C209.02 82.7379 208.71 82.597 208.457 82.6816C208.401 82.6957 208.331 82.7379 208.26 82.8789C207.81 83.8938 208.823 87.1217 209.696 89.4475C209.991 90.11 210.259 90.7443 210.456 91.3363C210.512 91.4914 210.427 91.6605 210.273 91.7169C210.118 91.7733 209.949 91.7028 209.893 91.5477C209.794 91.3363 209.499 90.6174 209.133 89.6589C206.234 83.3159 198.746 73.9422 195.495 72.9273C195.129 72.8146 194.848 72.8287 194.679 72.9555C194.327 73.2233 194.144 73.5194 194.102 73.8858C193.975 75.3377 196.129 77.6776 198.873 80.6518C199.661 81.4975 200.491 82.4137 201.35 83.3722C205.657 88.2212 211.75 100.935 213.158 103.938C213.256 104.135 213.355 104.347 213.453 104.572C213.524 104.727 213.453 104.896 213.299 104.967C213.144 105.037 212.975 104.967 212.904 104.812C212.89 104.798 212.792 104.558 212.609 104.163C211.68 102.345 210.554 101.598 209.724 101.302C208.71 100.935 207.81 101.076 207.289 101.33C207.162 101.88 210.019 104.967 212.778 107.476C212.904 107.589 212.904 107.772 212.806 107.899C212.693 108.026 212.51 108.04 212.384 107.941C209.414 105.559 207.176 105.418 206.149 106.024C205.811 106.221 205.628 106.503 205.671 106.771C205.727 107.067 206.065 107.307 206.599 107.42C209.667 108.04 213.749 111.86 213.918 112.029C214.044 112.142 214.044 112.339 213.932 112.452C213.819 112.579 213.622 112.579 213.51 112.466C213.467 112.423 209.372 108.589 206.487 108.012C205.685 107.856 205.178 107.434 205.079 106.87C204.995 106.362 205.291 105.841 205.854 105.502C206.726 104.981 208.204 104.896 210.132 105.799C208.443 104.121 206.599 102.063 206.712 101.231C206.74 101.034 206.853 100.879 207.022 100.795C207.655 100.484 208.739 100.301 209.935 100.738C210.357 100.893 210.85 101.147 211.356 101.57C208.964 96.6786 204.305 87.5869 200.9 83.7528C200.041 82.7943 199.211 81.8922 198.437 81.0465C195.481 77.8467 193.356 75.535 193.511 73.8154C193.553 73.2797 193.835 72.8146 194.327 72.4481C194.665 72.1944 195.129 72.1521 195.692 72.3212C198.591 73.2374 204.46 80.102 208.007 86.1632C207.613 84.6831 207.402 83.2877 207.725 82.5829C207.838 82.3151 208.035 82.1318 208.274 82.0613C208.542 81.9768 208.992 81.9486 209.569 82.3292C210.822 83.1749 215.001 87.8406 216.521 112.48C216.535 112.649 216.409 112.79 216.24 112.804C216.226 112.846 216.226 112.846 216.212 112.846Z" fill="#2A5F73"/>
<path d="M230.961 157.219C230.961 164.38 225.163 170.202 217.999 170.202C210.85 170.202 205.037 164.394 205.037 157.219L210.455 112.254H224.923L228.118 136.132L230.961 157.219Z" fill="#5ACBE8"/>
<path d="M223.432 115.877H212.581C212.412 115.877 212.285 115.736 212.285 115.581C212.285 115.412 212.426 115.285 212.581 115.285H223.432C223.6 115.285 223.727 115.426 223.727 115.581C223.727 115.75 223.586 115.877 223.432 115.877Z" fill="#435BDB"/>
<path d="M230.961 157.219C230.961 164.38 225.163 170.202 217.999 170.202C210.85 170.202 205.037 164.394 205.037 157.219C205.037 157.219 210.484 167.679 217.999 167.679C222.84 167.679 225.725 163.337 227.175 160.25C227.949 158.601 228.329 156.811 228.315 154.992L228.146 136.132L230.961 157.219Z" fill="#414141"/>
<path d="M195.932 170.202H138.568C134.838 170.202 131.489 168.524 129.251 165.888C127.436 163.746 126.338 160.983 126.338 157.952V17.2633C126.338 14.0776 127.548 11.188 129.533 9.00318C131.77 6.55053 134.993 5 138.568 5H195.932C199.31 5 202.364 6.36728 204.588 8.5944C206.811 10.8215 208.177 13.8803 208.177 17.2633V157.952C208.177 161.73 206.474 165.099 203.8 167.354C201.646 169.13 198.916 170.202 195.932 170.202Z" fill="black"/>
<path d="M194.863 9.46875H138.821C134.501 9.46875 130.996 12.9786 130.996 17.306V156.684C130.996 161.012 134.501 164.521 138.821 164.521H194.863C199.183 164.521 202.688 161.012 202.688 156.684V17.306C202.688 12.9786 199.183 9.46875 194.863 9.46875Z" fill="white"/>
<path d="M184.321 19.2091H150.179C149.447 19.2091 148.856 18.6171 148.856 17.8841C148.856 17.1511 149.447 16.5591 150.179 16.5591H184.321C185.053 16.5591 185.644 17.1511 185.644 17.8841C185.644 18.6171 185.053 19.2091 184.321 19.2091Z" fill="#2D6277"/>
<path d="M140.623 21.3091C142.519 21.3091 144.057 19.7693 144.057 17.8698C144.057 15.9703 142.519 14.4304 140.623 14.4304C138.726 14.4304 137.189 15.9703 137.189 17.8698C137.189 19.7693 138.726 21.3091 140.623 21.3091Z" fill="#2D6277"/>
<path d="M196.255 20.2661C196.831 20.2661 197.297 19.7991 197.297 19.223C197.297 18.6469 196.831 18.1799 196.255 18.1799C195.68 18.1799 195.214 18.6469 195.214 19.223C195.214 19.7991 195.68 20.2661 196.255 20.2661Z" fill="#2D6277"/>
<path d="M196.255 17.5737C196.831 17.5737 197.297 17.1067 197.297 16.5306C197.297 15.9546 196.831 15.4875 196.255 15.4875C195.68 15.4875 195.214 15.9546 195.214 16.5306C195.214 17.1067 195.68 17.5737 196.255 17.5737Z" fill="#2D6277"/>
<path d="M184.321 19.2091H150.179C149.447 19.2091 148.856 18.6171 148.856 17.8841C148.856 17.1511 149.447 16.5591 150.179 16.5591H184.321C185.053 16.5591 185.644 17.1511 185.644 17.8841C185.644 18.6171 185.053 19.2091 184.321 19.2091Z" fill="#2D6277"/>
<path d="M140.623 21.3091C142.519 21.3091 144.057 19.7693 144.057 17.8698C144.057 15.9703 142.519 14.4304 140.623 14.4304C138.726 14.4304 137.189 15.9703 137.189 17.8698C137.189 19.7693 138.726 21.3091 140.623 21.3091Z" fill="#2D6277"/>
<path d="M196.255 20.2661C196.831 20.2661 197.297 19.7991 197.297 19.223C197.297 18.6469 196.831 18.1799 196.255 18.1799C195.68 18.1799 195.214 18.6469 195.214 19.223C195.214 19.7991 195.68 20.2661 196.255 20.2661Z" fill="#2D6277"/>
<path d="M196.255 17.5737C196.831 17.5737 197.297 17.1067 197.297 16.5306C197.297 15.9546 196.831 15.4875 196.255 15.4875C195.68 15.4875 195.214 15.9546 195.214 16.5306C195.214 17.1067 195.68 17.5737 196.255 17.5737Z" fill="#2D6277"/>
<path d="M197.016 75.7887H192.414C192.386 75.7464 192.358 75.7182 192.329 75.6759L191.443 74.6751C191.105 74.2946 190.612 74.3369 190.303 74.7879L190.162 74.9994C189.782 75.5632 189.107 75.4645 188.839 74.7879L188.614 74.2523C188.332 73.5616 187.629 73.477 187.263 74.0831L186.489 75.3517C186.404 75.4786 186.362 75.6337 186.32 75.7887H184.153L183.97 74.5624C183.927 74.2805 183.646 74.2241 183.547 74.4778L183.379 74.9007C183.294 75.1262 183.041 75.1121 182.97 74.8725L181.324 69.6289C181.239 69.3752 180.972 69.3752 180.902 69.643L180.381 71.6023C180.31 71.8701 180.043 71.8842 179.959 71.6164L179.522 70.2773C179.438 70.0095 179.156 70.0377 179.1 70.3196L178.298 74.0972C178.242 74.365 177.974 74.4073 177.876 74.1536L176.496 70.6015C176.384 70.3337 176.088 70.4183 176.074 70.7143L175.793 74.7879C175.779 75.0557 175.539 75.1685 175.413 74.9853L175.385 74.943C175.286 74.802 175.117 74.8302 175.033 74.9853L174.765 75.5068C174.667 75.7182 174.428 75.6759 174.371 75.4363L172.978 70.4605C172.894 70.1645 172.598 70.2068 172.542 70.5028L171.796 75.2672C171.754 75.5068 171.528 75.6055 171.416 75.4222L170.811 74.5342C170.698 74.3791 170.515 74.4214 170.445 74.6047L170.234 75.1685C170.149 75.4081 169.91 75.394 169.826 75.1544L168.615 71.5459C168.517 71.2499 168.207 71.3345 168.179 71.6446L167.926 75.7605H166.377V72.448C166.377 72.0815 166.026 71.9829 165.913 72.3071L165.42 73.773C165.336 74.0127 165.097 74.0408 164.998 73.8153L164.632 73.0401C164.548 72.8427 164.337 72.8286 164.238 73.0119L163.619 74.0972C163.535 74.2523 163.352 74.2664 163.253 74.1254L162.226 72.7159C162.141 72.6031 162.001 72.589 161.916 72.6877L160.312 74.2805C160.199 74.3932 160.044 74.351 159.974 74.1959L157.835 70.08C157.722 69.8685 157.483 69.8967 157.413 70.1363L156.596 72.7581C156.526 72.9978 156.301 73.0401 156.188 72.8427L155.794 72.1802C155.681 71.997 155.484 72.0252 155.386 72.2225L154.049 75.4081C153.979 75.5914 153.796 75.6337 153.683 75.4927L148.954 69.8403C148.518 69.3188 148.194 68.6422 148.025 67.881L147.406 65.1183C147.322 64.7659 146.956 64.8223 146.928 65.1887L146.379 74.8302C146.351 75.3517 146.027 75.7605 145.647 75.7605H144.211C144.127 75.7605 144.043 75.7041 144 75.6055L143.691 74.8866C143.592 74.6751 143.381 74.6752 143.283 74.8725L142.945 75.6055C142.903 75.7041 142.818 75.7605 142.734 75.7605H141.509C141.439 75.7605 141.383 75.7182 141.34 75.6618L140.327 74.2664C140.229 74.1395 140.088 74.1395 139.989 74.2523L138.92 75.6196C138.877 75.6759 138.821 75.7041 138.751 75.7041H137.639C137.386 75.7041 137.189 75.986 137.189 76.3243C137.189 76.6626 137.386 76.9446 137.639 76.9446H138.976C139.06 76.9446 139.145 77.0009 139.187 77.1137L140.017 79.0307C140.102 79.2422 140.327 79.2563 140.426 79.0589L141.397 77.2406C141.439 77.156 141.509 77.0996 141.594 77.0996H142.804C142.903 77.0996 143.001 77.1983 143.029 77.3251L143.325 78.5797C143.395 78.9039 143.733 78.8757 143.789 78.5515L144.014 77.311C144.042 77.156 144.141 77.0573 144.254 77.0573H145.633C145.985 77.0573 146.28 77.3956 146.351 77.8608L147.378 84.7959C147.434 85.1483 147.8 85.1624 147.856 84.7959V84.7536C147.913 84.4012 148.293 84.4153 148.321 84.7818L148.405 85.6698C148.433 86.0363 148.813 86.0645 148.884 85.7121L149.559 82.2445C149.616 81.9344 149.925 81.9062 150.024 82.2023L150.432 83.4991C150.53 83.781 150.826 83.7528 150.896 83.4568L151.502 80.5953C151.558 80.3275 151.811 80.2711 151.924 80.4826L152.712 81.8921C152.839 82.1036 153.078 82.0472 153.134 81.7794L153.627 79.5241C153.697 79.2281 153.993 79.1999 154.091 79.4959L155.653 84.5562C155.752 84.8663 156.09 84.81 156.118 84.4717L156.357 82.2304C156.399 81.8921 156.737 81.8358 156.821 82.16L157.201 83.4709C157.286 83.7528 157.581 83.7528 157.652 83.4568L158.285 80.9336C158.341 80.6799 158.581 80.6235 158.707 80.835L158.89 81.1592C158.989 81.3142 159.158 81.3283 159.256 81.1733L160.664 79.0871C160.776 78.918 160.987 78.9602 161.058 79.1717L161.578 80.6517C161.677 80.9195 161.958 80.8914 162.029 80.6235L162.465 78.9039C162.521 78.6783 162.732 78.6079 162.859 78.777L163.647 79.806C163.788 79.9892 164.013 79.8906 164.055 79.6368L164.14 79.073C164.182 78.7911 164.449 78.7065 164.576 78.932L165.927 81.3001C166.068 81.5538 166.363 81.4129 166.363 81.0887V77.0855H167.996L168.559 80.0033C168.615 80.2993 168.925 80.3134 168.995 80.0315L169.502 78.0158C169.572 77.748 169.84 77.7339 169.924 77.9876L170.023 78.2696C170.107 78.4951 170.332 78.5092 170.417 78.2977L170.628 77.7903C170.726 77.5648 170.966 77.593 171.036 77.8326L172.542 83.3581C172.626 83.64 172.922 83.6259 172.978 83.3299L173.977 77.8608C174.034 77.593 174.287 77.5366 174.4 77.7762L174.597 78.2555C174.681 78.4669 174.892 78.4669 174.991 78.2696L175.089 78.044C175.202 77.8044 175.455 77.8749 175.497 78.1427L176.116 81.723C176.173 82.0472 176.525 82.0331 176.567 81.7089L177.13 77.1137H177.679L178.931 83.1044C178.988 83.3863 179.269 83.4145 179.353 83.1467L179.945 81.3847C180.029 81.131 180.296 81.1451 180.367 81.3988L181.183 84.3025C181.267 84.5844 181.563 84.5562 181.619 84.2602L182.604 78.2696C182.647 78.0017 182.9 77.9313 183.013 78.1568L183.66 79.4536C183.773 79.6791 184.012 79.6086 184.068 79.3549L184.392 77.6352C184.406 77.593 184.406 77.5366 184.392 77.4943L184.336 77.0996H186.672L187.967 78.9462C188.276 79.3972 188.811 79.4113 189.135 78.9743C189.529 78.4669 190.162 78.5938 190.429 79.2422L190.598 79.6509C190.964 80.5531 191.949 80.3839 192.132 79.3831L192.555 77.0855H197.002C197.157 77.0855 197.283 76.9164 197.283 76.6908V76.1693C197.297 75.972 197.171 75.7887 197.016 75.7887Z" fill="#2A5F73"/>
<path d="M167.25 147.438C173.873 147.438 179.241 142.061 179.241 135.428C179.241 128.796 173.873 123.419 167.25 123.419C160.628 123.419 155.26 128.796 155.26 135.428C155.26 142.061 160.628 147.438 167.25 147.438Z" fill="#2A5F73"/>
<path d="M169.685 139.262H164.787C164.407 139.262 164.055 139.107 163.816 138.854C163.563 138.6 163.408 138.262 163.408 137.881V132.976C163.408 132.595 163.563 132.243 163.816 132.003C164.07 131.749 164.407 131.594 164.787 131.594H169.685C169.966 131.594 170.234 131.679 170.459 131.834C170.825 132.088 171.078 132.51 171.078 132.99V137.881C171.078 138.247 170.938 138.586 170.698 138.839C170.445 139.093 170.079 139.262 169.685 139.262Z" fill="white"/>
<path d="M179.537 154.246H154.95C154.373 154.246 153.895 153.781 153.895 153.189C153.895 152.611 154.359 152.132 154.95 152.132H179.537C180.114 152.132 180.592 152.597 180.592 153.189C180.592 153.767 180.128 154.246 179.537 154.246Z" fill="#2D6277"/>
<path d="M167.602 32.388C167.532 32.529 167.419 32.6417 167.293 32.7263L167.884 33.8258H166.955L166.504 32.9096H166.181V33.8258H165.322V30.9644H166.547C166.772 30.9644 166.955 30.9925 167.096 31.0348C167.25 31.0912 167.363 31.1476 167.447 31.2322C167.532 31.3167 167.602 31.4154 167.644 31.5282C167.687 31.6409 167.701 31.7678 167.701 31.8947C167.701 32.092 167.673 32.2471 167.602 32.388ZM166.476 32.2471C166.617 32.2471 166.716 32.2189 166.772 32.1766C166.828 32.1202 166.856 32.0497 166.856 31.9511C166.856 31.8524 166.828 31.7678 166.772 31.7255C166.716 31.6691 166.617 31.655 166.476 31.655H166.167V32.2612H166.476V32.2471Z" fill="#2A5F73"/>
<path d="M169.755 33.699C169.587 33.8259 169.347 33.8823 169.066 33.8823C168.7 33.8823 168.418 33.7836 168.235 33.5863C168.052 33.3889 167.968 33.1211 167.968 32.7828C167.968 32.5996 167.996 32.4445 168.038 32.3035C168.095 32.1626 168.165 32.0357 168.249 31.9371C168.348 31.8384 168.461 31.7679 168.587 31.7115C168.728 31.6551 168.869 31.627 169.052 31.627C169.221 31.627 169.375 31.6551 169.502 31.6974C169.629 31.7538 169.741 31.8243 169.826 31.9089C169.91 32.0075 169.981 32.1203 170.023 32.2472C170.065 32.3881 170.093 32.5291 170.093 32.6982V32.9097H168.756C168.756 33.0365 168.784 33.1352 168.841 33.1775C168.897 33.2339 168.953 33.248 169.052 33.248C169.192 33.248 169.277 33.1916 169.305 33.0788H170.093C170.037 33.3748 169.938 33.5722 169.755 33.699ZM168.855 32.2895C168.798 32.3317 168.77 32.4163 168.77 32.515H169.319C169.319 32.4022 169.291 32.3317 169.249 32.2754C169.207 32.2331 169.136 32.2049 169.066 32.2049C168.981 32.219 168.911 32.2472 168.855 32.2895Z" fill="#2A5F73"/>
<path d="M172.402 33.3325C172.359 33.4453 172.289 33.544 172.205 33.6285C172.12 33.7131 172.022 33.7695 171.895 33.8118C171.768 33.8541 171.628 33.8823 171.459 33.8823C171.276 33.8823 171.121 33.8541 170.98 33.7977C170.839 33.7413 170.727 33.6708 170.642 33.5722C170.558 33.4735 170.488 33.3607 170.445 33.2198C170.403 33.0788 170.375 32.9379 170.375 32.7687C170.375 32.4022 170.474 32.1344 170.656 31.923C170.854 31.7256 171.107 31.627 171.459 31.627C171.628 31.627 171.782 31.6551 171.895 31.6974C172.022 31.7397 172.12 31.8102 172.191 31.8807C172.261 31.9512 172.331 32.0498 172.373 32.1485C172.416 32.2472 172.444 32.3458 172.458 32.4586L171.67 32.5291C171.656 32.4586 171.642 32.4163 171.613 32.374C171.585 32.3317 171.543 32.3176 171.473 32.3176C171.388 32.3176 171.332 32.3458 171.29 32.4163C171.248 32.4868 171.234 32.5996 171.234 32.7405C171.234 32.8956 171.248 33.0083 171.29 33.0788C171.332 33.1493 171.388 33.1775 171.473 33.1775C171.543 33.1775 171.585 33.1634 171.613 33.1211C171.642 33.0788 171.67 33.0224 171.67 32.952H172.472C172.472 33.107 172.444 33.2198 172.402 33.3325Z" fill="#2A5F73"/>
<path d="M164.145 33.7689C164.634 33.279 164.634 32.4847 164.145 31.9948C163.656 31.5049 162.863 31.5049 162.374 31.9948C161.885 32.4847 161.885 33.279 162.374 33.7689C162.863 34.2588 163.656 34.2588 164.145 33.7689Z" fill="#2A5F73"/>
<path d="M150.404 57.7179C149.757 56.8862 149.433 55.5894 149.433 53.8275C149.433 52.9395 149.517 52.1783 149.7 51.5299C149.869 50.8815 150.122 50.3458 150.446 49.923C150.77 49.5001 151.164 49.19 151.628 48.9786C152.093 48.7812 152.599 48.6685 153.176 48.6685C154.345 48.6685 155.245 49.0913 155.893 49.923C156.54 50.7546 156.864 52.0514 156.864 53.8134C156.864 55.5753 156.54 56.8722 155.879 57.7038C155.231 58.5354 154.302 58.9442 153.12 58.9442C151.952 58.9583 151.051 58.5495 150.404 57.7179ZM153.908 56.999C154.119 56.844 154.288 56.6184 154.429 56.3224C154.556 56.0264 154.654 55.674 154.711 55.2511C154.767 54.8283 154.795 54.349 154.795 53.8134C154.795 53.2778 154.767 52.7985 154.711 52.3756C154.654 51.9528 154.556 51.6004 154.429 51.3044C154.302 51.0083 154.119 50.7828 153.908 50.6278C153.697 50.4727 153.444 50.3881 153.134 50.3881C152.825 50.3881 152.571 50.4727 152.36 50.6278C152.149 50.7828 151.994 51.0083 151.868 51.3044C151.741 51.6004 151.656 51.9528 151.586 52.3756C151.53 52.7985 151.502 53.2778 151.502 53.8134C151.502 54.349 151.53 54.8283 151.586 55.2511C151.642 55.674 151.727 56.0264 151.868 56.3224C152.008 56.6184 152.163 56.844 152.36 56.999C152.571 57.1541 152.825 57.2245 153.134 57.2245C153.444 57.2245 153.697 57.1541 153.908 56.999Z" fill="#2D6277"/>
<path d="M158.736 57.7176C158.089 56.886 157.765 55.5892 157.765 53.8272C157.765 52.9392 157.849 52.178 158.032 51.5296C158.201 50.8812 158.455 50.3456 158.778 49.9227C159.102 49.4999 159.496 49.1898 159.961 48.9783C160.425 48.781 160.932 48.6682 161.509 48.6682C162.677 48.6682 163.577 49.0911 164.225 49.9227C164.872 50.7544 165.196 52.0512 165.196 53.8131C165.196 55.5751 164.872 56.8719 164.211 57.7036C163.563 58.5352 162.635 58.944 161.452 58.944C160.284 58.9581 159.383 58.5493 158.736 57.7176ZM162.24 56.9988C162.452 56.8437 162.62 56.6182 162.761 56.3222C162.902 56.0262 162.986 55.6738 163.043 55.2509C163.099 54.828 163.127 54.3488 163.127 53.8131C163.127 53.2775 163.099 52.7983 163.043 52.3754C162.986 51.9525 162.888 51.6001 162.761 51.3041C162.635 51.0081 162.452 50.7826 162.24 50.6275C162.029 50.4725 161.776 50.3879 161.466 50.3879C161.157 50.3879 160.903 50.4725 160.692 50.6275C160.481 50.7826 160.326 51.0081 160.2 51.3041C160.073 51.6001 159.989 51.9525 159.918 52.3754C159.862 52.7983 159.834 53.2775 159.834 53.8131C159.834 54.3488 159.862 54.828 159.918 55.2509C159.975 55.6738 160.059 56.0262 160.2 56.3222C160.326 56.6182 160.495 56.8437 160.692 56.9988C160.903 57.1538 161.157 57.2243 161.466 57.2243C161.776 57.2243 162.029 57.1538 162.24 56.9988Z" fill="#2D6277"/>
<path d="M168.39 51.3467V53.6161H166.377V51.3467H168.39ZM168.39 56.4352V58.7046H166.377V56.4352H168.39Z" fill="#2D6277"/>
<path d="M172.092 56.9005C172.359 57.1401 172.739 57.267 173.246 57.267C173.696 57.267 174.062 57.1542 174.358 56.9569C174.639 56.7454 174.794 56.393 174.794 55.8997C174.794 55.4204 174.668 55.068 174.428 54.8566C174.189 54.6452 173.795 54.5324 173.232 54.5324H172.247V52.7986H173.345C174.175 52.7986 174.597 52.3758 174.597 51.5441C174.597 51.3891 174.569 51.234 174.527 51.093C174.485 50.9521 174.4 50.8252 174.302 50.7125C174.203 50.5997 174.062 50.5151 173.893 50.4587C173.725 50.4024 173.513 50.3742 173.26 50.3742C172.81 50.3742 172.444 50.4728 172.176 50.6843C171.909 50.8957 171.712 51.2622 171.585 51.7837L169.7 51.53C169.784 51.1212 169.911 50.7548 170.08 50.4024C170.248 50.05 170.474 49.754 170.755 49.5002C171.037 49.2465 171.388 49.0492 171.811 48.9082C172.233 48.7673 172.711 48.6968 173.288 48.6968C173.837 48.6968 174.33 48.7673 174.738 48.9082C175.146 49.0492 175.498 49.2324 175.779 49.472C176.061 49.7117 176.258 49.9936 176.399 50.3178C176.539 50.642 176.61 50.9944 176.61 51.3609C176.61 51.8401 176.497 52.263 176.3 52.6436C176.089 53.0101 175.751 53.3202 175.301 53.5739C175.864 53.8135 176.258 54.1377 176.497 54.5465C176.722 54.9553 176.849 55.4063 176.849 55.8856C176.849 56.3507 176.779 56.7736 176.652 57.1542C176.525 57.5348 176.314 57.8731 176.019 58.1409C175.737 58.4087 175.371 58.6342 174.921 58.7893C174.471 58.9444 173.95 59.0289 173.331 59.0289C172.627 59.0289 172.036 58.9303 171.571 58.7188C171.107 58.5215 170.727 58.2537 170.445 57.9295C170.164 57.6053 169.967 57.2529 169.84 56.8441C169.714 56.4494 169.643 56.0547 169.629 55.6601H171.642C171.67 56.2239 171.825 56.6608 172.092 56.9005Z" fill="#2D6277"/>
<path d="M180.55 56.9003C180.761 57.14 181.127 57.2527 181.647 57.2527C182.098 57.2527 182.45 57.1259 182.717 56.844C182.97 56.5761 183.111 56.1251 183.111 55.5049C183.111 54.9551 182.984 54.5464 182.745 54.2785C182.506 54.0248 182.126 53.8839 181.605 53.8839C181.253 53.8839 180.958 53.9403 180.718 54.053C180.479 54.1658 180.254 54.3349 180.071 54.5464H178.41L178.889 48.9363H184.49V50.6419H180.536L180.338 52.7421C180.564 52.5871 180.831 52.4743 181.141 52.4038C181.45 52.3333 181.732 52.2911 181.999 52.2911C182.534 52.2911 182.998 52.3756 183.378 52.5589C183.758 52.728 184.082 52.9677 184.335 53.2637C184.589 53.5597 184.772 53.898 184.884 54.2785C184.997 54.6591 185.053 55.0679 185.053 55.5049C185.053 56.0687 184.969 56.5621 184.814 56.999C184.659 57.436 184.434 57.7884 184.138 58.0844C183.843 58.3804 183.505 58.5918 183.083 58.7469C182.675 58.8878 182.224 58.9724 181.718 58.9724C180.62 58.9724 179.761 58.7187 179.156 58.2112C178.551 57.7038 178.213 56.9285 178.171 55.8714H180.141C180.198 56.3224 180.324 56.6607 180.55 56.9003Z" fill="#2D6277"/>
<path d="M141.312 33.3186H137.963C137.54 33.3186 137.189 32.9662 137.189 32.5433C137.189 32.1205 137.54 31.7681 137.963 31.7681H141.312C141.734 31.7681 142.086 32.1205 142.086 32.5433C142.086 32.9803 141.748 33.3186 141.312 33.3186Z" fill="#2D6277"/>
<path d="M196.523 33.3188C196.101 33.3188 195.749 32.9664 195.749 32.5436C195.749 32.1207 196.101 31.7683 196.523 31.7683C196.945 31.7683 197.297 32.1207 197.297 32.5436C197.297 32.9805 196.945 33.3188 196.523 33.3188Z" fill="#2D6277"/>
<path d="M194.342 33.3186H193.173C192.751 33.3186 192.399 32.9662 192.399 32.5433C192.399 32.1205 192.751 31.7681 193.173 31.7681H194.342C194.764 31.7681 195.116 32.1205 195.116 32.5433C195.116 32.9803 194.764 33.3186 194.342 33.3186Z" fill="#2D6277"/>
<path d="M139.258 95.7906L138.216 96.5517H137.485C137.414 96.5517 137.358 96.5799 137.302 96.6081C137.231 96.6645 137.175 96.7491 137.175 96.8478V97.9895C137.175 98.0741 137.203 98.1446 137.259 98.2009C137.316 98.2573 137.386 98.2855 137.47 98.2855H138.554L139.23 98.948C139.342 99.0608 139.525 98.9762 139.525 98.8212V95.9315C139.553 95.7906 139.384 95.706 139.258 95.7906Z" fill="#2D6277"/>
<path d="M140.638 95.9035C140.596 95.8612 140.525 95.8753 140.483 95.9176C140.441 95.9598 140.455 96.0303 140.497 96.0726C140.905 96.3968 141.145 96.8761 141.145 97.3976C141.145 97.9332 140.905 98.4125 140.483 98.7367C140.441 98.779 140.427 98.8354 140.469 98.8918C140.497 98.9199 140.525 98.934 140.553 98.934C140.582 98.934 140.596 98.9199 140.624 98.9058C141.102 98.5394 141.37 97.9896 141.37 97.3976C141.37 96.8056 141.102 96.2559 140.638 95.9035Z" fill="#2D6277"/>
<path d="M140.06 96.3544C140.004 96.3262 139.948 96.3403 139.919 96.3967C139.891 96.4531 139.905 96.5095 139.962 96.5377C140.271 96.7209 140.454 97.0451 140.454 97.3975C140.454 97.7499 140.271 98.0741 139.962 98.2573C139.905 98.2855 139.891 98.356 139.919 98.3983C139.934 98.4265 139.976 98.4547 140.018 98.4547C140.032 98.4547 140.06 98.4547 140.074 98.4406C140.44 98.2292 140.679 97.8204 140.679 97.3975C140.665 96.9746 140.44 96.5659 140.06 96.3544Z" fill="#2D6277"/>
<path d="M189.796 98.4405H144.704C144.113 98.4405 143.648 97.9613 143.648 97.3833C143.648 96.7913 144.127 96.3262 144.704 96.3262H189.796C190.387 96.3262 190.852 96.8054 190.852 97.3833C190.852 97.9754 190.373 98.4405 189.796 98.4405Z" fill="#2D6277"/>
<path d="M166.195 98.4405H144.704C144.113 98.4405 143.648 97.9613 143.648 97.3833C143.648 96.7913 144.127 96.3262 144.704 96.3262H166.195C166.786 96.3262 167.25 96.8054 167.25 97.3833C167.25 97.9754 166.772 98.4405 166.195 98.4405Z" fill="#5ACBE8"/>
<path d="M193.356 97.8347C193.385 97.8629 193.441 97.8911 193.511 97.8911C193.582 97.8911 193.624 97.877 193.666 97.8347C193.708 97.7925 193.722 97.7361 193.722 97.6374C193.722 97.5528 193.708 97.4964 193.666 97.4542C193.624 97.4119 193.568 97.3978 193.497 97.3978C193.441 97.3978 193.399 97.4119 193.371 97.426C193.328 97.4401 193.3 97.4683 193.272 97.4964H193.033L193.103 96.6648H193.934V96.9185H193.356L193.328 97.2286C193.356 97.2004 193.399 97.1863 193.441 97.1863C193.483 97.1722 193.525 97.1722 193.568 97.1722C193.652 97.1722 193.708 97.1863 193.765 97.2145C193.821 97.2427 193.863 97.2709 193.905 97.3132C193.948 97.3555 193.976 97.4119 193.99 97.4683C194.004 97.5246 194.018 97.581 194.018 97.6515C194.018 97.7361 194.004 97.8066 193.976 97.877C193.948 97.9475 193.919 97.9898 193.877 98.0321C193.835 98.0744 193.779 98.1026 193.722 98.1308C193.666 98.1589 193.596 98.1589 193.525 98.1589C193.371 98.1589 193.244 98.1167 193.145 98.0462C193.061 97.9757 193.005 97.8629 193.005 97.7079H193.3C193.3 97.7502 193.328 97.8066 193.356 97.8347Z" fill="#2A5F73"/>
<path d="M194.342 97.9619C194.243 97.835 194.201 97.6518 194.201 97.384C194.201 97.2571 194.215 97.1443 194.243 97.0457C194.272 96.947 194.3 96.8765 194.356 96.806C194.398 96.7497 194.455 96.6933 194.525 96.6651C194.595 96.6369 194.666 96.6228 194.75 96.6228C194.919 96.6228 195.06 96.6792 195.144 96.806C195.243 96.9329 195.285 97.1162 195.285 97.384C195.285 97.6377 195.243 97.835 195.144 97.9619C195.046 98.0888 194.919 98.1451 194.736 98.1451C194.567 98.1451 194.426 98.0747 194.342 97.9619ZM194.849 97.8491C194.877 97.8209 194.905 97.7927 194.919 97.7505C194.933 97.7082 194.947 97.6518 194.961 97.5954C194.975 97.539 194.975 97.4685 194.975 97.384C194.975 97.2994 194.975 97.2289 194.961 97.1725C194.947 97.1162 194.933 97.0598 194.919 97.0175C194.905 96.9752 194.877 96.947 194.849 96.9188C194.82 96.8906 194.778 96.8906 194.736 96.8906C194.694 96.8906 194.652 96.9047 194.623 96.9188C194.595 96.947 194.567 96.9752 194.553 97.0175C194.539 97.0598 194.525 97.1162 194.511 97.1725C194.497 97.2289 194.497 97.2994 194.497 97.384C194.497 97.4685 194.497 97.539 194.511 97.5954C194.525 97.6518 194.539 97.7082 194.553 97.7505C194.567 97.7927 194.595 97.8209 194.623 97.8491C194.652 97.8773 194.694 97.8773 194.736 97.8773C194.778 97.8914 194.82 97.8773 194.849 97.8491Z" fill="#2A5F73"/>
<path d="M195.651 97.5106C195.608 97.4965 195.566 97.4684 195.524 97.4261C195.496 97.3838 195.468 97.3415 195.439 97.2851C195.425 97.2287 195.411 97.1583 195.411 97.0878C195.411 97.0032 195.425 96.9468 195.439 96.8904C195.453 96.8341 195.482 96.7918 195.524 96.7495C195.552 96.7072 195.594 96.679 195.651 96.6649C195.693 96.6508 195.749 96.6367 195.805 96.6367C195.862 96.6367 195.918 96.6508 195.96 96.6649C196.002 96.679 196.045 96.7072 196.087 96.7495C196.115 96.7918 196.143 96.8341 196.171 96.8904C196.185 96.9468 196.199 97.0173 196.199 97.0878C196.199 97.1723 196.185 97.2287 196.171 97.2851C196.157 97.3415 196.129 97.3838 196.087 97.4261C196.059 97.4684 196.016 97.4825 195.96 97.5106C195.918 97.5247 195.862 97.5388 195.805 97.5388C195.749 97.5388 195.693 97.5247 195.651 97.5106ZM195.904 97.2851C195.932 97.2428 195.946 97.1864 195.946 97.0878C195.946 96.9891 195.932 96.9327 195.904 96.8904C195.876 96.8482 195.848 96.8341 195.791 96.8341C195.749 96.8341 195.707 96.8482 195.693 96.8904C195.665 96.9327 195.651 96.9891 195.651 97.0878C195.651 97.1864 195.665 97.2428 195.693 97.2851C195.721 97.3133 195.749 97.3415 195.791 97.3415C195.848 97.3415 195.876 97.3133 195.904 97.2851ZM195.848 98.1027L196.565 96.6649H196.847L196.129 98.1027H195.848ZM196.762 98.1027C196.72 98.0886 196.678 98.0604 196.636 98.0181C196.608 97.9758 196.579 97.9335 196.551 97.8771C196.537 97.8208 196.523 97.7503 196.523 97.6798C196.523 97.5952 196.537 97.5388 196.551 97.4825C196.565 97.4261 196.593 97.3838 196.636 97.3415C196.664 97.2992 196.706 97.271 196.762 97.2569C196.805 97.2428 196.861 97.2287 196.917 97.2287C196.973 97.2287 197.03 97.2428 197.072 97.2569C197.114 97.271 197.156 97.2992 197.199 97.3415C197.227 97.3838 197.255 97.4261 197.283 97.4825C197.297 97.5388 197.311 97.6093 197.311 97.6798C197.311 97.7644 197.297 97.8208 197.283 97.8771C197.269 97.9335 197.241 97.9758 197.199 98.0181C197.17 98.0604 197.128 98.0745 197.072 98.1027C197.03 98.1168 196.973 98.1309 196.917 98.1309C196.861 98.1309 196.805 98.1309 196.762 98.1027ZM197.016 97.8771C197.044 97.8489 197.058 97.7785 197.058 97.6798C197.058 97.5811 197.044 97.5247 197.016 97.4825C196.988 97.4402 196.959 97.4261 196.903 97.4261C196.861 97.4261 196.819 97.4402 196.805 97.4825C196.776 97.5247 196.762 97.5811 196.762 97.6798C196.762 97.7785 196.776 97.8349 196.805 97.8771C196.833 97.9194 196.861 97.9335 196.903 97.9335C196.959 97.9335 197.002 97.9194 197.016 97.8771Z" fill="#2A5F73"/>
<path d="M167.25 101.838C169.706 101.838 171.697 99.8435 171.697 97.3834C171.697 94.9234 169.706 92.9292 167.25 92.9292C164.794 92.9292 162.803 94.9234 162.803 97.3834C162.803 99.8435 164.794 101.838 167.25 101.838Z" fill="#EBF2FF"/>
<path d="M55.0253 68.8812L61.0348 75.9995C61.2318 76.225 61.4992 76.366 61.7807 76.3801C62.0622 76.4083 62.3436 76.3237 62.5829 76.1264L65.3413 73.7865C65.6087 73.5609 65.7354 73.2367 65.7213 72.9125C65.7072 72.6729 65.6228 72.4474 65.468 72.25L59.4585 65.1317C59.0645 64.6666 58.3748 64.6102 57.9245 65.0049L55.166 67.3447C54.6875 67.7253 54.6312 68.416 55.0253 68.8812Z" fill="#453B72"/>
<path d="M51.4363 66.5558L55.0251 70.8127C55.2081 71.0241 55.4614 71.151 55.7147 71.1791C55.9821 71.2073 56.2636 71.1228 56.4888 70.9395L61.2175 66.9363C61.499 66.6967 61.6257 66.3302 61.5835 65.9919C61.5553 65.8087 61.4849 65.6254 61.3442 65.4704L57.7554 61.1994C57.2206 60.5651 56.4747 60.1986 55.7147 60.1281C54.9125 60.0435 54.0822 60.2832 53.4348 60.847L51.8022 62.2284C51.1548 62.7781 50.7889 63.5393 50.7185 64.3145C50.6482 65.0898 50.8874 65.8933 51.4363 66.5558Z" fill="#1C143A"/>
<path d="M118.723 84.0483L118.737 83.9919C118.779 83.7946 118.653 83.5831 118.456 83.5408L61.1051 70.6715C60.9081 70.6292 60.697 70.756 60.6548 70.9534L60.6407 71.0098C60.5985 71.2071 60.7251 71.4185 60.9222 71.4608L118.273 84.3302C118.47 84.3725 118.667 84.2456 118.723 84.0483Z" fill="#1C143A"/>
<path d="M118.413 85.416L118.427 85.3596C118.469 85.1622 118.343 84.9508 118.146 84.9085L60.7953 72.0391C60.5983 71.9969 60.3872 72.1237 60.345 72.3211L60.3309 72.3774C60.2887 72.5748 60.4153 72.7862 60.6123 72.8285L117.963 85.6979C118.16 85.7402 118.371 85.6133 118.413 85.416Z" fill="#1C143A"/>
<path d="M111.236 115.82H111.447C111.616 115.82 111.757 115.679 111.757 115.51V82.6812H110.94V115.51C110.926 115.693 111.067 115.82 111.236 115.82Z" fill="#1C143A"/>
<path d="M109.829 115.82H110.04C110.209 115.82 110.349 115.679 110.349 115.51V82.6812H109.533V115.51C109.519 115.693 109.66 115.82 109.829 115.82Z" fill="#1C143A"/>
<path d="M113.04 83.202C113.152 81.899 112.188 80.7519 110.887 80.6398C109.586 80.5277 108.441 81.4932 108.329 82.7962C108.217 84.0992 109.181 85.2464 110.482 85.3584C111.783 85.4705 112.928 84.505 113.04 83.202Z" fill="#2E234F"/>
<path d="M60.2882 70.3754C59.5986 70.9111 59.486 71.9119 60.0208 72.6026C60.5556 73.2932 61.5548 73.406 62.2445 72.8704C62.9341 72.3347 63.0467 71.3339 62.5119 70.6433C61.963 69.9526 60.9637 69.8257 60.2882 70.3754Z" fill="#2E234F"/>
<path d="M117.456 118.287H103.776C102.904 118.287 102.2 117.582 102.2 116.708V116.44C102.2 115.566 102.904 114.862 103.776 114.862H117.442C118.314 114.862 119.018 115.566 119.018 116.44V116.708C119.032 117.568 118.329 118.287 117.456 118.287Z" fill="white"/>
<path d="M117.372 121.035H113.404V168.383H117.372V121.035Z" fill="#1C143A"/>
<path d="M136.668 123.882H94.1227C92.6731 123.882 91.505 122.712 91.505 121.26V120.823C91.505 119.372 92.6731 118.202 94.1227 118.202H136.668C138.117 118.202 139.285 119.372 139.285 120.823V121.275C139.285 122.712 138.103 123.882 136.668 123.882Z" fill="#46C0E1"/>
<path d="M123.523 170.201H107.268C106.339 170.201 105.593 169.454 105.593 168.523V168.241C105.593 167.311 106.339 166.564 107.268 166.564H123.523C124.452 166.564 125.197 167.311 125.197 168.241V168.523C125.197 169.454 124.452 170.201 123.523 170.201Z" fill="#1C143A"/>
</svg>
